<svg xmlns="http://www.w3.org/2000/svg" width="14" height="14" viewBox="0 0 14 14">
  <path fill="#FFF" d="M8.06013889,6.56659004 L12.9669749,1.65975404 C13.1442395,1.4824894 13.1442395,1.19584871 12.9669749,1.01858407 L12.114596,0.166205182 C11.9373314,-0.0110594542 11.6506907,-0.0110594542 11.473426,0.166205182 L6.56659004,5.07304119 L1.65975404,0.166205182 C1.4824894,-0.0110594542 1.19584871,-0.0110594542 1.01858407,0.166205182 L0.166205182,1.01858407 C-0.0110594542,1.19584871 -0.0110594542,1.4824894 0.166205182,1.65975404 L5.07304119,6.56659004 L0.166205182,11.473426 C-0.0110594542,11.6506907 -0.0110594542,11.9373314 0.166205182,12.114596 L1.01858407,12.9669749 C1.19584871,13.1442395 1.4824894,13.1442395 1.65975404,12.9669749 L6.56659004,8.06013889 L11.473426,12.9669749 C11.6506907,13.1442395 11.9373314,13.1442395 12.114596,12.9669749 L12.9669749,12.114596 C13.1442395,11.9373314 13.1442395,11.6506907 12.9669749,11.473426 L8.06013889,6.56659004 Z"/>
</svg>
