<svg xmlns="http://www.w3.org/2000/svg" width="19" height="16" viewBox="0 0 19 16">
  <path fill="#6D88AE" d="M18.2298953,0.902448966 L18.2298953,5.03365979 C18.2298953,5.53000672 17.8315507,5.93610875 17.3446849,5.93610875 L7.52971016,5.93610875 C7.04284442,5.93610875 6.64449973,5.53000672 6.64449973,5.03365979 L6.64449973,0.902448966 C6.64449973,0.406102035 7.04284442,0 7.52971016,0 L17.3446849,0 C17.8315507,0 18.2298953,0.406102035 18.2298953,0.902448966 Z M4.72112228,0.902448966 L4.72112228,14.4993467 C4.72112228,14.9956936 4.32277759,15.4017957 3.83591186,15.4017957 L0.885210428,15.4017957 C0.398344693,15.4017957 0,14.9956936 0,14.4993467 L0,0.902448966 C0,0.406102035 0.398344693,0 0.885210428,0 L3.83591186,0 C4.32277759,0 4.72112228,0.406102035 4.72112228,0.902448966 Z M18.3104554,9.10069988 L18.3104554,14.3549583 C18.3104554,14.8513052 17.9121107,15.2574073 17.4252449,15.2574073 L14.4745435,15.2574073 C13.9876778,15.2574073 13.5893331,14.8513052 13.5893331,14.3549583 L13.5893331,9.10069988 C13.5893331,8.60435295 13.9876778,8.19825092 14.4745435,8.19825092 L17.4252449,8.19825092 C17.9121107,8.19825092 18.3104554,8.60435295 18.3104554,9.10069988 Z M11.5157888,9.10069988 L11.5157888,14.3549583 C11.5157888,14.8513052 11.1174441,15.2574073 10.6305784,15.2574073 L7.67987697,15.2574073 C7.19301124,15.2574073 6.79466654,14.8513052 6.79466654,14.3549583 L6.79466654,9.10069988 C6.79466654,8.60435295 7.19301124,8.19825092 7.67987697,8.19825092 L10.6305784,8.19825092 C11.1174441,8.19825092 11.5157888,8.60435295 11.5157888,9.10069988 Z"/>
</svg>
