<svg xmlns="http://www.w3.org/2000/svg" width="22" height="16" viewBox="0 0 22 16">
  <path fill="#5F7CA7" d="M11.3038961,2.03636364 L11.3038961,4.18077922 L7.31428571,4.18077922 C6.21298701,4.18077922 5.31948052,5.07428571 5.31948052,6.17558442 L5.31948052,9.85766234 C5.31948052,10.958961 6.21298701,11.8524675 7.31428571,11.8524675 L11.3038961,11.8524675 L11.3038961,13.9968831 C11.3038961,15.7672727 13.4524675,16.6649351 14.7075325,15.4057143 L20.6919481,9.42545455 C21.4690909,8.64831169 21.4690909,7.38493506 20.6919481,6.60363636 L14.7075325,0.619220779 C13.4566234,-0.623376623 11.3038961,0.261818182 11.3038961,2.03636364 Z M19.2831169,8.02077922 L13.2987013,14.0051948 L13.2987013,9.86181818 L7.31428571,9.86181818 L7.31428571,6.17974026 L13.2987013,6.17974026 L13.2987013,2.03636364 L19.2831169,8.02077922 Z M3.98961039,0.0415584416 L7.48051948,0.0415584416 C7.75480519,0.0415584416 7.97922078,0.265974026 7.97922078,0.54025974 L7.97922078,1.53766234 C7.97922078,1.81194805 7.75480519,2.03636364 7.48051948,2.03636364 L3.98961039,2.03636364 C2.88831169,2.03636364 1.99480519,2.92987013 1.99480519,4.03116883 L1.99480519,12.0103896 C1.99480519,13.1116883 2.88831169,14.0051948 3.98961039,14.0051948 L7.48051948,14.0051948 C7.75480519,14.0051948 7.97922078,14.2296104 7.97922078,14.5038961 L7.97922078,15.5012987 C7.97922078,15.7755844 7.75480519,16 7.48051948,16 L3.98961039,16 C1.78701299,16 0,14.212987 0,12.0103896 L0,4.03116883 C0,1.82857143 1.78701299,0.0415584416 3.98961039,0.0415584416 Z"/>
</svg>
