<?xml version="1.0" encoding="UTF-8"?>
<svg width="186px" height="13px" viewBox="0 0 186 13" version="1.1" xmlns="http://www.w3.org/2000/svg" xmlns:xlink="http://www.w3.org/1999/xlink">
    <!-- Generator: Sketch 54.1 (76490) - https://sketchapp.com -->
    <title>weather_icon_line</title>
    <desc>Created with Sketch.</desc>
    <g id="Page-1" stroke="none" stroke-width="1" fill="none" fill-rule="evenodd">
        <g id="weather_icon_line" transform="translate(-3.000000, 0.000000)" fill="#FFFFFF">
            <path d="M10.3761905,8.83428571 L10.6685714,9.12666667 C10.8209524,9.27904762 10.8209524,9.52666667 10.6685714,9.67809524 C10.592381,9.75428571 10.492381,9.79238095 10.392381,9.79238095 C10.2933333,9.79238095 10.192381,9.75428571 10.1161905,9.67809524 L9.82380952,9.38666667 C9.67142857,9.23333333 9.67142857,8.98666667 9.82380952,8.83428571 C9.97714286,8.68190476 10.2238095,8.68190476 10.3761905,8.83428571 Z M4.59619048,4.15809524 L4.3047619,3.86666667 C4.15142857,3.71428571 4.15142857,3.46666667 4.3047619,3.31428571 C4.45714286,3.16190476 4.70380952,3.16190476 4.85619048,3.31428571 L5.14857143,3.60666667 C5.30095238,3.75904762 5.30095238,4.00666667 5.14857143,4.15809524 C5.07238095,4.23428571 4.97238095,4.27238095 4.87238095,4.27238095 C4.77238095,4.27238095 4.67238095,4.23428571 4.59619048,4.15809524 Z M4.59619048,8.83428571 C4.74857143,8.68190476 4.99619048,8.68190476 5.14857143,8.83428571 C5.3,8.98666667 5.3,9.23333333 5.14857143,9.38666667 L4.85619048,9.67809524 C4.78,9.75428571 4.68,9.79238095 4.58,9.79238095 C4.48095238,9.79238095 4.38095238,9.75428571 4.3047619,9.67809524 C4.15142857,9.52666667 4.15142857,9.27904762 4.3047619,9.12666667 L4.59619048,8.83428571 Z M10.1161905,3.31428571 C10.2685714,3.16190476 10.5161905,3.16190476 10.6685714,3.31428571 C10.8209524,3.46666667 10.8209524,3.71428571 10.6685714,3.86666667 L10.3761905,4.15809524 C10.3,4.23428571 10.2,4.27238095 10.1,4.27238095 C10,4.27238095 9.9,4.23428571 9.82380952,4.15809524 C9.67142857,4.00666667 9.67142857,3.75904762 9.82380952,3.60666667 L10.1161905,3.31428571 Z M3.80380952,6.11047619 C4.02,6.11047619 4.19428571,6.2847619 4.19428571,6.5 C4.19428571,6.71619048 4.02,6.89047619 3.80380952,6.89047619 L3.39142857,6.89047619 C3.1752381,6.89047619 3,6.71619048 3,6.5 C3,6.2847619 3.1752381,6.11047619 3.39142857,6.11047619 L3.80380952,6.11047619 Z M11.6104762,6.11047619 C11.8257143,6.11047619 12.0009524,6.2847619 12.0009524,6.5 C12.0009524,6.71619048 11.8257143,6.89047619 11.6104762,6.89047619 L11.1971429,6.89047619 C10.9819048,6.89047619 10.8066667,6.71619048 10.8066667,6.5 C10.8066667,6.2847619 10.9819048,6.11047619 11.1971429,6.11047619 L11.6104762,6.11047619 Z M7.5,9.80666667 C7.71619048,9.80666667 7.89142857,9.98190476 7.89142857,10.1971429 L7.89142857,10.6104762 C7.89142857,10.8257143 7.71619048,11 7.5,11 C7.2847619,11 7.11047619,10.8257143 7.11047619,10.6104762 L7.11047619,10.1971429 C7.11047619,9.98190476 7.2847619,9.80666667 7.5,9.80666667 Z M7.5,3.19428571 C7.2847619,3.19428571 7.11047619,3.02 7.11047619,2.80380952 L7.11047619,2.39047619 C7.11047619,2.1752381 7.2847619,2 7.5,2 C7.71619048,2 7.89142857,2.1752381 7.89142857,2.39047619 L7.89142857,2.80380952 C7.89142857,3.02 7.71619048,3.19428571 7.5,3.19428571 Z M7.51714286,3.66380952 C9.08380952,3.66380952 10.3571429,4.93904762 10.3571429,6.5047619 C10.3571429,8.07142857 9.08380952,9.34571429 7.51714286,9.34571429 C5.95047619,9.34571429 4.67619048,8.07142857 4.67619048,6.5047619 C4.67619048,4.93904762 5.95047619,3.66380952 7.51714286,3.66380952 Z M7.51714286,8.5647619 C8.65238095,8.5647619 9.57714286,7.64095238 9.57714286,6.5047619 C9.57714286,5.36857143 8.65238095,4.4447619 7.51714286,4.4447619 C6.38095238,4.4447619 5.45619048,5.36857143 5.45619048,6.5047619 C5.45619048,7.64095238 6.38095238,8.5647619 7.51714286,8.5647619 Z" id="Combined-Shape"></path>
            <path d="M37.2848921,6.59064204 C37.2848921,7.45971016 36.8874036,8.23866752 36.2636369,8.76931971 C36.2926726,8.91850306 36.3096935,9.07269256 36.3096935,9.22988576 C36.3126972,9.91072253 36.0153317,10.4974436 35.5447534,10.8839186 C35.074175,11.2713948 34.4474047,11.4706397 33.775579,11.4706397 L28.5331359,11.4706397 C27.8613102,11.4706397 27.2345399,11.2713948 26.7649628,10.8829174 C26.2933832,10.4974436 25.9970189,9.91072253 26.0000226,9.22988576 C26.0000226,7.87722329 27.1123898,6.77787216 28.4920854,6.75684631 C28.6132343,5.42420846 29.7586421,4.37892377 31.1543575,4.37892377 C31.5218091,4.37892377 31.8692361,4.45401606 32.1876274,4.58417603 C32.7272906,4.03750416 33.4832197,3.69508331 34.3202484,3.69508331 C35.9552579,3.69508331 37.2848921,4.99367933 37.2848921,6.59064204 Z M33.8166295,6.75684631 C34.7227431,6.77086354 35.5097103,7.25045297 35.9462468,7.9593242 C36.272648,7.59187259 36.4698904,7.11328439 36.4698904,6.59064204 C36.4698904,5.43321953 35.5057054,4.49106159 34.3202484,4.49106159 C33.775579,4.49106159 33.2799699,4.6913077 32.9015048,5.01770886 C33.4111311,5.44823799 33.7545532,6.06299355 33.8166295,6.75684631 Z M35.0541504,10.3192246 C35.3635307,10.0599059 35.5487583,9.70947519 35.551762,9.22988576 C35.551762,9.19784638 35.5487583,9.16780946 35.5467559,9.13677132 C35.5317374,8.86043169 35.4496365,8.60011175 35.3174741,8.37183118 C35.0110975,7.85019007 34.4363912,7.49775692 33.775579,7.49675569 L33.441168,7.49675569 C33.4261496,7.49675569 33.4111311,7.49375199 33.3971139,7.49174953 C33.3090056,7.48173723 33.2269047,7.44369047 33.1648284,7.37961171 C33.1087595,7.32053911 33.0747176,7.24744928 33.0657066,7.1693533 C33.0637041,7.14732623 33.0617016,7.12529915 33.0637041,7.10227085 C33.0667078,7.04920563 33.0697115,7.01316133 33.0697115,6.9891318 C33.0687103,6.4614833 32.8434334,5.9858988 32.4839916,5.64548041 C32.2867492,5.46025276 32.0494576,5.31607556 31.7861339,5.22596481 C31.5878903,5.15788114 31.3756294,5.11883314 31.1543575,5.11883314 C30.097058,5.12083561 29.2420071,5.95586188 29.2400047,6.9891318 C29.2390034,7.01416256 29.2420071,7.05120809 29.246012,7.10527454 C29.2510182,7.20740006 29.2139727,7.30652188 29.1428853,7.38061294 C29.0717979,7.454704 28.9716749,7.49675569 28.8675469,7.49675569 L28.5331359,7.49675569 C27.5529312,7.49775692 26.7599566,8.27270936 26.7579541,9.22988576 C26.7609578,9.70947519 26.9461855,10.0599059 27.2545645,10.3192246 C27.5639447,10.5755396 28.0144985,10.7317316 28.5331359,10.7317316 L33.775579,10.7317316 C34.2952177,10.7317316 34.7447702,10.5755396 35.0541504,10.3192246 Z M37.3039155,8.96455966 L37.6092908,9.26192513 C37.7684864,9.41711587 37.7684864,9.66942597 37.6092908,9.8246167 C37.5291923,9.90171145 37.4250644,9.94075944 37.3209364,9.94075944 C37.2168084,9.94075944 37.1126804,9.90171145 37.0335832,9.8246167 L36.7282079,9.52725123 C36.5690122,9.37105926 36.5690122,9.1197504 36.7282079,8.96455966 C36.8874036,8.80936893 37.1447198,8.80936893 37.3039155,8.96455966 Z M37.0335832,3.33864524 C37.1917776,3.1834545 37.4500951,3.1834545 37.6092908,3.33864524 C37.7684864,3.4948372 37.7684864,3.74614607 37.6092908,3.9013368 L37.3039155,4.19870227 C37.2248182,4.27679826 37.1206903,4.31584625 37.0165623,4.31584625 C36.9124343,4.31584625 36.8073051,4.27679826 36.7282079,4.19870227 C36.5690122,4.04451277 36.5690122,3.79220267 36.7282079,3.63701194 L37.0335832,3.33864524 Z M38.5924992,6.18814736 C38.817776,6.18814736 39,6.3663664 39,6.58563589 C39,6.80590661 38.817776,6.98412565 38.5924992,6.98412565 L38.1609688,6.98412565 C37.9356919,6.98412565 37.753468,6.80590661 37.753468,6.58563589 C37.753468,6.3663664 37.9356919,6.18814736 38.1609688,6.18814736 L38.5924992,6.18814736 Z M31.2725027,4.19870227 L30.9681286,3.9013368 C30.8089329,3.74614607 30.8089329,3.4948372 30.9681286,3.33864524 C31.126323,3.1834545 31.3846405,3.1834545 31.5438361,3.33864524 L31.8492115,3.63701194 C32.0084071,3.79220267 32.0084071,4.04451277 31.8492115,4.19870227 C31.769113,4.27679826 31.664985,4.31584625 31.5608571,4.31584625 C31.4567291,4.31584625 31.3526011,4.27679826 31.2725027,4.19870227 Z M34.3032275,3.21649511 C34.0789519,3.21649511 33.8967279,3.03827607 33.8967279,2.81900658 L33.8967279,2.39748853 C33.8967279,2.17821904 34.0789519,2 34.3032275,2 C34.5285044,2 34.7107284,2.17821904 34.7107284,2.39748853 L34.7107284,2.81900658 C34.7107284,3.03827607 34.5285044,3.21649511 34.3032275,3.21649511 Z" id="Combined-Shape"></path>
            <path d="M63.3181913,9.13415621 L63.6208768,9.43984849 C63.7782332,9.59820712 63.7782332,9.85679272 63.6208768,10.0151513 C63.5416975,10.0953329 63.4384637,10.1354237 63.3352299,10.1354237 C63.2309939,10.1354237 63.1287623,10.0953329 63.0485808,10.0151513 L62.7468976,9.71046133 C62.5885389,9.55210271 62.5885389,9.29351711 62.7468976,9.13415621 C62.9042539,8.97479532 63.1598327,8.97479532 63.3181913,9.13415621 Z M57.3346408,4.25310244 L57.0319553,3.94841243 C56.8735967,3.78905154 56.8735967,3.53146821 57.0319553,3.37210731 C57.1893117,3.21274642 57.4458928,3.21274642 57.6032491,3.37210731 L57.9059346,3.67679732 C58.0642932,3.83615822 58.0642932,4.09374155 57.9059346,4.25310244 C57.8267553,4.33228175 57.7235215,4.37237254 57.6202877,4.37237254 C57.5160516,4.37237254 57.4128179,4.33228175 57.3346408,4.25310244 Z M63.0485808,3.37210731 C63.2069394,3.21274642 63.4635204,3.21274642 63.6208768,3.37210731 C63.7782332,3.53146821 63.7782332,3.78905154 63.6208768,3.94841243 L63.3181913,4.25310244 C63.239012,4.33228175 63.1357782,4.37237254 63.0325444,4.37237254 C62.9293107,4.37237254 62.8250746,4.33228175 62.7468976,4.25310244 C62.5885389,4.09374155 62.5885389,3.83615822 62.7468976,3.67679732 L63.0485808,3.37210731 Z M64.5960853,6.29071688 C64.8195914,6.29071688 65,6.47312998 65,6.69763841 C65,6.9231491 64.8195914,7.1055622 64.5960853,7.1055622 L64.1681161,7.1055622 C63.9446099,7.1055622 63.7642014,6.9231491 63.7642014,6.69763841 C63.7642014,6.47312998 63.9446099,6.29071688 64.1681161,6.29071688 L64.5960853,6.29071688 Z M60.3414501,3.24582132 C60.117944,3.24582132 59.9365331,3.06441049 59.9365331,2.8388998 L59.9365331,2.4079238 C59.9365331,2.1824131 60.117944,2 60.3414501,2 C60.563954,2 60.7453648,2.1824131 60.7453648,2.4079238 L60.7453648,2.8388998 C60.7453648,3.06441049 60.563954,3.24582132 60.3414501,3.24582132 Z M63.2981459,6.70264975 C63.2981459,7.58765396 62.9002448,8.36842211 62.287858,8.91165232 C62.3489965,9.13014713 62.3920941,9.35465556 62.3920941,9.5921935 C62.3951009,10.2827574 62.1034404,10.8761011 61.641394,11.2669863 C61.1803499,11.6608783 60.5649563,11.8633368 59.9074673,11.8633368 L54.7728393,11.8633368 C54.114348,11.8633368 53.4999567,11.6608783 53.0379103,11.2669863 C52.5758639,10.8761011 52.2842034,10.2827574 52.2882125,9.5921935 C52.2882125,8.22309299 53.3766775,7.11157582 54.7287394,7.08752135 C54.7487848,6.86601973 54.8039096,6.65654535 54.8740685,6.45508912 C54.823955,6.38493024 54.7928847,6.30274412 54.797896,6.21554665 C54.7999006,6.17445359 54.8019051,6.15039911 54.8009028,6.14037641 C54.8009028,5.48188518 54.2727067,4.94867766 53.6192268,4.94767539 C52.9667492,4.94867766 52.438553,5.48188518 52.4365484,6.14037641 C52.4365484,6.14939684 52.438553,6.17345132 52.4405575,6.21354211 C52.4465711,6.31677589 52.4104894,6.42000968 52.3393283,6.49618218 C52.2691694,6.57135241 52.1689424,6.61545228 52.0657086,6.61545228 L51.8381934,6.61545228 C51.2378338,6.61645455 50.7527352,7.10656447 50.751733,7.71193541 C50.7547398,8.01562315 50.8629849,8.22309299 51.0474026,8.38445843 C51.2318202,8.54281705 51.5104512,8.64504857 51.8381934,8.64504857 C52.0456632,8.64504857 52.2140446,8.81443216 52.2140446,9.02390654 C52.2140446,9.23338092 52.0456632,9.40276451 51.8381934,9.40276451 C51.3591084,9.40276451 50.9060825,9.25543086 50.5602994,8.96276808 C50.2155186,8.67110758 49.9970238,8.22209072 50.0000306,7.71193541 C50.0000306,6.73271785 50.751733,5.9319043 51.7048915,5.86274769 C51.8381934,4.91660503 52.6450206,4.18995944 53.6192268,4.18995944 C54.4691515,4.18995944 55.187779,4.74321236 55.4473668,5.510951 C55.9254495,5.00480477 56.5919589,4.68307617 57.3396522,4.68307617 C57.6152763,4.68307617 57.8758665,4.7351942 58.1254317,4.81537578 C58.1174135,4.8113667 58.1103976,4.80635535 58.1023795,4.80334854 C58.6426029,4.15187319 59.4534391,3.73693351 60.3574864,3.73693351 C61.9801612,3.73693351 63.2981459,5.06694549 63.2981459,6.70264975 Z M59.9515672,7.08752135 C60.768417,7.10155312 61.4830354,7.51649281 61.9260386,8.14190914 C62.2718217,7.75904209 62.4903165,7.25890948 62.4903165,6.70264975 C62.4903165,5.51696462 61.5341511,4.55177883 60.3574864,4.55177883 C59.7711586,4.55177883 59.2469715,4.79733492 58.8610977,5.18521332 C59.4634618,5.62120067 59.8814083,6.30073958 59.9515672,7.08752135 Z M61.1552932,10.6896789 C61.4569764,10.4280865 61.6373849,10.0762898 61.641394,9.5921935 C61.6393895,8.62800998 60.8646349,7.84623956 59.9074673,7.84423502 L59.5797251,7.84423502 C59.4764913,7.84423502 59.3762643,7.80113742 59.3061054,7.72596719 C59.2349443,7.64979469 59.1978603,7.54756317 59.2048762,7.44332711 C59.207883,7.38720001 59.2108898,7.35011603 59.2108898,7.32706382 C59.2088853,6.28570553 58.3729923,5.44179439 57.3396522,5.44079212 C56.6681314,5.44179439 56.0858127,5.80060696 55.7560659,6.33581902 C55.7380251,6.39996428 55.7099615,6.46010047 55.6648594,6.50520261 C55.5435847,6.75376551 55.4694168,7.03039197 55.4694168,7.32706382 C55.4684145,7.35011603 55.4724236,7.38820228 55.4754304,7.44533165 C55.481444,7.54856544 55.44436,7.65079696 55.3731989,7.72596719 C55.30304,7.80213969 55.2038153,7.84423502 55.1005815,7.84423502 L54.7728393,7.84423502 C53.8156717,7.84623956 53.0409171,8.62800998 53.0399149,9.5921935 C53.0429217,10.0762898 53.2233302,10.4280865 53.5240111,10.6896789 C53.8266966,10.9492668 54.2656908,11.1056208 54.7728393,11.1056208 L59.9074673,11.1056208 C60.4146158,11.1056208 60.85361,10.9492668 61.1552932,10.6896789 Z" id="Combined-Shape"></path>
            <path d="M87.0655773,5.52008002 C88.6862181,5.52008002 89.9999802,6.82882772 89.9999802,8.44244845 C90.0029888,9.24875737 89.6630153,9.93171307 89.1204616,10.3870169 C88.577908,10.8433235 87.8508259,11.0810042 87.0655773,11.0810042 L80.7484878,11.0810042 C79.9642421,11.0810042 79.2361572,10.8433235 78.6946064,10.3870169 C78.1520527,9.93171307 77.8120792,9.24875737 77.8150878,8.44244845 C77.8150878,6.82882772 79.1288499,5.52008002 80.7484878,5.52008002 L80.8086601,5.52008002 C80.825709,5.20016392 80.9049358,4.8982995 81.0122431,4.61147817 C81.0072288,4.60546094 80.9992058,4.60345519 80.9931886,4.59844084 C80.9300076,4.53024555 80.89591,4.43898422 80.9019272,4.34571714 C80.9049358,4.2975793 80.9069416,4.26649027 80.9069416,4.24944145 C80.9059387,3.38095447 80.2009198,2.67894421 79.3304271,2.67794134 C78.4599344,2.67894421 77.7549155,3.38095447 77.7529098,4.24944145 C77.7529098,4.26849601 77.7559184,4.29958504 77.758927,4.34571714 C77.7639414,4.43898422 77.7308466,4.53024555 77.6666628,4.59844084 C77.602479,4.66563325 77.5122205,4.70474525 77.4189535,4.70474525 L77.1401551,4.70474525 C76.3328433,4.70574812 75.6819795,5.35560904 75.6799738,6.15790649 C75.6829824,6.56005808 75.834416,6.8508909 76.0871397,7.06851408 C76.3398634,7.28312865 76.710926,7.41350198 77.1401551,7.41350198 C77.3276921,7.41350198 77.4801286,7.56593849 77.4801286,7.75247265 C77.4801286,7.94000967 77.3276921,8.09144332 77.1401551,8.09144332 C76.5745354,8.09144332 76.0450191,7.91995224 75.646879,7.58499306 C75.2487389,7.25203962 74.9970181,6.74558936 75.0000267,6.15790649 C75.0000267,4.99858668 75.9276831,4.05689006 77.0839943,4.02680391 C77.1963159,2.88954729 78.15807,2 79.3304271,2 C80.3984856,2 81.2850242,2.74212513 81.5196962,3.73396534 C82.0883246,3.04599529 82.9417685,2.59871446 83.907534,2.59871446 C85.5642782,2.59871446 86.9181552,3.89241909 87.0064079,5.52008002 L87.0655773,5.52008002 Z M88.6802009,9.86953502 C89.0773381,9.53156722 89.3180274,9.06422896 89.3200331,8.44244845 C89.3180274,7.2028989 88.3101412,6.2000271 87.0655773,6.19802136 L86.66142,6.19802136 C86.5691558,6.19802136 86.4788973,6.15890936 86.4147135,6.09171695 C86.3505297,6.02352166 86.3164321,5.93125746 86.3224493,5.83799038 C86.3264608,5.77380659 86.3314751,5.72566874 86.3304723,5.69056823 C86.3284665,4.3577516 85.245365,3.27866155 83.907534,3.2766558 C83.0310241,3.27765867 82.2718501,3.74499693 81.8466325,4.43798135 C81.8315894,4.50517376 81.8015032,4.56534607 81.7523625,4.61147817 C81.5868887,4.9374115 81.4855986,5.3004511 81.4845957,5.69056823 C81.4845957,5.72767448 81.4886072,5.77581233 81.4926187,5.840999 C81.4976331,5.9332632 81.4635354,6.02452454 81.3993516,6.09171695 C81.3351678,6.15991223 81.2459122,6.19802136 81.1526452,6.19802136 L80.7484878,6.19802136 C79.5039239,6.2000271 78.4970406,7.2028989 78.4950349,8.44244845 C78.4980435,9.06422896 78.7377299,9.53156722 79.1348671,9.86953502 C79.5320043,10.2054971 80.1006327,10.4040657 80.7484878,10.4040657 L87.0655773,10.4040657 C87.7134325,10.4040657 88.2830637,10.2054971 88.6802009,9.86953502 Z" id="Combined-Shape"></path>
            <path d="M109.881191,7.09452425 C110.085533,7.20283661 110.164813,7.45965972 110.059851,7.66958471 L108.163826,11.4147357 C108.090129,11.5610133 107.944968,11.6447599 107.793108,11.6447599 C107.72946,11.6447599 107.66358,11.6291272 107.602165,11.5967452 C107.397823,11.4895494 107.318543,11.2316097 107.423506,11.0228013 L109.31953,7.2776503 C109.424493,7.06884194 109.676849,6.98621189 109.881191,7.09452425 Z M108.24534,7.09899074 C108.447448,7.21065296 108.523379,7.46970932 108.412833,7.67628444 L106.012095,12.1963713 C105.937282,12.339299 105.793237,12.4196958 105.645843,12.4196958 C105.578846,12.4196958 105.510732,12.4029464 105.447084,12.3683311 C105.244976,12.2555523 105.170162,11.9976126 105.279591,11.7899208 L107.680329,7.26983394 C107.790874,7.06325883 108.043231,6.98621189 108.24534,7.09899074 Z M106.619538,7.10792372 C106.816063,7.22851892 106.879711,7.48980853 106.762465,7.69191715 L104.866441,10.9211887 C104.787161,11.0540668 104.649816,11.1277638 104.508005,11.1277638 C104.435425,11.1277638 104.361728,11.1087812 104.29473,11.0674662 C104.097088,10.946871 104.032324,10.6844648 104.151803,10.4823562 L106.04671,7.25420123 C106.165072,7.0520926 106.420779,6.98621189 106.619538,7.10792372 Z M112.999917,6.41896779 C113.009967,7.70754986 112.10327,8.62876322 110.985531,8.85655416 C110.956499,8.86325389 110.927466,8.86660376 110.898434,8.86660376 C110.705259,8.86660376 110.532182,8.72925922 110.48975,8.52938384 C110.441736,8.29935966 110.58578,8.07268534 110.811338,8.02355396 C111.635405,7.82702845 112.156867,7.28881652 112.166917,6.41896779 C112.164684,5.36040989 111.326101,4.50396063 110.290992,4.50172738 L109.933673,4.50172738 C109.817544,4.50172738 109.708115,4.452596 109.628835,4.36661609 C109.550671,4.27951955 109.509356,4.16450746 109.518289,4.0461455 C109.521639,3.98919777 109.524989,3.95011599 109.524989,3.92220043 C109.522756,2.77877925 108.618292,1.85421602 107.500553,1.85198278 C106.381697,1.85421602 105.477233,2.77877925 105.475,3.92220043 C105.475,3.94899937 105.47835,3.99031439 105.4817,4.05172861 C105.488399,4.16785733 105.447084,4.28286942 105.367804,4.36773271 C105.289641,4.452596 105.180212,4.50172738 105.066316,4.50172738 L104.708997,4.50172738 C103.672772,4.50396063 102.835305,5.36040989 102.833072,6.41896779 C102.840888,7.15482185 103.209373,7.6338528 103.813466,7.90407538 C104.025624,7.99452178 104.12612,8.24464517 104.037907,8.46238651 C103.948577,8.67901122 103.704037,8.78062385 103.491879,8.69017745 C102.626497,8.33062508 101.992255,7.49204177 102.000071,6.41896779 C102.000071,4.90817788 103.182574,3.6798934 104.653166,3.6497446 C104.788277,2.16352039 106.010979,1 107.500553,1 C108.98901,1 110.211711,2.16352039 110.346823,3.6497446 C111.816298,3.6798934 112.999917,4.90817788 112.999917,6.41896779 Z" id="Combined-Shape"></path>
            <path d="M135.9129,9.31592478 C136.043876,9.31592478 136.151234,9.42328245 136.151234,9.55640596 C136.151234,9.68845588 136.043876,9.79581355 135.9129,9.79581355 L135.544663,9.79581355 L135.701405,10.0073082 C135.779776,10.1135922 135.757231,10.263893 135.652021,10.3433376 C135.609078,10.3744714 135.559693,10.390575 135.510309,10.390575 C135.438379,10.390575 135.365376,10.3572941 135.319212,10.2939531 L134.950975,9.79581355 L134.782424,9.79581355 L134.88334,9.89672976 C134.975667,9.99013093 134.975667,10.1425788 134.88334,10.23598 C134.837176,10.2821438 134.774909,10.3057625 134.714788,10.3057625 C134.653594,10.3057625 134.592401,10.2821438 134.546237,10.23598 L134.404525,10.0931943 L134.404525,10.3895014 L134.894076,10.7394874 C135.002507,10.8157114 135.027199,10.9660121 134.950975,11.0733698 C134.874751,11.181801 134.726598,11.2075669 134.61924,11.1302693 L134.404525,10.9778214 L134.404525,11.3138509 C134.404525,11.4459009 134.298241,11.5532585 134.166191,11.5532585 C134.034141,11.5532585 133.927857,11.4459009 133.927857,11.3138509 L133.927857,11.0003666 L133.75179,11.146373 C133.707773,11.181801 133.654095,11.2000518 133.601489,11.2000518 C133.53278,11.2000518 133.464072,11.1699917 133.416834,11.1120185 C133.333095,11.0100287 133.348125,10.8586544 133.450115,10.7738419 L133.927857,10.3809128 L133.927857,10.060987 L133.753937,10.23598 C133.707773,10.2821438 133.64658,10.3057625 133.585386,10.3057625 C133.524192,10.3057625 133.464072,10.2821438 133.416834,10.23598 C133.324507,10.1425788 133.324507,9.99013093 133.416834,9.89672976 L133.51775,9.79581355 L133.363155,9.79581355 L133.017464,10.2885852 C132.970226,10.355147 132.897223,10.390575 132.822073,10.390575 C132.774835,10.390575 132.726524,10.3755449 132.684655,10.3454848 C132.577297,10.2692609 132.551531,10.1200337 132.627755,10.0116025 L132.780203,9.79581355 L132.446321,9.79581355 C132.313197,9.79581355 132.206913,9.68845588 132.206913,9.55640596 C132.206913,9.42328245 132.313197,9.31592478 132.446321,9.31592478 L132.756585,9.31592478 L132.612725,9.13878464 C132.528986,9.03679485 132.544016,8.88542055 132.646006,8.80168157 C132.747996,8.71686901 132.897223,8.73297266 132.980962,8.83496244 L133.372818,9.31592478 L133.632623,9.31592478 L133.416834,9.0990623 C133.324507,9.00566113 133.324507,8.85321325 133.416834,8.75981208 C133.510235,8.66641091 133.660536,8.66641091 133.753937,8.75981208 L133.927857,8.93480507 L133.927857,8.78450434 L133.450115,8.38835455 C133.348125,8.30461557 133.334169,8.15324127 133.416834,8.05017791 C133.500573,7.94818812 133.650874,7.93315805 133.752864,8.01797061 L133.927857,8.16290346 L133.927857,7.82365323 C133.927857,7.69052973 134.034141,7.58424564 134.166191,7.58424564 C134.298241,7.58424564 134.404525,7.69052973 134.404525,7.82365323 L134.404525,8.19403718 L134.614946,8.03622141 C134.720156,7.95677674 134.869383,7.97932185 134.947754,8.08560594 C135.026126,8.19189003 135.004654,8.34219076 134.899444,8.42163543 L134.404525,8.7909458 L134.404525,8.90259777 L134.546237,8.75981208 C134.638564,8.66641091 134.789939,8.66641091 134.88334,8.75981208 C134.975667,8.85321325 134.975667,9.00566113 134.88334,9.0990623 L134.667551,9.31592478 L134.95849,9.31592478 L135.351419,8.83496244 C135.435158,8.73189908 135.585459,8.71794259 135.687449,8.80168157 C135.788365,8.88542055 135.802322,9.03679485 135.719656,9.13878464 L135.575797,9.31592478 L135.9129,9.31592478 Z M137.999933,6.33460241 C138.007448,7.38456038 137.382626,8.20155221 136.525912,8.55583251 L136.526986,8.55583251 C136.325153,8.64279222 136.092187,8.54831748 136.006301,8.34433791 C135.920415,8.14143192 136.013816,7.90631863 136.216722,7.8204325 C136.82544,7.54989118 137.197971,7.06892884 137.20656,6.33460241 C137.204413,5.27605582 136.353066,4.42041523 135.302035,4.41826808 L134.94346,4.41826808 C134.835029,4.41826808 134.728745,4.37210428 134.654668,4.29265961 C134.579518,4.21214136 134.540869,4.10371012 134.54731,3.99313172 C134.551605,3.93301143 134.554825,3.89221551 134.554825,3.86752325 C134.552678,2.72523769 133.63477,1.80088819 132.5,1.79981461 C131.366303,1.80088819 130.448395,2.72523769 130.446248,3.86752325 C130.446248,3.89436267 130.449468,3.93623216 130.453763,3.99635245 C130.45913,4.10585727 130.420482,4.21321493 130.345331,4.29373318 C130.270181,4.37317786 130.166044,4.41826808 130.056539,4.41826808 L129.699038,4.41826808 C128.646933,4.42041523 127.79666,5.27605582 127.794513,6.33460241 C127.802028,7.07214957 128.17778,7.55418549 128.791866,7.82365323 C128.993698,7.90846579 129.089247,8.1425055 129.004434,8.34648506 C128.941093,8.50000653 128.794013,8.59233412 128.638344,8.59233412 C128.586813,8.59233412 128.535281,8.58159835 128.485897,8.5612004 C127.622741,8.20799367 126.992551,7.38885469 127.000067,6.33460241 C127.000067,4.84662516 128.188516,3.63777785 129.662537,3.61952704 C129.787072,2.15194775 131.009875,1 132.5,1 C133.990124,1 135.212928,2.15194775 135.338536,3.61952704 C136.811484,3.63885142 137.999933,4.84662516 137.999933,6.33460241 Z M132.561194,7.04208943 C132.716862,7.12368125 132.776982,7.31585147 132.696464,7.47259366 L131.246062,10.2961003 C131.190236,10.4056051 131.078584,10.4678725 130.963712,10.4678725 C130.914327,10.4678725 130.864942,10.4560632 130.817705,10.4324445 C130.662036,10.3508527 130.601916,10.1586825 130.682434,10.0008667 L132.132837,7.17843366 C132.213355,7.02169147 132.404451,6.9604976 132.561194,7.04208943 Z M130.955123,6.9744541 C131.148367,7.07966461 131.219223,7.32336651 131.115086,7.51661031 L129.233106,11.006808 C129.161176,11.1399315 129.024832,11.2161555 128.88312,11.2161555 C128.819779,11.2161555 128.755364,11.2000518 128.69417,11.1678445 C128.502,11.062634 128.430071,10.8200057 128.535281,10.6256883 L130.417261,7.13549059 C130.521398,6.94117322 130.762953,6.86924358 130.955123,6.9744541 Z" id="Combined-Shape"></path>
            <path d="M156.597854,8.3725242 C156.672656,8.4732581 156.651712,8.6168787 156.551975,8.69168109 C156.511083,8.72259942 156.46321,8.7375599 156.415336,8.7375599 C156.346518,8.7375599 156.2777,8.70564421 156.233816,8.64480493 L155.791983,8.04937785 L155.454873,8.04937785 L155.654346,8.24984827 C155.743112,8.33961115 155.743112,8.48323175 155.654346,8.57299463 C155.609465,8.61787606 155.551618,8.6398181 155.493771,8.6398181 C155.435923,8.6398181 155.377079,8.61787606 155.332197,8.57299463 L155.085848,8.32465067 L155.085848,8.81136493 L155.674294,9.23025835 C155.777022,9.30306602 155.800959,9.44568925 155.728151,9.54841788 C155.656341,9.6511465 155.513718,9.67608063 155.411987,9.60327297 L155.085848,9.37088686 L155.085848,9.85560638 C155.085848,9.98127441 154.984117,10.084003 154.858449,10.084003 C154.733778,10.084003 154.632047,9.98127441 154.632047,9.85560638 L154.632047,9.38883943 L154.347798,9.62222291 C154.305909,9.65812806 154.254046,9.6740859 154.204177,9.6740859 C154.138351,9.6740859 154.072525,9.64615967 154.028641,9.59030722 C153.948852,9.49256542 153.962815,9.34894482 154.060557,9.2691556 L154.632047,8.79839918 L154.632047,8.28575342 L154.345803,8.57299463 C154.301919,8.61787606 154.244072,8.6398181 154.185227,8.6398181 C154.12738,8.6398181 154.068536,8.61787606 154.024652,8.57299463 C153.936883,8.48323175 153.936883,8.33961115 154.024652,8.24984827 L154.224125,8.04937785 L153.902973,8.04937785 L153.487072,8.64081546 C153.44219,8.70364948 153.372375,8.7375599 153.300564,8.7375599 C153.255683,8.7375599 153.210801,8.72359678 153.169909,8.69567056 C153.067181,8.62186552 153.043244,8.47924229 153.116052,8.37651366 L153.346443,8.04937785 L152.864716,8.04937785 C152.739048,8.04937785 152.637316,7.94764659 152.637316,7.8209812 C152.637316,7.69531317 152.739048,7.59258455 152.864716,7.59258455 L153.328491,7.59258455 L153.096104,7.30733808 C153.016315,7.20959628 153.031276,7.06597568 153.12802,6.98618645 C153.225762,6.90639723 153.368385,6.92036034 153.448174,7.01810214 L153.915939,7.59258455 L154.357772,7.59258455 L154.024652,7.25746981 C153.936883,7.16770694 153.936883,7.02408633 154.024652,6.93432346 C154.113417,6.84555795 154.257038,6.84555795 154.345803,6.93432346 L154.632047,7.22156466 L154.632047,6.9044025 L154.059559,6.43165135 C153.962815,6.35186213 153.948852,6.20724416 154.028641,6.10950237 C154.107433,6.01275793 154.251053,5.99879482 154.347798,6.07858404 L154.632047,6.31396225 L154.632047,5.81627697 C154.632047,5.69060895 154.733778,5.58788032 154.858449,5.58788032 C154.984117,5.58788032 155.085848,5.69060895 155.085848,5.81627697 L155.085848,6.34188848 L155.407997,6.10152344 C155.507734,6.02572368 155.650357,6.04766572 155.725159,6.14939698 C155.799962,6.25013087 155.779017,6.39275411 155.678283,6.4675565 L155.085848,6.91138406 L155.085848,7.18266742 L155.332197,6.93432346 C155.42196,6.84555795 155.565581,6.84555795 155.654346,6.93432346 C155.743112,7.02408633 155.743112,7.16770694 155.654346,7.25746981 L155.320229,7.59258455 L155.798964,7.59258455 L156.269721,7.01810214 C156.348513,6.91936298 156.492133,6.90639723 156.588878,6.98618645 C156.685622,7.06597568 156.700583,7.20959628 156.619796,7.30733808 L156.38741,7.59258455 L156.882103,7.59258455 C157.007771,7.59258455 157.109502,7.69531317 157.109502,7.8209812 C157.109502,7.94764659 157.007771,8.04937785 156.882103,8.04937785 L156.358486,8.04937785 L156.597854,8.3725242 Z M162.999942,6.32792536 C163.006923,7.37116945 162.385565,8.18202743 161.532817,8.53609211 L161.533815,8.53609211 C161.484944,8.55703678 161.435076,8.56601307 161.385207,8.56601307 C161.237597,8.56601307 161.097966,8.47924229 161.037127,8.33362696 C160.955343,8.14113546 161.044108,7.91672827 161.237597,7.83494431 C161.854966,7.56266359 162.234963,7.0709625 162.242941,6.32792536 C162.240947,5.25575768 161.378226,4.38804988 160.312042,4.38605515 L159.951993,4.38605515 C159.848267,4.38605515 159.747534,4.34217108 159.676721,4.26637132 C159.605908,4.19057155 159.569005,4.08684556 159.573992,3.98212221 C159.577981,3.92427502 159.581971,3.88238568 159.581971,3.85445945 C159.579976,2.69851308 158.649434,1.76298444 157.50047,1.76098971 C156.350507,1.76298444 155.420963,2.69851308 155.418968,3.85445945 C155.418968,3.88238568 155.42196,3.92527239 155.42595,3.98611167 C155.431934,4.08983766 155.394034,4.19156892 155.323221,4.26736868 C155.251411,4.34316844 155.151674,4.38605515 155.047948,4.38605515 L154.688897,4.38605515 C153.622713,4.38804988 152.759992,5.25575768 152.757998,6.32792536 C152.757998,6.53836944 152.588446,6.7089189 152.378999,6.7089189 C152.169552,6.7089189 152,6.53836944 152,6.32792536 C152.000997,4.84085372 153.193846,3.63503909 154.670944,3.62506544 C154.787636,2.15594637 156.009408,1 157.50047,1 C158.991531,1 160.213303,2.15594637 160.329995,3.62506544 C161.806096,3.63503909 162.998944,4.84085372 162.999942,6.32792536 Z M160.613247,6.98219699 C160.799754,7.07993879 160.871564,7.30933281 160.775817,7.49584012 L159.319664,10.3253654 C159.25284,10.4560203 159.120191,10.5308227 158.983552,10.5308227 C158.924707,10.5308227 158.865863,10.5168596 158.81001,10.487936 C158.6245,10.3911915 158.551693,10.1617975 158.648437,9.97529022 L160.103593,7.14676226 C160.19934,6.95925759 160.427737,6.88644992 160.613247,6.98219699 Z M158.965599,6.98618645 C159.149114,7.08692035 159.217933,7.31731173 159.117199,7.50182431 L157.229186,11.0005817 C157.160368,11.1282445 157.030711,11.2000548 156.896066,11.2000548 C156.835227,11.2000548 156.77339,11.1850943 156.715543,11.154176 C156.533025,11.0534421 156.464207,10.8230507 156.563944,10.6375408 L158.452953,7.13878334 C158.551693,6.95526813 158.781087,6.88644992 158.965599,6.98618645 Z" id="Combined-Shape"></path>
            <path d="M182,5.29776695 L182,4.1 L180.353553,2.45355339 C180.158291,2.25829124 180.158291,1.94170876 180.353553,1.74644661 C180.548816,1.55118446 180.865398,1.55118446 181.06066,1.74644661 L182,2.68578644 L182,1 C182,0.723857625 182.223858,0.5 182.5,0.5 C182.776142,0.5 183,0.723857625 183,1 L183,2.66066017 L183.914214,1.74644661 C184.109476,1.55118446 184.426058,1.55118446 184.62132,1.74644661 C184.816582,1.94170876 184.816582,2.25829124 184.62132,2.45355339 L183,4.07487373 L183,5.29289322 L183.914214,4.37867966 C184.109476,4.18341751 184.426058,4.18341751 184.62132,4.37867966 C184.816582,4.5739418 184.816582,4.89052429 184.62132,5.08578644 L183.694544,6.01256313 L184.887437,6.01256313 L186.533883,4.36611652 C186.729146,4.17085438 187.045728,4.17085438 187.24099,4.36611652 C187.436252,4.56137867 187.436252,4.87796116 187.24099,5.0732233 L186.30165,6.01256313 L187.987437,6.01256313 C188.263579,6.01256313 188.487437,6.23642076 188.487437,6.51256313 C188.487437,6.78870551 188.263579,7.01256313 187.987437,7.01256313 L186.326777,7.01256313 L187.24099,7.9267767 C187.436252,8.12203884 187.436252,8.43862133 187.24099,8.63388348 C187.045728,8.82914562 186.729146,8.82914562 186.533883,8.63388348 L184.912563,7.01256313 L183.714796,7.01256313 L184.62132,7.9190873 C184.816582,8.11434944 184.816582,8.43093193 184.62132,8.62619408 C184.426058,8.82145622 184.109476,8.82145622 183.914214,8.62619408 L183,7.71198052 L183,8.93933983 L184.62132,10.5606602 C184.816582,10.7559223 184.816582,11.0725048 184.62132,11.267767 C184.426058,11.4630291 184.109476,11.4630291 183.914214,11.267767 L183,10.3535534 L183,12 C183,12.2761424 182.776142,12.5 182.5,12.5 C182.223858,12.5 182,12.2761424 182,12 L182,10.3284271 L181.06066,11.267767 C180.865398,11.4630291 180.548816,11.4630291 180.353553,11.267767 C180.158291,11.0725048 180.158291,10.7559223 180.353553,10.5606602 L182,8.91421356 L182,7.70710678 L181.085786,8.62132034 C180.890524,8.81658249 180.573942,8.81658249 180.37868,8.62132034 C180.183418,8.4260582 180.183418,8.10947571 180.37868,7.91421356 L181.28033,7.01256313 L180.048097,7.01256313 L178.426777,8.63388348 C178.231515,8.82914562 177.914932,8.82914562 177.71967,8.63388348 C177.524408,8.43862133 177.524408,8.12203884 177.71967,7.9267767 L178.633883,7.01256313 L176.987437,7.01256313 C176.711294,7.01256313 176.487437,6.78870551 176.487437,6.51256313 C176.487437,6.23642076 176.711294,6.01256313 176.987437,6.01256313 L178.65901,6.01256313 L177.71967,5.0732233 C177.524408,4.87796116 177.524408,4.56137867 177.71967,4.36611652 C177.914932,4.17085438 178.231515,4.17085438 178.426777,4.36611652 L180.073223,6.01256313 L181.300583,6.01256313 L180.37868,5.09066017 C180.183418,4.89539803 180.183418,4.57881554 180.37868,4.38355339 C180.573942,4.18829124 180.890524,4.18829124 181.085786,4.38355339 L182,5.29776695 Z" id="snow"></path>
        </g>
    </g>
</svg>