<?xml version="1.0" encoding="UTF-8"?>
<svg width="188px" height="13px" viewBox="0 0 188 13" version="1.1" xmlns="http://www.w3.org/2000/svg" xmlns:xlink="http://www.w3.org/1999/xlink">
    <!-- Generator: Sketch 54.1 (76490) - https://sketchapp.com -->
    <title>weather_icon_fill</title>
    <desc>Created with Sketch.</desc>
    <g id="Page-1" stroke="none" stroke-width="1" fill="none" fill-rule="evenodd">
        <g id="weather_icon_fill" transform="translate(-1.000000, 0.000000)">
            <g id="icon1" transform="translate(1.500000, 0.500000)">
                <path d="M8.77104396,5.85164835 C8.77104396,7.64571429 7.31620879,9.10054945 5.52214286,9.10054945 C3.72774725,9.10054945 2.27291209,7.64571429 2.27291209,5.85164835 C2.27291209,4.05725275 3.72774725,2.60274725 5.52214286,2.60274725 C7.31620879,2.60274725 8.77104396,4.05725275 8.77104396,5.85164835" id="Fill-1" stroke="#979797" stroke-width="0.5" fill="#C3E0FC"></path>
                <path d="M8.77104396,5.85164835 C8.77104396,7.64571429 7.31620879,9.10054945 5.52214286,9.10054945 C3.72774725,9.10054945 2.27291209,7.64571429 2.27291209,5.85164835 C2.27291209,4.05725275 3.72774725,2.60274725 5.52214286,2.60274725 C7.31620879,2.60274725 8.77104396,4.05725275 8.77104396,5.85164835 Z" id="Stroke-3" stroke="#36435E" stroke-width="0.5" stroke-linecap="round" stroke-linejoin="round"></path>
                <g id="Group-8" transform="translate(5.274725, 0.164835)">
                    <path d="M0.535714286,0.937021978 L0.535714286,0.164934066" id="Fill-5" fill="#C3E0FC"></path>
                    <path d="M0.535714286,0.937021978 L0.535714286,0.164934066" id="Stroke-7" stroke="#36435E" stroke-width="0.5" stroke-linecap="round" stroke-linejoin="round"></path>
                </g>
                <g id="Group-12" transform="translate(1.318681, 1.813187)">
                    <path d="M0.914821429,0.736428571 L0.32375,0.145" id="Fill-9" fill="#C3E0FC"></path>
                    <path d="M0.914821429,0.736428571 L0.32375,0.145" id="Stroke-11" stroke="#36435E" stroke-width="0.5" stroke-linecap="round" stroke-linejoin="round"></path>
                </g>
                <g id="Group-16" transform="translate(0.000000, 5.439560)">
                    <path d="M0.836714286,0.446428571 L-7.14285714e-05,0.446428571" id="Fill-13" fill="#C3E0FC"></path>
                    <path d="M0.836714286,0.446428571 L-7.14285714e-05,0.446428571" id="Stroke-15" stroke="#36435E" stroke-width="0.5" stroke-linecap="round" stroke-linejoin="round"></path>
                </g>
                <g id="Group-20" transform="translate(1.318681, 9.065934)">
                    <path d="M0.914821429,0.15625 L0.32375,0.747678571" id="Fill-17" fill="#C3E0FC"></path>
                    <path d="M0.914821429,0.15625 L0.32375,0.747678571" id="Stroke-19" stroke="#36435E" stroke-width="0.5" stroke-linecap="round" stroke-linejoin="round"></path>
                </g>
                <g id="Group-24" transform="translate(5.274725, 10.384615)">
                    <path d="M0.535714286,0.216824176 L0.535714286,0.988912088" id="Fill-21" fill="#C3E0FC"></path>
                    <path d="M0.535714286,0.216824176 L0.535714286,0.988912088" id="Stroke-23" stroke="#36435E" stroke-width="0.5" stroke-linecap="round" stroke-linejoin="round"></path>
                </g>
                <g id="Group-28" transform="translate(8.571429, 9.065934)">
                    <path d="M0.335178571,0.15625 L0.92625,0.747678571" id="Fill-25" fill="#C3E0FC"></path>
                    <path d="M0.335178571,0.15625 L0.92625,0.747678571" id="Stroke-27" stroke="#36435E" stroke-width="0.5" stroke-linecap="round" stroke-linejoin="round"></path>
                </g>
                <g id="Group-32" transform="translate(10.219780, 5.439560)">
                    <path d="M0.0561428571,0.446428571 L0.892928571,0.446428571" id="Fill-29" fill="#C3E0FC"></path>
                    <path d="M0.0561428571,0.446428571 L0.892928571,0.446428571" id="Stroke-31" stroke="#36435E" stroke-width="0.5" stroke-linecap="round" stroke-linejoin="round"></path>
                </g>
                <g id="Group-36" transform="translate(8.571429, 1.813187)">
                    <path d="M0.335178571,0.736428571 L0.92625,0.145" id="Fill-33" fill="#C3E0FC"></path>
                    <path d="M0.335178571,0.736428571 L0.92625,0.145" id="Stroke-35" stroke="#36435E" stroke-width="0.5" stroke-linecap="round" stroke-linejoin="round"></path>
                </g>
            </g>
            <g id="Group-63" transform="translate(25.764706, 1.168700)">
                <g id="Group-64" transform="translate(0.735294, 0.831300)">
                    <circle id="Oval" stroke="#36435E" stroke-width="0.5" fill="#C3E0FC" cx="3.5" cy="3.5" r="2"></circle>
                    <path d="M5.97487373,5.97487373 C5.87724266,6.07250481 5.71895142,6.07250481 5.62132034,5.97487373 L5.26776695,5.62132034 C5.17013588,5.52368927 5.17013588,5.36539803 5.26776695,5.26776695 C5.36539803,5.17013588 5.52368927,5.17013588 5.62132034,5.26776695 L5.97487373,5.62132034 C6.07250481,5.71895142 6.07250481,5.87724266 5.97487373,5.97487373 Z M1.73223305,1.73223305 C1.63460197,1.82986412 1.47631073,1.82986412 1.37867966,1.73223305 L1.02512627,1.37867966 C0.927495193,1.28104858 0.927495193,1.12275734 1.02512627,1.02512627 C1.12275734,0.927495193 1.28104858,0.927495193 1.37867966,1.02512627 L1.73223305,1.37867966 C1.82986412,1.47631073 1.82986412,1.63460197 1.73223305,1.73223305 Z M5.97487373,1.02512627 C6.07250481,1.12275734 6.07250481,1.28104858 5.97487373,1.37867966 L5.62132034,1.73223305 C5.52368927,1.82986412 5.36539803,1.82986412 5.26776695,1.73223305 C5.17013588,1.63460197 5.17013588,1.47631073 5.26776695,1.37867966 L5.62132034,1.02512627 C5.71895142,0.927495193 5.87724266,0.927495193 5.97487373,1.02512627 Z M1.73223305,5.26776695 C1.82986412,5.36539803 1.82986412,5.52368927 1.73223305,5.62132034 L1.37867966,5.97487373 C1.28104858,6.07250481 1.12275734,6.07250481 1.02512627,5.97487373 C0.927495193,5.87724266 0.927495193,5.71895142 1.02512627,5.62132034 L1.37867966,5.26776695 C1.47631073,5.17013588 1.63460197,5.17013588 1.73223305,5.26776695 Z M7,3.5 C7,3.63807119 6.88807119,3.75 6.75,3.75 L6.25,3.75 C6.11192881,3.75 6,3.63807119 6,3.5 C6,3.36192881 6.11192881,3.25 6.25,3.25 L6.75,3.25 C6.88807119,3.25 7,3.36192881 7,3.5 Z M1,3.5 C1,3.63807119 0.888071187,3.75 0.75,3.75 L0.25,3.75 C0.111928813,3.75 0,3.63807119 0,3.5 C0,3.36192881 0.111928813,3.25 0.25,3.25 L0.75,3.25 C0.888071187,3.25 1,3.36192881 1,3.5 Z M3.5,0 C3.63807119,-2.53632657e-17 3.75,0.111928813 3.75,0.25 L3.75,0.75 C3.75,0.888071187 3.63807119,1 3.5,1 C3.36192881,1 3.25,0.888071187 3.25,0.75 L3.25,0.25 C3.25,0.111928813 3.36192881,2.53632657e-17 3.5,0 Z M3.5,6 C3.63807119,6 3.75,6.11192881 3.75,6.25 L3.75,6.75 C3.75,6.88807119 3.63807119,7 3.5,7 C3.36192881,7 3.25,6.88807119 3.25,6.75 L3.25,6.25 C3.25,6.11192881 3.36192881,6 3.5,6 Z" id="Combined-Shape" fill="#36435E"></path>
                </g>
                <path d="M13.1252784,7.6058549 C13.1252784,8.73252157 12.2124745,9.6471098 11.0840235,9.6471098 L3.56008235,9.6471098 C2.86088627,9.6471098 2.29347451,9.07969804 2.29347451,8.38203137 C2.29347451,7.6830902 2.86088627,7.11567843 3.56008235,7.11567843 C3.59704314,7.11567843 3.63247451,7.11720784 3.66943529,7.12052157 C3.59857255,6.93087451 3.56008235,6.72669804 3.56008235,6.51130588 C3.56008235,5.53069804 4.35410196,4.73514902 5.33623922,4.73514902 C5.76039608,4.73514902 6.14963137,4.88452157 6.45500392,5.13381569 C6.46112157,3.84630588 7.50621961,2.80324706 8.79525882,2.80324706 C10.0876118,2.80324706 11.1352588,3.85114902 11.1352588,5.14350196 C11.1352588,5.28803137 11.1209843,5.42797255 11.0952392,5.5646 C12.2170627,5.57097255 13.1252784,6.48224706 13.1252784,7.6058549" id="Fill-25" fill="#FFFFFF"></path>
                <path d="M13.1252784,7.6058549 C13.1252784,8.73252157 12.2124745,9.6471098 11.0840235,9.6471098 L3.56008235,9.6471098 C2.86088627,9.6471098 2.29347451,9.07969804 2.29347451,8.38203137 C2.29347451,7.6830902 2.86088627,7.11567843 3.56008235,7.11567843 C3.59704314,7.11567843 3.63247451,7.11720784 3.66943529,7.12052157 C3.59857255,6.93087451 3.56008235,6.72669804 3.56008235,6.51130588 C3.56008235,5.53069804 4.35410196,4.73514902 5.33623922,4.73514902 C5.76039608,4.73514902 6.14963137,4.88452157 6.45500392,5.13381569 C6.46112157,3.84630588 7.50621961,2.80324706 8.79525882,2.80324706 C10.0876118,2.80324706 11.1352588,3.85114902 11.1352588,5.14350196 C11.1352588,5.28803137 11.1209843,5.42797255 11.0952392,5.5646 C12.2170627,5.57097255 13.1252784,6.48224706 13.1252784,7.6058549 Z" id="Stroke-27" stroke="#36435E" stroke-width="0.5" stroke-linecap="round" stroke-linejoin="round"></path>
            </g>
            <g id="Group-63" transform="translate(49.764706, 1.168700)">
                <g id="Group-64" transform="translate(0.735294, 0.831300)">
                    <circle id="Oval" stroke="#36435E" stroke-width="0.5" fill="#FFFFFF" cx="3.5" cy="3.5" r="2"></circle>
                    <path d="M5.97487373,5.97487373 C5.87724266,6.07250481 5.71895142,6.07250481 5.62132034,5.97487373 L5.26776695,5.62132034 C5.17013588,5.52368927 5.17013588,5.36539803 5.26776695,5.26776695 C5.36539803,5.17013588 5.52368927,5.17013588 5.62132034,5.26776695 L5.97487373,5.62132034 C6.07250481,5.71895142 6.07250481,5.87724266 5.97487373,5.97487373 Z M1.73223305,1.73223305 C1.63460197,1.82986412 1.47631073,1.82986412 1.37867966,1.73223305 L1.02512627,1.37867966 C0.927495193,1.28104858 0.927495193,1.12275734 1.02512627,1.02512627 C1.12275734,0.927495193 1.28104858,0.927495193 1.37867966,1.02512627 L1.73223305,1.37867966 C1.82986412,1.47631073 1.82986412,1.63460197 1.73223305,1.73223305 Z M5.97487373,1.02512627 C6.07250481,1.12275734 6.07250481,1.28104858 5.97487373,1.37867966 L5.62132034,1.73223305 C5.52368927,1.82986412 5.36539803,1.82986412 5.26776695,1.73223305 C5.17013588,1.63460197 5.17013588,1.47631073 5.26776695,1.37867966 L5.62132034,1.02512627 C5.71895142,0.927495193 5.87724266,0.927495193 5.97487373,1.02512627 Z M1.73223305,5.26776695 C1.82986412,5.36539803 1.82986412,5.52368927 1.73223305,5.62132034 L1.37867966,5.97487373 C1.28104858,6.07250481 1.12275734,6.07250481 1.02512627,5.97487373 C0.927495193,5.87724266 0.927495193,5.71895142 1.02512627,5.62132034 L1.37867966,5.26776695 C1.47631073,5.17013588 1.63460197,5.17013588 1.73223305,5.26776695 Z M7,3.5 C7,3.63807119 6.88807119,3.75 6.75,3.75 L6.25,3.75 C6.11192881,3.75 6,3.63807119 6,3.5 C6,3.36192881 6.11192881,3.25 6.25,3.25 L6.75,3.25 C6.88807119,3.25 7,3.36192881 7,3.5 Z M1,3.5 C1,3.63807119 0.888071187,3.75 0.75,3.75 L0.25,3.75 C0.111928813,3.75 0,3.63807119 0,3.5 C0,3.36192881 0.111928813,3.25 0.25,3.25 L0.75,3.25 C0.888071187,3.25 1,3.36192881 1,3.5 Z M3.5,0 C3.63807119,-2.53632657e-17 3.75,0.111928813 3.75,0.25 L3.75,0.75 C3.75,0.888071187 3.63807119,1 3.5,1 C3.36192881,1 3.25,0.888071187 3.25,0.75 L3.25,0.25 C3.25,0.111928813 3.36192881,2.53632657e-17 3.5,0 Z M3.5,6 C3.63807119,6 3.75,6.11192881 3.75,6.25 L3.75,6.75 C3.75,6.88807119 3.63807119,7 3.5,7 C3.36192881,7 3.25,6.88807119 3.25,6.75 L3.25,6.25 C3.25,6.11192881 3.36192881,6 3.5,6 Z" id="Combined-Shape" fill="#36435E"></path>
                </g>
                <path d="M13.1252784,7.6058549 C13.1252784,8.73252157 12.2124745,9.6471098 11.0840235,9.6471098 L3.56008235,9.6471098 C2.86088627,9.6471098 2.29347451,9.07969804 2.29347451,8.38203137 C2.29347451,7.6830902 2.86088627,7.11567843 3.56008235,7.11567843 C3.59704314,7.11567843 3.63247451,7.11720784 3.66943529,7.12052157 C3.59857255,6.93087451 3.56008235,6.72669804 3.56008235,6.51130588 C3.56008235,5.53069804 4.35410196,4.73514902 5.33623922,4.73514902 C5.76039608,4.73514902 6.14963137,4.88452157 6.45500392,5.13381569 C6.46112157,3.84630588 7.50621961,2.80324706 8.79525882,2.80324706 C10.0876118,2.80324706 11.1352588,3.85114902 11.1352588,5.14350196 C11.1352588,5.28803137 11.1209843,5.42797255 11.0952392,5.5646 C12.2170627,5.57097255 13.1252784,6.48224706 13.1252784,7.6058549" id="Fill-25" fill="#C3E0FC"></path>
                <path d="M13.1252784,7.6058549 C13.1252784,8.73252157 12.2124745,9.6471098 11.0840235,9.6471098 L3.56008235,9.6471098 C2.86088627,9.6471098 2.29347451,9.07969804 2.29347451,8.38203137 C2.29347451,7.6830902 2.86088627,7.11567843 3.56008235,7.11567843 C3.59704314,7.11567843 3.63247451,7.11720784 3.66943529,7.12052157 C3.59857255,6.93087451 3.56008235,6.72669804 3.56008235,6.51130588 C3.56008235,5.53069804 4.35410196,4.73514902 5.33623922,4.73514902 C5.76039608,4.73514902 6.14963137,4.88452157 6.45500392,5.13381569 C6.46112157,3.84630588 7.50621961,2.80324706 8.79525882,2.80324706 C10.0876118,2.80324706 11.1352588,3.85114902 11.1352588,5.14350196 C11.1352588,5.28803137 11.1209843,5.42797255 11.0952392,5.5646 C12.2170627,5.57097255 13.1252784,6.48224706 13.1252784,7.6058549 Z" id="Stroke-27" stroke="#36435E" stroke-width="0.5" stroke-linecap="round" stroke-linejoin="round"></path>
            </g>
            <g id="Group-63" transform="translate(49.764706, 1.168700)">
                <g id="Group-64" transform="translate(0.735294, 0.831300)">
                    <circle id="Oval" stroke="#36435E" stroke-width="0.5" fill="#FFFFFF" cx="3.5" cy="3.5" r="2"></circle>
                    <path d="M5.97487373,5.97487373 C5.87724266,6.07250481 5.71895142,6.07250481 5.62132034,5.97487373 L5.26776695,5.62132034 C5.17013588,5.52368927 5.17013588,5.36539803 5.26776695,5.26776695 C5.36539803,5.17013588 5.52368927,5.17013588 5.62132034,5.26776695 L5.97487373,5.62132034 C6.07250481,5.71895142 6.07250481,5.87724266 5.97487373,5.97487373 Z M1.73223305,1.73223305 C1.63460197,1.82986412 1.47631073,1.82986412 1.37867966,1.73223305 L1.02512627,1.37867966 C0.927495193,1.28104858 0.927495193,1.12275734 1.02512627,1.02512627 C1.12275734,0.927495193 1.28104858,0.927495193 1.37867966,1.02512627 L1.73223305,1.37867966 C1.82986412,1.47631073 1.82986412,1.63460197 1.73223305,1.73223305 Z M5.97487373,1.02512627 C6.07250481,1.12275734 6.07250481,1.28104858 5.97487373,1.37867966 L5.62132034,1.73223305 C5.52368927,1.82986412 5.36539803,1.82986412 5.26776695,1.73223305 C5.17013588,1.63460197 5.17013588,1.47631073 5.26776695,1.37867966 L5.62132034,1.02512627 C5.71895142,0.927495193 5.87724266,0.927495193 5.97487373,1.02512627 Z M1.73223305,5.26776695 C1.82986412,5.36539803 1.82986412,5.52368927 1.73223305,5.62132034 L1.37867966,5.97487373 C1.28104858,6.07250481 1.12275734,6.07250481 1.02512627,5.97487373 C0.927495193,5.87724266 0.927495193,5.71895142 1.02512627,5.62132034 L1.37867966,5.26776695 C1.47631073,5.17013588 1.63460197,5.17013588 1.73223305,5.26776695 Z M7,3.5 C7,3.63807119 6.88807119,3.75 6.75,3.75 L6.25,3.75 C6.11192881,3.75 6,3.63807119 6,3.5 C6,3.36192881 6.11192881,3.25 6.25,3.25 L6.75,3.25 C6.88807119,3.25 7,3.36192881 7,3.5 Z M1,3.5 C1,3.63807119 0.888071187,3.75 0.75,3.75 L0.25,3.75 C0.111928813,3.75 0,3.63807119 0,3.5 C0,3.36192881 0.111928813,3.25 0.25,3.25 L0.75,3.25 C0.888071187,3.25 1,3.36192881 1,3.5 Z M3.5,0 C3.63807119,-2.53632657e-17 3.75,0.111928813 3.75,0.25 L3.75,0.75 C3.75,0.888071187 3.63807119,1 3.5,1 C3.36192881,1 3.25,0.888071187 3.25,0.75 L3.25,0.25 C3.25,0.111928813 3.36192881,2.53632657e-17 3.5,0 Z M3.5,6 C3.63807119,6 3.75,6.11192881 3.75,6.25 L3.75,6.75 C3.75,6.88807119 3.63807119,7 3.5,7 C3.36192881,7 3.25,6.88807119 3.25,6.75 L3.25,6.25 C3.25,6.11192881 3.36192881,6 3.5,6 Z" id="Combined-Shape" fill="#36435E"></path>
                </g>
                <path d="M13.1252784,7.6058549 C13.1252784,8.73252157 12.2124745,9.6471098 11.0840235,9.6471098 L3.56008235,9.6471098 C2.86088627,9.6471098 2.29347451,9.07969804 2.29347451,8.38203137 C2.29347451,7.6830902 2.86088627,7.11567843 3.56008235,7.11567843 C3.59704314,7.11567843 3.63247451,7.11720784 3.66943529,7.12052157 C3.59857255,6.93087451 3.56008235,6.72669804 3.56008235,6.51130588 C3.56008235,5.53069804 4.35410196,4.73514902 5.33623922,4.73514902 C5.76039608,4.73514902 6.14963137,4.88452157 6.45500392,5.13381569 C6.46112157,3.84630588 7.50621961,2.80324706 8.79525882,2.80324706 C10.0876118,2.80324706 11.1352588,3.85114902 11.1352588,5.14350196 C11.1352588,5.28803137 11.1209843,5.42797255 11.0952392,5.5646 C12.2170627,5.57097255 13.1252784,6.48224706 13.1252784,7.6058549" id="Fill-25" fill="#C3E0FC"></path>
                <path d="M13.1252784,7.6058549 C13.1252784,8.73252157 12.2124745,9.6471098 11.0840235,9.6471098 L3.56008235,9.6471098 C2.86088627,9.6471098 2.29347451,9.07969804 2.29347451,8.38203137 C2.29347451,7.6830902 2.86088627,7.11567843 3.56008235,7.11567843 C3.59704314,7.11567843 3.63247451,7.11720784 3.66943529,7.12052157 C3.59857255,6.93087451 3.56008235,6.72669804 3.56008235,6.51130588 C3.56008235,5.53069804 4.35410196,4.73514902 5.33623922,4.73514902 C5.76039608,4.73514902 6.14963137,4.88452157 6.45500392,5.13381569 C6.46112157,3.84630588 7.50621961,2.80324706 8.79525882,2.80324706 C10.0876118,2.80324706 11.1352588,3.85114902 11.1352588,5.14350196 C11.1352588,5.28803137 11.1209843,5.42797255 11.0952392,5.5646 C12.2170627,5.57097255 13.1252784,6.48224706 13.1252784,7.6058549 Z" id="Stroke-27" stroke="#36435E" stroke-width="0.5" stroke-linecap="round" stroke-linejoin="round"></path>
            </g>
            <g id="Group-9" transform="translate(76.000000, 3.000000)">
                <path d="M8.14781633,3.61272653 C8.14781633,4.46011429 7.46067347,5.14831837 6.61195918,5.14831837 L0.95244898,5.14831837 C0.426346939,5.14831837 0,4.72144082 0,4.19666531 C0,3.67082857 0.426346939,3.24395102 0.95244898,3.24395102 C0.980040816,3.24395102 1.00683673,3.24501224 1.03442857,3.24766531 C0.981367347,3.10493061 0.95244898,2.95131837 0.95244898,2.78921633 C0.95244898,2.05193061 1.54991837,1.4534 2.28879592,1.4534 C2.60795918,1.4534 2.90032653,1.5658898 3.12981633,1.75319592 C3.13459184,0.784563265 3.92069388,5.30612245e-05 4.89065306,5.30612245e-05 C5.86273469,5.30612245e-05 6.65069388,0.788277551 6.65069388,1.76035918 C6.65069388,1.86913469 6.63981633,1.97446122 6.62071429,2.07713469 C7.46438776,2.0819102 8.14781633,2.76746122 8.14781633,3.61272653" id="Fill-1" fill="#C3E0FC"></path>
                <path d="M8.14781633,3.61272653 C8.14781633,4.46011429 7.46067347,5.14831837 6.61195918,5.14831837 L0.95244898,5.14831837 C0.426346939,5.14831837 0,4.72144082 0,4.19666531 C0,3.67082857 0.426346939,3.24395102 0.95244898,3.24395102 C0.980040816,3.24395102 1.00683673,3.24501224 1.03442857,3.24766531 C0.981367347,3.10493061 0.95244898,2.95131837 0.95244898,2.78921633 C0.95244898,2.05193061 1.54991837,1.4534 2.28879592,1.4534 C2.60795918,1.4534 2.90032653,1.5658898 3.12981633,1.75319592 C3.13459184,0.784563265 3.92069388,5.30612245e-05 4.89065306,5.30612245e-05 C5.86273469,5.30612245e-05 6.65069388,0.788277551 6.65069388,1.76035918 C6.65069388,1.86913469 6.63981633,1.97446122 6.62071429,2.07713469 C7.46438776,2.0819102 8.14781633,2.76746122 8.14781633,3.61272653 Z" id="Stroke-3" stroke="#36435E" stroke-width="0.5" stroke-linecap="round" stroke-linejoin="round"></path>
                <path d="M12.9702061,5.22411633 C12.9702061,6.30391224 12.0952265,7.18074898 11.0135735,7.18074898 L3.80228776,7.18074898 C3.1323898,7.18074898 2.58851224,6.63687143 2.58851224,5.9683 C2.58851224,5.29813673 3.1323898,4.75425918 3.80228776,4.75425918 C3.83810408,4.75425918 3.87179796,4.75585102 3.90734898,4.75903469 C3.83943061,4.5773 3.80228776,4.38150408 3.80228776,4.17509592 C3.80228776,3.23538163 4.56345102,2.47262653 5.50449184,2.47262653 C5.91147143,2.47262653 6.28422653,2.61589184 6.57659388,2.85466735 C6.58322653,1.62072857 7.58449184,0.621055102 8.81975714,0.621055102 C10.0582061,0.621055102 11.0631857,1.62550408 11.0631857,2.86395306 C11.0631857,3.00270816 11.0491245,3.13668776 11.024451,3.26748367 C12.0997367,3.27385102 12.9702061,4.14723878 12.9702061,5.22411633" id="Fill-5" fill="#FFFFFF"></path>
                <path d="M12.9702061,5.22411633 C12.9702061,6.30391224 12.0952265,7.18074898 11.0135735,7.18074898 L3.80228776,7.18074898 C3.1323898,7.18074898 2.58851224,6.63687143 2.58851224,5.9683 C2.58851224,5.29813673 3.1323898,4.75425918 3.80228776,4.75425918 C3.83810408,4.75425918 3.87179796,4.75585102 3.90734898,4.75903469 C3.83943061,4.5773 3.80228776,4.38150408 3.80228776,4.17509592 C3.80228776,3.23538163 4.56345102,2.47262653 5.50449184,2.47262653 C5.91147143,2.47262653 6.28422653,2.61589184 6.57659388,2.85466735 C6.58322653,1.62072857 7.58449184,0.621055102 8.81975714,0.621055102 C10.0582061,0.621055102 11.0631857,1.62550408 11.0631857,2.86395306 C11.0631857,3.00270816 11.0491245,3.13668776 11.024451,3.26748367 C12.0997367,3.27385102 12.9702061,4.14723878 12.9702061,5.22411633 Z" id="Stroke-7" stroke="#36435E" stroke-width="0.5" stroke-linecap="round" stroke-linejoin="round"></path>
            </g>
            <g id="Group-4" transform="translate(105.793878, 0.672449)">
                <path d="M1.58773776,0.17244898 L1.58773776,10.9432673 C1.58773776,11.3757694 1.23663163,11.7265306 0.80447449,11.7265306 C0.371972449,11.7265306 0.0205214286,11.3757694 0.0205214286,10.9432673 L0.0205214286,10.6169939" id="Fill-1" fill="#FFFFFF"></path>
                <path d="M1.58773776,0.17244898 L1.58773776,10.9432673 C1.58773776,11.3757694 1.23663163,11.7265306 0.80447449,11.7265306 C0.371972449,11.7265306 0.0205214286,11.3757694 0.0205214286,10.9432673 L0.0205214286,10.6169939" id="Stroke-3" stroke="#36435E" stroke-width="0.5" stroke-linecap="round" stroke-linejoin="round"></path>
            </g>
            <path d="M107.381615,1.94746776 C104.40963,1.94746776 101.999828,4.35658 101.999828,7.32925551 C101.999828,6.86985143 102.80344,6.49805143 103.793987,6.49805143 C104.784879,6.49805143 105.587801,6.86985143 105.587801,7.32925551 C105.587801,7.27821061 105.599183,7.2288902 105.618152,7.18094939 C105.643674,4.27794327 106.422454,1.94746776 107.381615,1.94746776" id="Fill-5" fill="#FFFFFF"></path>
            <path d="M107.381615,1.94746776 C104.40963,1.94746776 101.999828,4.35658 101.999828,7.32925551 C101.999828,6.86985143 102.80344,6.49805143 103.793987,6.49805143 C104.784879,6.49805143 105.587801,6.86985143 105.587801,7.32925551 C105.587801,7.27821061 105.599183,7.2288902 105.618152,7.18094939 C105.643674,4.27794327 106.422454,1.94746776 107.381615,1.94746776 Z" id="Stroke-7" stroke="#36435E" stroke-width="0.5" stroke-linecap="round" stroke-linejoin="round"></path>
            <path d="M107.381615,1.94746776 C108.340777,1.94746776 109.119211,4.27794327 109.145079,7.18094939 C109.164048,7.2288902 109.17543,7.27821061 109.17543,7.32925551 C109.17543,6.86985143 109.978352,6.49805143 110.969244,6.49805143 C111.959791,6.49805143 112.763403,6.86985143 112.763403,7.32925551 C112.763403,4.35658 110.353601,1.94746776 107.381615,1.94746776" id="Fill-9" fill="#FFFFFF"></path>
            <path d="M107.381615,1.94746776 C108.340777,1.94746776 109.119211,4.27794327 109.145079,7.18094939 C109.164048,7.2288902 109.17543,7.27821061 109.17543,7.32925551 C109.17543,6.86985143 109.978352,6.49805143 110.969244,6.49805143 C111.959791,6.49805143 112.763403,6.86985143 112.763403,7.32925551 C112.763403,4.35658 110.353601,1.94746776 107.381615,1.94746776 Z" id="Stroke-11" stroke="#36435E" stroke-width="0.5" stroke-linecap="round" stroke-linejoin="round"></path>
            <path d="M107.381615,1.94746776 C106.422454,1.94746776 105.643674,4.27794327 105.618152,7.18094939 C105.768872,6.79259429 106.500056,6.49805143 107.381615,6.49805143 C108.263174,6.49805143 108.994358,6.79259429 109.145079,7.18094939 C109.119211,4.27794327 108.340777,1.94746776 107.381615,1.94746776" id="Fill-13" fill="#C3E0FC"></path>
            <path d="M107.381615,1.94746776 C106.422454,1.94746776 105.643674,4.27794327 105.618152,7.18094939 C105.768872,6.79259429 106.500056,6.49805143 107.381615,6.49805143 C108.263174,6.49805143 108.994358,6.79259429 109.145079,7.18094939 C109.119211,4.27794327 108.340777,1.94746776 107.381615,1.94746776 Z" id="Stroke-15" stroke="#36435E" stroke-width="0.5" stroke-linecap="round" stroke-linejoin="round"></path>
            <g id="Group-33" transform="translate(124.300000, 0.500000)">
                <path d="M15.2332957,6.5867336 C15.2332957,7.80390356 14.247351,8.79200632 13.0286395,8.79200632 L4.90153281,8.79200632 C4.14619684,8.79200632 3.53360395,8.17910514 3.53360395,7.42531067 C3.53360395,6.670283 4.14619684,6.05738182 4.90153281,6.05738182 C4.94161186,6.05738182 4.97953281,6.05892332 5.01930356,6.06262292 C4.94315336,5.85791146 4.90153281,5.63716838 4.90153281,5.40440158 C4.90153281,4.34538972 5.75922451,3.48584822 6.81977787,3.48584822 C7.27791225,3.48584822 7.69843399,3.64770593 8.02862372,3.91685217 C8.03509802,2.52580079 9.16378577,1.39927115 10.5560704,1.39927115 C11.9517462,1.39927115 13.0838253,2.5316585 13.0838253,3.92733439 C13.0838253,4.08302609 13.0684103,4.23440158 13.0406632,4.38207747 C14.2522838,4.38916838 15.2332957,5.37357154 15.2332957,6.5867336" id="Fill-1" fill="#FFFFFF"></path>
                <path d="M15.2332957,6.5867336 C15.2332957,7.80390356 14.247351,8.79200632 13.0286395,8.79200632 L4.90153281,8.79200632 C4.14619684,8.79200632 3.53360395,8.17910514 3.53360395,7.42531067 C3.53360395,6.670283 4.14619684,6.05738182 4.90153281,6.05738182 C4.94161186,6.05738182 4.97953281,6.05892332 5.01930356,6.06262292 C4.94315336,5.85791146 4.90153281,5.63716838 4.90153281,5.40440158 C4.90153281,4.34538972 5.75922451,3.48584822 6.81977787,3.48584822 C7.27791225,3.48584822 7.69843399,3.64770593 8.02862372,3.91685217 C8.03509802,2.52580079 9.16378577,1.39927115 10.5560704,1.39927115 C11.9517462,1.39927115 13.0838253,2.5316585 13.0838253,3.92733439 C13.0838253,4.08302609 13.0684103,4.23440158 13.0406632,4.38207747 C14.2522838,4.38916838 15.2332957,5.37357154 15.2332957,6.5867336 Z" id="Stroke-3" stroke="#36435E" stroke-width="0.5" stroke-linecap="round" stroke-linejoin="round"></path>
                <path d="M13.6417874,9.62925771 C13.6417874,10.7502379 12.7329178,11.6597241 11.6113209,11.6597241 C10.4894158,11.6597241 9.58054625,10.7502379 9.58054625,9.62925771 C9.58054625,8.50704427 11.6113209,5.39136047 11.6113209,5.39136047 C11.6113209,5.39136047 13.6417874,8.50704427 13.6417874,9.62925771" id="Fill-5" fill="#C3E0FC"></path>
                <path d="M13.6417874,9.62925771 C13.6417874,10.7502379 12.7329178,11.6597241 11.6113209,11.6597241 C10.4894158,11.6597241 9.58054625,10.7502379 9.58054625,9.62925771 C9.58054625,8.50704427 11.6113209,5.39136047 11.6113209,5.39136047 C11.6113209,5.39136047 13.6417874,8.50704427 13.6417874,9.62925771 Z" id="Stroke-7" stroke="#36435E" stroke-width="0.5" stroke-linecap="round" stroke-linejoin="round"></path>
                <g id="Group-65" transform="translate(1.067194, 3.272727)">
                    <g id="Group-12">
                        <path d="M0.168301186,1.65098182 L1.96723399,1.65098182" id="Fill-9" fill="#FFFFFF"></path>
                        <path d="M0.168301186,1.42394704 L2.06371542,1.42394704" id="Stroke-11" stroke="#36435E" stroke-width="0.5" stroke-linecap="round" stroke-linejoin="round"></path>
                    </g>
                    <g id="Group-16" transform="translate(0.616601, 0.474308)">
                        <path d="M0.00105454545,1.71220791 L1.06250909,0.154057708" id="Fill-13" fill="#FFFFFF"></path>
                        <path d="M0.00105454545,1.71220791 L1.06250909,0.154057708" id="Stroke-15" stroke="#36435E" stroke-width="0.5" stroke-linecap="round" stroke-linejoin="round"></path>
                    </g>
                    <g id="Group-20" transform="translate(0.616601, 0.474308)">
                        <path d="M1.06250909,1.71220791 L0.00105454545,0.154057708" id="Fill-17" fill="#FFFFFF"></path>
                        <path d="M1.06250909,1.71220791 L0.00105454545,0.154057708" id="Stroke-19" stroke="#36435E" stroke-width="0.5" stroke-linecap="round" stroke-linejoin="round"></path>
                    </g>
                </g>
                <g id="Group-65" transform="translate(3.249012, 0.703326)">
                    <g id="Group-12">
                        <path d="M0.168301186,1.65098182 L1.96723399,1.65098182" id="Fill-9" fill="#FFFFFF"></path>
                        <path d="M0.168301186,1.42394704 L2.06371542,1.42394704" id="Stroke-11" stroke="#36435E" stroke-width="0.5" stroke-linecap="round" stroke-linejoin="round"></path>
                    </g>
                    <g id="Group-16" transform="translate(0.616601, 0.474308)">
                        <path d="M0.00105454545,1.71220791 L1.06250909,0.154057708" id="Fill-13" fill="#FFFFFF"></path>
                        <path d="M0.00105454545,1.71220791 L1.06250909,0.154057708" id="Stroke-15" stroke="#36435E" stroke-width="0.5" stroke-linecap="round" stroke-linejoin="round"></path>
                    </g>
                    <g id="Group-20" transform="translate(0.616601, 0.474308)">
                        <path d="M1.06250909,1.71220791 L0.00105454545,0.154057708" id="Fill-17" fill="#FFFFFF"></path>
                        <path d="M1.06250909,1.71220791 L0.00105454545,0.154057708" id="Stroke-19" stroke="#36435E" stroke-width="0.5" stroke-linecap="round" stroke-linejoin="round"></path>
                    </g>
                </g>
            </g>
            <path d="M161.905274,2.19398673 L163.918098,2.19398673 L161.905274,2.19398673 Z" id="Fill-1" fill="#FFFFFF"></path>
            <path d="M161.905343,2.19405571 L163.917822,2.19405571" id="Stroke-2" stroke="#36435E" stroke-width="0.5" stroke-linecap="round" stroke-linejoin="round"></path>
            <path d="M162.407859,3.06554388 L163.414616,1.32242959" id="Fill-4" fill="#FFFFFF"></path>
            <path d="M162.407859,3.06554388 L163.414616,1.32242959" id="Stroke-5" stroke="#36435E" stroke-width="0.5" stroke-linecap="round" stroke-linejoin="round"></path>
            <path d="M163.414616,3.06554388 L162.407859,1.32242959" id="Fill-7" fill="#FFFFFF"></path>
            <path d="M163.414616,3.06554388 L162.407859,1.32242959" id="Stroke-8" stroke="#36435E" stroke-width="0.5" stroke-linecap="round" stroke-linejoin="round"></path>
            <path d="M159.561382,5.43806245 L161.574206,5.43806245 L159.561382,5.43806245 Z" id="Fill-10" fill="#FFFFFF"></path>
            <path d="M159.561451,5.43806245 L161.57393,5.43806245" id="Stroke-11" stroke="#36435E" stroke-width="0.5" stroke-linecap="round" stroke-linejoin="round"></path>
            <g id="Group-14" transform="translate(159.722449, 4.366327)">
                <path d="M0.341517959,1.94325857 L1.3482751,0.200144286" id="Fill-12" fill="#FFFFFF"></path>
                <path d="M0.341517959,1.94325857 L1.3482751,0.200144286" id="Stroke-13" stroke="#36435E" stroke-width="1.5" stroke-linecap="round" stroke-linejoin="round"></path>
            </g>
            <g id="Group-17" transform="translate(159.722449, 4.366327)">
                <path d="M1.3482751,1.94325857 L0.341517959,0.200144286" id="Fill-15" fill="#FFFFFF"></path>
                <path d="M1.3482751,1.94325857 L0.341517959,0.200144286" id="Stroke-16" stroke="#36435E" stroke-width="0.5" stroke-linecap="round" stroke-linejoin="round"></path>
            </g>
            <g id="Group-32" transform="translate(151.100000, 0.572449)">
                <path d="M11.4759622,5.26055612 C11.4759622,6.45424796 10.5085235,7.42341122 9.31310714,7.42341122 L1.34182551,7.42341122 C0.601329592,7.42341122 0.00017244898,6.82225408 0.00017244898,6.08279286 C0.00017244898,5.34264184 0.601329592,4.7411398 1.34182551,4.7411398 C1.38114388,4.7411398 1.41839286,4.74286429 1.45736633,4.74631327 C1.38252347,4.54558265 1.34182551,4.32933163 1.34182551,4.10100918 C1.34182551,3.06217653 2.18303163,2.21924592 3.22324388,2.21924592 C3.67299082,2.21924592 4.08514388,2.37789898 4.40934796,2.64174592 C4.41555612,1.27732959 5.52233367,0.172621429 6.88812959,0.172621429 C8.25737449,0.172621429 9.36760102,1.28284796 9.36760102,2.65209286 C9.36760102,2.80488265 9.35242551,2.95318878 9.32517857,3.09804592 C10.5136969,3.10494388 11.4759622,4.07065816 11.4759622,5.26055612" id="Fill-18" fill="#FFFFFF"></path>
                <path d="M11.4759622,5.26055612 C11.4759622,6.45424796 10.5085235,7.42341122 9.31310714,7.42341122 L1.34182551,7.42341122 C0.601329592,7.42341122 0.00017244898,6.82225408 0.00017244898,6.08279286 C0.00017244898,5.34264184 0.601329592,4.7411398 1.34182551,4.7411398 C1.38114388,4.7411398 1.41839286,4.74286429 1.45736633,4.74631327 C1.38252347,4.54558265 1.34182551,4.32933163 1.34182551,4.10100918 C1.34182551,3.06217653 2.18303163,2.21924592 3.22324388,2.21924592 C3.67299082,2.21924592 4.08514388,2.37789898 4.40934796,2.64174592 C4.41555612,1.27732959 5.52233367,0.172621429 6.88812959,0.172621429 C8.25737449,0.172621429 9.36760102,1.28284796 9.36760102,2.65209286 C9.36760102,2.80488265 9.35242551,2.95318878 9.32517857,3.09804592 C10.5136969,3.10494388 11.4759622,4.07065816 11.4759622,5.26055612 Z" id="Stroke-20" stroke="#36435E" stroke-width="0.5" stroke-linecap="round" stroke-linejoin="round"></path>
                <path d="M9.7962402,10.1317224 C9.7962402,11.0125918 9.08230143,11.7265306 8.20143204,11.7265306 C7.32056265,11.7265306 6.60662388,11.0125918 6.60662388,10.1317224 C6.60662388,9.25085306 7.32056265,8.53691429 8.20143204,8.53691429 C9.08230143,8.53691429 9.7962402,9.25085306 9.7962402,10.1317224" id="Fill-22" fill="#C3E0FC"></path>
                <path d="M9.7962402,10.1317224 C9.7962402,11.0125918 9.08230143,11.7265306 8.20143204,11.7265306 C7.32056265,11.7265306 6.60662388,11.0125918 6.60662388,10.1317224 C6.60662388,9.25085306 7.32056265,8.53691429 8.20143204,8.53691429 C9.08230143,8.53691429 9.7962402,9.25085306 9.7962402,10.1317224 Z" id="Stroke-24" stroke="#36435E" stroke-width="0.5"></path>
                <path d="M5.01819633,7.4995302 C5.01819633,8.16207918 4.4811902,8.6994302 3.81829633,8.6994302 C3.15574735,8.6994302 2.61839633,8.16207918 2.61839633,7.4995302 C2.61839633,6.83663633 3.81829633,4.99522612 3.81829633,4.99522612 C3.81829633,4.99522612 5.01819633,6.83663633 5.01819633,7.4995302" id="Fill-26" fill="#FFFFFF"></path>
                <path d="M5.01819633,7.4995302 C5.01819633,8.16207918 4.4811902,8.6994302 3.81829633,8.6994302 C3.15574735,8.6994302 2.61839633,8.16207918 2.61839633,7.4995302 C2.61839633,6.83663633 3.81829633,4.99522612 3.81829633,4.99522612 C3.81829633,4.99522612 5.01819633,6.83663633 5.01819633,7.4995302" id="Fill-28" fill="#FFFFFF"></path>
                <path d="M5.01819633,7.4995302 C5.01819633,8.16207918 4.4811902,8.6994302 3.81829633,8.6994302 C3.15574735,8.6994302 2.61839633,8.16207918 2.61839633,7.4995302 C2.61839633,6.83663633 3.81829633,4.99522612 3.81829633,4.99522612 C3.81829633,4.99522612 5.01819633,6.83663633 5.01819633,7.4995302 Z" id="Stroke-30" stroke="#36435E" stroke-width="0.5" stroke-linecap="round" stroke-linejoin="round"></path>
            </g>
            <g id="Group-3" transform="translate(179.660000, 5.113333)">
                <path d="M2.22927467,1.977248 L0.296608,0.0445813333" id="Fill-1" fill="#FFFFFF"></path>
                <path d="M2.22927467,1.977248 L0.296608,0.0445813333" id="Stroke-2" stroke="#36435E" stroke-width="0.5" stroke-linecap="round" stroke-linejoin="round"></path>
            </g>
            <path d="M186.663741,7.09058133 L188.596408,5.15791467" id="Fill-4" fill="#FFFFFF"></path>
            <g id="Group-59" transform="translate(180.500000, 0.673333)">
                <path d="M6.16374133,6.417248 L8.096408,4.48458133" id="Stroke-5" stroke="#36435E" stroke-width="0.5" stroke-linecap="round" stroke-linejoin="round"></path>
                <path d="M7.074088,8.38402667 C7.074088,10.22656 5.580648,11.72 3.73846133,11.72 C1.895928,11.72 0.402834667,10.22656 0.402834667,8.38402667 C0.402834667,6.54184 1.895928,5.04805333 3.73846133,5.04805333 C5.580648,5.04805333 7.074088,6.54184 7.074088,8.38402667" id="Fill-7" fill="#FFFFFF"></path>
                <path d="M7.074088,8.38402667 C7.074088,10.22656 5.580648,11.72 3.73846133,11.72 C1.895928,11.72 0.402834667,10.22656 0.402834667,8.38402667 C0.402834667,6.54184 1.895928,5.04805333 3.73846133,5.04805333 C5.580648,5.04805333 7.074088,6.54184 7.074088,8.38402667 Z" id="Stroke-9" stroke="#36435E" stroke-width="0.5" stroke-linecap="round" stroke-linejoin="round"></path>
                <path d="M5.675912,3.62394667 C5.675912,4.69410667 4.808552,5.56146667 3.738392,5.56146667 C2.668232,5.56146667 1.800872,4.69410667 1.800872,3.62394667 C1.800872,2.55413333 2.668232,1.68677333 3.738392,1.68677333 C4.808552,1.68677333 5.675912,2.55413333 5.675912,3.62394667" id="Fill-11" fill="#FFFFFF"></path>
                <path d="M5.675912,3.62394667 C5.675912,4.69410667 4.808552,5.56146667 3.738392,5.56146667 C2.668232,5.56146667 1.800872,4.69410667 1.800872,3.62394667 C1.800872,2.55413333 2.668232,1.68677333 3.738392,1.68677333 C4.808552,1.68677333 5.675912,2.55413333 5.675912,3.62394667 Z" id="Stroke-13" stroke="#36435E" stroke-width="0.5" stroke-linecap="round" stroke-linejoin="round"></path>
                <polygon id="Fill-15" fill="#C3E0FC" points="5.17248267 1.441888 5.17248267 0.106528 2.30416267 0.106528 2.30416267 1.441888 0.896002667 1.441888 0.896002667 2.483968 6.58064267 2.483968 6.58064267 1.441888"></polygon>
                <polygon id="Stroke-17" stroke="#36435E" stroke-width="0.5" stroke-linecap="round" stroke-linejoin="round" points="5.17248267 1.441888 5.17248267 0.106528 2.30416267 0.106528 2.30416267 1.441888 0.896002667 1.441888 0.896002667 2.483968 6.58064267 2.483968 6.58064267 1.441888"></polygon>
            </g>
            <g id="Group-22" transform="translate(184.440000, 4.073333)">
                <path d="M0.715669231,0.203538462 L0.715669231,0.347846154" id="Fill-19" fill="#C3E0FC"></path>
                <path d="M0.715669231,0.203538462 L0.715669231,0.347846154" id="Stroke-21" stroke="#36435E" stroke-width="0.5" stroke-linecap="round" stroke-linejoin="round"></path>
            </g>
            <g id="Group-26" transform="translate(182.800000, 4.073333)">
                <path d="M0.584176923,0.347846154 L0.584176923,0.203538462" id="Fill-23" fill="#C3E0FC"></path>
                <path d="M0.584176923,0.347846154 L0.584176923,0.203538462" id="Stroke-25" stroke="#36435E" stroke-width="0.5" stroke-linecap="round" stroke-linejoin="round"></path>
            </g>
            <g id="Group-30" transform="translate(179.660000, 5.460000)">
                <path d="M0.769461538,0.224269231 L0.270487179,0.972730769" id="Fill-27" fill="#FFFFFF"></path>
                <path d="M0.769461538,0.224269231 L0.270487179,0.972730769" id="Stroke-29" stroke="#36435E" stroke-width="0.5" stroke-linecap="round" stroke-linejoin="round"></path>
            </g>
            <g id="Group-34" transform="translate(187.980000, 5.460000)">
                <path d="M0.145653846,0.224269231 L0.894115385,0.972730769" id="Fill-31" fill="#FFFFFF"></path>
                <path d="M0.145653846,0.224269231 L0.894115385,0.972730769" id="Stroke-33" stroke="#36435E" stroke-width="0.5" stroke-linecap="round" stroke-linejoin="round"></path>
            </g>
            <g id="Group-38" transform="translate(177.926667, 0.366667)">
                <path d="M0.189245333,1.56636667 L2.21204533,1.56636667" id="Fill-35" fill="#FFFFFF"></path>
                <path d="M0.189245333,1.392 L2.21204533,1.392" id="Stroke-37" stroke="#36435E" stroke-width="0.5" stroke-linecap="round" stroke-linejoin="round"></path>
            </g>
            <g id="Group-42" transform="translate(178.620000, 0.606667)">
                <path d="M0.00104102564,2.039544 L1.04888718,0.287490667" id="Fill-39" fill="#FFFFFF"></path>
                <path d="M0.00104102564,2.039544 L1.04888718,0.287490667" id="Stroke-41" stroke="#36435E" stroke-width="0.5" stroke-linecap="round" stroke-linejoin="round"></path>
            </g>
            <g id="Group-46" transform="translate(178.620000, 0.606667)">
                <path d="M1.04885128,2.039544 L0.00100512821,0.287490667" id="Fill-43" fill="#FFFFFF"></path>
                <path d="M1.04885128,2.039544 L0.00100512821,0.287490667" id="Stroke-45" stroke="#36435E" stroke-width="0.5" stroke-linecap="round" stroke-linejoin="round"></path>
            </g>
            <g id="Group-50" transform="translate(175.500000, 3.833333)">
                <path d="M0.26,1.28902667 L2.2828,1.28902667" id="Fill-47" fill="#FFFFFF"></path>
                <path d="M0.26,1.192 L2.2828,1.192" id="Stroke-49" stroke="#36435E" stroke-width="0.5" stroke-linecap="round" stroke-linejoin="round"></path>
            </g>
            <g id="Group-54" transform="translate(176.193333, 4.073333)">
                <path d="M0.07176,1.83355467 L1.08368,0.0815013333" id="Fill-51" fill="#FFFFFF"></path>
                <path d="M0.07176,1.83355467 L1.08368,0.0815013333" id="Stroke-53" stroke="#36435E" stroke-width="0.5" stroke-linecap="round" stroke-linejoin="round"></path>
            </g>
            <g id="Group-58" transform="translate(176.193333, 4.073333)">
                <path d="M1.08364533,1.83355467 L0.0717253333,0.0815013333" id="Fill-55" fill="#FFFFFF"></path>
                <path d="M1.08364533,1.83355467 L0.0717253333,0.0815013333" id="Stroke-57" stroke="#36435E" stroke-width="0.5" stroke-linecap="round" stroke-linejoin="round"></path>
            </g>
        </g>
    </g>
</svg>