<svg xmlns="http://www.w3.org/2000/svg" viewBox="0 0 50 42" fill="#ffffff"><path d="M16.899,23.332 L20.400,26.964 L23.231,29.899 L23.244,29.884 L26.896,25.688 L30.378,21.688 L33.284,18.350 C33.765,17.798 34.602,17.740 35.153,18.220 C35.704,18.700 35.762,19.537 35.282,20.089 L32.225,23.601 L28.742,27.601 L25.091,31.796 L24.279,32.728 C24.035,33.008 23.685,33.173 23.314,33.183 C23.303,33.183 23.291,33.183 23.280,33.183 C22.921,33.183 22.577,33.037 22.327,32.778 L18.651,28.966 L14.992,25.171 C14.484,24.645 14.499,23.806 15.026,23.299 C15.552,22.790 16.390,22.805 16.899,23.332 ZM48.738,12.486 C48.418,12.808 47.975,13.009 47.486,13.009 L47.300,13.009 L47.188,13.009 L47.188,25.688 L47.188,38.631 C47.188,39.542 46.788,40.360 46.157,40.925 C45.611,41.414 44.894,41.713 44.106,41.713 L32.225,41.713 L17.925,41.713 L5.308,41.713 C4.527,41.713 3.815,41.419 3.271,40.938 C2.632,40.373 2.226,39.550 2.226,38.631 L2.226,25.688 L2.226,17.895 C2.226,17.164 2.819,16.570 3.550,16.570 C4.282,16.570 4.875,17.164 4.875,17.895 L4.875,25.688 L4.875,38.631 C4.875,38.801 4.981,38.950 5.127,39.021 C5.183,39.047 5.243,39.064 5.308,39.064 L17.925,39.064 L32.225,39.064 L44.106,39.064 C44.240,39.064 44.357,38.995 44.438,38.896 C44.498,38.821 44.539,38.731 44.539,38.631 L44.539,25.688 L44.539,13.009 L44.131,13.009 L33.173,13.009 L16.125,13.009 L1.926,13.009 C1.450,13.009 1.019,12.817 0.702,12.510 C0.371,12.189 0.162,11.742 0.162,11.245 L0.162,4.674 C0.162,4.209 0.347,3.788 0.642,3.473 C0.964,3.129 1.419,2.911 1.926,2.911 L9.465,2.911 L9.465,2.647 L9.465,1.485 C9.465,0.754 10.058,0.161 10.789,0.161 C11.521,0.161 12.114,0.754 12.114,1.485 L12.114,2.911 L12.169,2.911 L18.651,2.911 L18.840,2.911 L18.840,1.485 C18.840,0.754 19.433,0.161 20.164,0.161 C20.896,0.161 21.489,0.754 21.489,1.485 L21.489,2.911 L21.517,2.911 L28.164,2.911 L28.215,2.911 L28.215,1.485 C28.215,0.754 28.808,0.161 29.539,0.161 C30.271,0.161 30.864,0.754 30.864,1.485 L30.864,2.911 L30.915,2.911 L37.537,2.911 L37.592,2.911 L37.592,1.485 C37.592,0.754 38.185,0.161 38.916,0.161 C39.648,0.161 40.241,0.754 40.241,1.485 L40.241,2.911 L40.287,2.911 L47.486,2.911 C48.007,2.911 48.470,3.141 48.794,3.501 C49.074,3.814 49.250,4.222 49.250,4.674 L49.250,11.245 C49.250,11.729 49.054,12.167 48.738,12.486 ZM46.601,10.349 L46.601,5.694 L46.601,5.559 L40.287,5.559 L40.241,5.559 L40.241,6.547 C40.241,7.278 39.648,7.871 38.916,7.871 C38.185,7.871 37.592,7.278 37.592,6.547 L37.592,5.559 L37.537,5.559 L30.915,5.559 L30.864,5.559 L30.864,6.547 C30.864,7.278 30.271,7.871 29.539,7.871 C28.808,7.871 28.215,7.278 28.215,6.547 L28.215,5.559 L28.164,5.559 L21.517,5.559 L21.489,5.559 L21.489,6.547 C21.489,7.278 20.896,7.871 20.164,7.871 C19.433,7.871 18.840,7.278 18.840,6.547 L18.840,5.559 L18.651,5.559 L12.169,5.559 L12.114,5.559 L12.114,6.547 C12.114,7.278 11.521,7.871 10.789,7.871 C10.058,7.871 9.465,7.278 9.465,6.547 L9.465,5.559 L2.811,5.559 L2.811,5.642 L2.811,10.360 L2.852,10.360 L16.125,10.360 L33.173,10.360 L46.601,10.360 L46.601,10.349 Z"/>/></svg>

