<svg xmlns="http://www.w3.org/2000/svg" width="40" height="40" viewBox="0 0 100 100" fill="rgba(255,255,255,0.6)">
    <g>
      <g id="arrows">
        <circle class="circle" cx="0" cy="0" r="16.5" opacity="0.8"  transform="translate(61 38)">
          <animateTransform attributeName="transform" type="scale" additive="sum"  from="1 1" to="2 2" begin="0s" dur="1.2s" repeatCount="indefinite" />
        </circle>
        <animate attributeName="opacity" from="1" to="0" dur="1.2s" begin="0s" repeatCount="indefinite"></animate>
      </g>
      <g id="finger">
        <path class="hand" d="M88.6,72.3v-5.4c0-7.1-10.7-7.1-10.7,0v-5.4c0-7.1-10.7-7.1-10.7,0V40.1c0-7.1-10.7-7.1-10.7,0
        		c0,15,0,22.8,0,41.6C51.6,76.8,46.8,70,42,74.8c-2.1,2.1-2.1,5.5,0,7.6l15.2,15.2c1.2,1.2,2.7,1.6,4.3,1.5c1.6,0.1,31,0,32.6,0 c3,0,5.4-2.3,5.4-5.3c0-7.7,0-14,0-21.4C99.3,65.2,88.6,65.2,88.6,72.3z"/>
        <animate attributeName="opacity" from="0" to="0" values="0; 1; 0" keyTimes="0; 0.5; 1" dur="1.2s" begin="0s" repeatCount="indefinite"></animate>
      </g>
      <animateTransform attributeName="transform" type="translate" from="0" to="-30" dur="1.2s" begin="0s" fill="remove" repeatCount="indefinite"></animateTransform>
    </g>
  </svg>


