<?xml version="1.0" encoding="UTF-8"?>
<svg width="728px" height="43px" viewBox="0 0 728 43" version="1.1" xmlns="http://www.w3.org/2000/svg" xmlns:xlink="http://www.w3.org/1999/xlink">
    <!-- Generator: Sketch 54.1 (76490) - https://sketchapp.com -->
    <title>information_icon</title>
    <desc>Created with Sketch.</desc>
    <defs>
        <polygon id="path-1" points="0 34.5205 40.34 34.5205 40.34 0.0005 0 0.0005"></polygon>
        <polygon id="path-3" points="1 0.5 1.5 0.5 1.5 1 1 1"></polygon>
        <polygon id="path-5" points="0.9941 0.102 1.9941 0.102 1.9941 4.7586 0.9941 4.7586"></polygon>
        <polygon id="path-7" points="1 34.8984 35.99 34.8984 35.99 1.0004 1 1.0004"></polygon>
        <polygon id="path-9" points="0.0056 0.371 33.7741 0.371 33.7741 33.3365 0.0056 33.3365"></polygon>
        <polygon id="path-11" points="0.4343 0.4904 9.2313 0.4904 9.2313 10 0.4343 10"></polygon>
        <polygon id="path-13" points="0 0.0567 9.8647 0.0567 9.8647 12.5837 0 12.5837"></polygon>
        <polygon id="path-15" points="0.4624 0.841 9.2494 0.841 9.2494 9.6305 0.4624 9.6305"></polygon>
        <polygon id="path-17" points="0.386494318 0.256 22.6685 0.256 22.6685 18.6689 0.386494318 18.6689"></polygon>
        <polygon id="path-19" points="0.5021 0.3057 15.415 0.3057 15.415 14.9997 0.5021 14.9997"></polygon>
        <polygon id="path-21" points="0 38 48.865 38 48.865 0.353 0 0.353"></polygon>
        <polygon id="path-23" points="0 39.872 45.841 39.872 45.841 0 0 0"></polygon>
        <polygon id="path-25" points="0 42.1626 39.049 42.1626 39.049 -0.0004 0 -0.0004"></polygon>
        <polygon id="path-27" points="0.0766666667 0.601 17.559 0.601 17.559 10.6828 0.0766666667 10.6828"></polygon>
        <polygon id="path-29" points="0 37 50.982 37 50.982 0.601 0 0.601"></polygon>
    </defs>
    <g id="Page-1" stroke="none" stroke-width="1" fill="none" fill-rule="evenodd">
        <g id="information_icon" transform="translate(-6.000000, 0.000000)">
            <rect id="Rectangle" fill-opacity="0" fill="#D8D8D8" x="0" y="0" width="52" height="42"></rect>
            <rect id="Rectangle-Copy-216" fill-opacity="0" fill="#D8D8D8" x="62" y="0" width="52" height="42"></rect>
            <rect id="Rectangle-Copy-217" fill-opacity="0" fill="#D8D8D8" x="124" y="0" width="52" height="42"></rect>
            <rect id="Rectangle-Copy-218" fill-opacity="0" fill="#D8D8D8" x="186" y="0" width="52" height="42"></rect>
            <rect id="Rectangle-Copy-219" fill-opacity="0" fill="#D8D8D8" x="248" y="0" width="52" height="42"></rect>
            <rect id="Rectangle-Copy-220" fill-opacity="0" fill="#D8D8D8" x="310" y="0" width="52" height="42"></rect>
            <rect id="Rectangle-Copy-221" fill-opacity="0" fill="#D8D8D8" x="372" y="0" width="52" height="42"></rect>
            <rect id="Rectangle-Copy-223" fill-opacity="0" fill="#D8D8D8" x="496" y="0" width="52" height="42"></rect>
            <rect id="Rectangle-Copy-225" fill-opacity="0" fill="#D8D8D8" x="620" y="0" width="52" height="42"></rect>
            <rect id="Rectangle-Copy-222" fill-opacity="0" fill="#D8D8D8" x="434" y="0" width="52" height="42"></rect>
            <rect id="Rectangle-Copy-224" fill-opacity="0" fill="#D8D8D8" x="558" y="0" width="52" height="42"></rect>
            <rect id="Rectangle-Copy-226" fill-opacity="0" fill="#D8D8D8" x="682" y="0" width="52" height="42"></rect>
            <g id="Group-36" transform="translate(6.000000, 4.000000)">
                <path d="M37.083,29.8477 C37.083,31.3207 35.891,32.5137 34.419,32.5137 L5.921,32.5137 C4.449,32.5137 3.257,31.3207 3.257,29.8477 L3.257,6.2877 C3.257,4.8177 4.449,3.6237 5.921,3.6237 L34.419,3.6237 C35.891,3.6237 37.083,4.8177 37.083,6.2877 L37.083,29.8477 Z" id="Fill-1" fill="#FFFFFF"></path>
                <path d="M37.083,29.8477 C37.083,31.3207 35.891,32.5137 34.419,32.5137 L5.921,32.5137 C4.449,32.5137 3.257,31.3207 3.257,29.8477 L3.257,6.2877 C3.257,4.8177 4.449,3.6237 5.921,3.6237 L34.419,3.6237 C35.891,3.6237 37.083,4.8177 37.083,6.2877 L37.083,29.8477 Z" id="Stroke-3" stroke="#1B1B1B" stroke-width="1.5"></path>
                <mask id="mask-2" fill="white">
                    <use xlink:href="#path-1"></use>
                </mask>
                <g id="Clip-6"></g>
                <polygon id="Fill-5" fill="#00C4DE" mask="url(#mask-2)" points="8.869 24.0275 31.473 24.0275 31.473 8.3585 8.869 8.3585"></polygon>
                <polygon id="Stroke-7" stroke="#1B1B1B" stroke-width="1.5" mask="url(#mask-2)" points="8.869 24.0275 31.473 24.0275 31.473 8.3585 8.869 8.3585"></polygon>
                <path d="M24.9688,29.1641 C24.7118,30.3491 23.8348,31.2271 22.7818,31.2271 L17.5578,31.2271 C16.5048,31.2271 15.6278,30.3491 15.3708,29.1641 L0.7498,29.1641 L0.7498,30.7271 C0.7498,32.4081 1.8688,33.7701 3.2488,33.7701 L37.0918,33.7701 C38.4718,33.7701 39.5898,32.4081 39.5898,30.7271 L39.5898,29.1641 L24.9688,29.1641 Z" id="Fill-8" fill="#FF6464" mask="url(#mask-2)"></path>
                <path d="M24.9688,29.1641 C24.7118,30.3491 23.8348,31.2271 22.7818,31.2271 L17.5578,31.2271 C16.5048,31.2271 15.6278,30.3491 15.3708,29.1641 L0.7498,29.1641 L0.7498,30.7271 C0.7498,32.4081 1.8688,33.7701 3.2488,33.7701 L37.0918,33.7701 C38.4718,33.7701 39.5898,32.4081 39.5898,30.7271 L39.5898,29.1641 L24.9688,29.1641 Z" id="Stroke-9" stroke="#1B1B1B" stroke-width="1.5" mask="url(#mask-2)"></path>
                <polygon id="Fill-10" fill="#FFFFFF" mask="url(#mask-2)" points="13.389 17.6345 26.95 17.6345 26.95 0.7495 13.389 0.7495"></polygon>
                <polygon id="Stroke-11" stroke="#1B1B1B" stroke-width="1.5" mask="url(#mask-2)" points="13.389 17.6345 26.95 17.6345 26.95 0.7495 13.389 0.7495"></polygon>
                <g id="Group-14" mask="url(#mask-2)">
                    <g transform="translate(19.000000, 3.520500)">
                        <path d="M0.124,1.0665 L5.136,1.0665" id="Fill-12" stroke="none" fill="#FFFFFF" fill-rule="evenodd"></path>
                        <path d="M0.124,1.0665 L5.136,1.0665" id="Stroke-13" stroke="#1B1B1B" stroke-width="1.5" fill="none"></path>
                    </g>
                </g>
                <g id="Group-17" mask="url(#mask-2)">
                    <g transform="translate(19.000000, 6.520500)">
                        <path d="M0.124,1.1368 L5.136,1.1368" id="Fill-15" stroke="none" fill="#FFFFFF" fill-rule="evenodd"></path>
                        <path d="M0.124,1.1368 L5.136,1.1368" id="Stroke-16" stroke="#1B1B1B" stroke-width="1.5" fill="none"></path>
                    </g>
                </g>
                <g id="Group-20" mask="url(#mask-2)">
                    <g transform="translate(19.000000, 9.520500)">
                        <path d="M0.124,1.2061 L5.136,1.2061" id="Fill-18" stroke="none" fill="#FFFFFF" fill-rule="evenodd"></path>
                        <path d="M0.124,1.2061 L5.136,1.2061" id="Stroke-19" stroke="#1B1B1B" stroke-width="1.5" fill="none"></path>
                    </g>
                </g>
                <g id="Group-23" mask="url(#mask-2)">
                    <g transform="translate(19.000000, 12.520500)">
                        <path d="M0.124,1.2764 L5.136,1.2764" id="Fill-21" stroke="none" fill="#FFFFFF" fill-rule="evenodd"></path>
                        <path d="M0.124,1.2764 L5.136,1.2764" id="Stroke-22" stroke="#1B1B1B" stroke-width="1.5" fill="none"></path>
                    </g>
                </g>
                <g id="Group-26" mask="url(#mask-2)">
                    <g transform="translate(16.000000, 3.520500)">
                        <path d="M0.2041,1.0665 L1.8481,1.0665" id="Fill-24" stroke="none" fill="#FFFFFF" fill-rule="evenodd"></path>
                        <path d="M0.2041,1.0665 L1.8481,1.0665" id="Stroke-25" stroke="#1B1B1B" stroke-width="1.5" fill="none"></path>
                    </g>
                </g>
                <g id="Group-29" mask="url(#mask-2)">
                    <g transform="translate(16.000000, 6.520500)">
                        <path d="M0.2041,1.1368 L1.8481,1.1368" id="Fill-27" stroke="none" fill="#FFFFFF" fill-rule="evenodd"></path>
                        <path d="M0.2041,1.1368 L1.8481,1.1368" id="Stroke-28" stroke="#1B1B1B" stroke-width="1.5" fill="none"></path>
                    </g>
                </g>
                <g id="Group-32" mask="url(#mask-2)">
                    <g transform="translate(16.000000, 9.520500)">
                        <path d="M0.2041,1.2061 L1.8481,1.2061" id="Fill-30" stroke="none" fill="#FFFFFF" fill-rule="evenodd"></path>
                        <path d="M0.2041,1.2061 L1.8481,1.2061" id="Stroke-31" stroke="#1B1B1B" stroke-width="1.5" fill="none"></path>
                    </g>
                </g>
                <g id="Group-35" mask="url(#mask-2)">
                    <g transform="translate(16.000000, 12.520500)">
                        <path d="M0.2041,1.2764 L1.8481,1.2764" id="Fill-33" stroke="none" fill="#FFFFFF" fill-rule="evenodd"></path>
                        <path d="M0.2041,1.2764 L1.8481,1.2764" id="Stroke-34" stroke="#1B1B1B" stroke-width="1.5" fill="none"></path>
                    </g>
                </g>
            </g>
            <g id="Group-34" transform="translate(69.000000, 3.000000)">
                <path d="M28.832,33.6367 L28.832,22.0117 C28.832,16.3027 24.203,11.6747 18.494,11.6747 C12.786,11.6747 8.159,16.3027 8.159,22.0117 L8.159,33.6367" id="Fill-1" fill="#FF6464"></path>
                <path d="M27.998,33.6367 L27.998,22.0117 C27.988,16.7627 23.743,12.5147 18.494,12.5067 C13.248,12.5147 9.001,16.7627 8.992,22.0117 L8.992,33.6367 C8.992,34.0967 8.617,34.4697 8.158,34.4697 C7.7,34.4697 7.324,34.0967 7.324,33.6367 L7.324,22.0117 C7.327,15.8437 12.326,10.8427 18.494,10.8417 C24.664,10.8427 29.662,15.8437 29.664,22.0117 L29.664,33.6367 C29.664,34.0967 29.291,34.4697 28.831,34.4697 C28.371,34.4697 27.998,34.0967 27.998,33.6367" id="Fill-3" fill="#1B1B1B"></path>
                <path d="M11.708,20.4814 C11.708,17.5794 14.062,15.2234 16.966,15.2224 L16.966,15.2234 L16.966,16.8864 C14.988,16.8904 13.376,18.5024 13.372,20.4814 L11.708,20.4814 Z" id="Fill-5" fill="#1B1B1B"></path>
                <g id="Group-9" transform="translate(0.000000, 33.898400)">
                    <mask id="mask-4" fill="white">
                        <use xlink:href="#path-3"></use>
                    </mask>
                    <g id="Clip-8"></g>
                    <path d="" id="Fill-7" fill="#FFFFFF" mask="url(#mask-4)"></path>
                </g>
                <path d="M31.6826,33.6367 L31.6826,33.6367" id="Stroke-10" stroke="#1B1B1B" stroke-width="3"></path>
                <g id="Group-14" transform="translate(17.000000, 0.898400)">
                    <mask id="mask-6" fill="white">
                        <use xlink:href="#path-5"></use>
                    </mask>
                    <g id="Clip-13"></g>
                    <path d="M1.4941,0.1016 L1.4941,4.7586" id="Fill-12" fill="#FFFFFF" mask="url(#mask-6)"></path>
                </g>
                <mask id="mask-8" fill="white">
                    <use xlink:href="#path-7"></use>
                </mask>
                <g id="Clip-16"></g>
                <polygon id="Fill-15" fill="#1B1B1B" mask="url(#mask-8)" points="17.664 5.6574 19.327 5.6574 19.327 1.0004 17.664 1.0004"></polygon>
                <path d="M8.6348,3.6425 L10.9628,7.6745" id="Fill-17" fill="#FFFFFF" mask="url(#mask-8)"></path>
                <polygon id="Fill-18" fill="#1B1B1B" mask="url(#mask-8)" points="7.9121 4.0576 9.3551 3.2246 11.6841 7.2576 10.2411 8.0896"></polygon>
                <path d="M1.416,10.8593 L5.449,13.1883" id="Fill-19" fill="#FFFFFF" mask="url(#mask-8)"></path>
                <polygon id="Fill-20" fill="#1B1B1B" mask="url(#mask-8)" points="1 11.58 1.831 10.139 5.865 12.468 5.033 13.91"></polygon>
                <path d="M31.541,13.1884 L35.573,10.8594" id="Fill-21" fill="#FFFFFF" mask="url(#mask-8)"></path>
                <polygon id="Fill-22" fill="#1B1B1B" mask="url(#mask-8)" points="31.125 12.4677 35.158 10.1397 35.99 11.5807 31.957 13.9087"></polygon>
                <path d="M26.0273,7.6748 L28.3553,3.6428" id="Fill-23" fill="#FFFFFF" mask="url(#mask-8)"></path>
                <polygon id="Fill-24" fill="#1B1B1B" mask="url(#mask-8)" points="25.3056 7.2578 27.6336 3.2248 29.0766 4.0568 26.7496 8.0898"></polygon>
                <path d="M14.2568,27.7617 L14.2568,29.4177" id="Fill-25" fill="#FFFFFF" mask="url(#mask-8)"></path>
                <polygon id="Fill-26" fill="#1B1B1B" mask="url(#mask-8)" points="13.422 29.4174 15.088 29.4174 15.088 27.7604 13.422 27.7604"></polygon>
                <path d="M18.124,27.7617 L18.124,29.4177" id="Fill-27" fill="#FFFFFF" mask="url(#mask-8)"></path>
                <polygon id="Fill-28" fill="#1B1B1B" mask="url(#mask-8)" points="17.291 29.4174 18.958 29.4174 18.958 27.7604 17.291 27.7604"></polygon>
                <path d="M21.9941,27.7617 L21.9941,29.4177" id="Fill-29" fill="#FFFFFF" mask="url(#mask-8)"></path>
                <polygon id="Fill-30" fill="#1B1B1B" mask="url(#mask-8)" points="21.158 29.4174 22.825 29.4174 22.825 27.7604 21.158 27.7604"></polygon>
                <path d="M25.8623,27.7617 L25.8623,29.4177" id="Fill-31" fill="#FFFFFF" mask="url(#mask-8)"></path>
                <polygon id="Fill-32" fill="#1B1B1B" mask="url(#mask-8)" points="25.029 29.4194 26.694 29.4194 26.694 27.7614 25.029 27.7614"></polygon>
                <polygon id="Fill-33" fill="#1B1B1B" mask="url(#mask-8)" points="5.216 34.8984 31.535 34.8984 31.535 33.2334 5.216 33.2334"></polygon>
            </g>
            <g id="Group-39" transform="translate(131.000000, 1.000000)">
                <polygon id="Fill-1" fill="#FFED64" points="4.6773 21.2784 16.6933 33.2964 37.1043 13.6874 25.0873 1.6714"></polygon>
                <g id="Group-38" transform="translate(0.000000, 0.629400)">
                    <g id="Group-4" transform="translate(4.000000, 0.000000)">
                        <mask id="mask-10" fill="white">
                            <use xlink:href="#path-9"></use>
                        </mask>
                        <g id="Clip-3"></g>
                        <path d="M1.6271,20.6485 L12.6931,31.7175 L32.1541,13.0585 L21.0851,1.9915 L1.6271,20.6485 Z M12.6931,32.6675 L13.1681,32.1925 L12.6931,32.6675 Z M12.2191,33.1415 L0.2021,21.1245 C-0.0599,20.8605 -0.0599,20.4355 0.2021,20.1735 L20.6101,0.5685 C20.8731,0.3045 21.2991,0.3045 21.5601,0.5685 L33.5771,12.5855 C33.7061,12.7105 33.7741,12.8785 33.7741,13.0595 C33.7741,13.2395 33.7061,13.4075 33.5771,13.5345 L13.1681,33.1415 C13.0401,33.2675 12.8731,33.3365 12.6931,33.3365 C12.5151,33.3365 12.3461,33.2675 12.2191,33.1415 L12.2191,33.1415 Z" id="Fill-2" fill="#1B1B1B" mask="url(#mask-10)"></path>
                    </g>
                    <polygon id="Fill-5" fill="#FFFFFF" points="16.6935 32.667 10.6845 26.657 4.6765 20.649 2.1145 30.903 6.4405 35.23"></polygon>
                    <path d="M2.8576,30.6963 L6.6456,34.4863 L15.3816,32.3013 L10.2106,27.1313 L5.0396,21.9623 L2.8576,30.6963 Z M5.9656,35.7053 L1.6386,31.3783 C1.4716,31.2113 1.4046,30.9673 1.4616,30.7403 L4.0266,20.4863 C4.0856,20.2503 4.2636,20.0653 4.4976,20.0013 C4.7306,19.9363 4.9816,20.0013 5.1526,20.1743 L11.1596,26.1823 L17.1706,32.1933 L16.6936,32.6663 L17.1706,32.1933 C17.3396,32.3623 17.4076,32.6103 17.3396,32.8463 C17.2766,33.0783 17.0906,33.2583 16.8586,33.3173 L6.6026,35.8813 C6.5476,35.8943 6.4966,35.9013 6.4426,35.9013 C6.2646,35.9013 6.0936,35.8323 5.9656,35.7053 L5.9656,35.7053 Z" id="Fill-7" fill="#1B1B1B"></path>
                    <polygon id="Fill-9" fill="#FFED64" points="6.4406 35.2295 2.1146 30.9035 0.6706 36.6715"></polygon>
                    <path d="M1.5929,35.7491 L5.1259,34.8661 L2.4779,32.2151 L1.5929,35.7491 Z M0.1969,37.1451 C0.0309,36.9801 -0.0371,36.7381 0.0199,36.5101 L1.4619,30.7401 C1.5229,30.5051 1.7009,30.3211 1.9339,30.2571 C2.1659,30.1921 2.4169,30.2581 2.5879,30.4301 L6.9149,34.7551 L6.4409,35.2291 L6.9149,34.7551 C7.0849,34.9251 7.1519,35.1761 7.0869,35.4091 C7.0229,35.6421 6.8389,35.8211 6.6029,35.8811 L0.8349,37.3231 C0.7809,37.3371 0.7259,37.3431 0.6709,37.3431 C0.4949,37.3431 0.3229,37.2741 0.1969,37.1451 L0.1969,37.1451 Z" id="Fill-11" fill="#1B1B1B"></path>
                    <path d="M12.7551,28.7256 L33.1651,9.1216" id="Fill-13" fill="#FFED64"></path>
                    <path d="M12.2814,29.2012 C12.0184,28.9362 12.0184,28.5132 12.2814,28.2512 L32.6904,8.6442 C32.9534,8.3852 33.3784,8.3852 33.6374,8.6442 C33.9004,8.9072 33.9004,9.3342 33.6374,9.5952 L13.2294,29.2012 C13.0984,29.3322 12.9274,29.3962 12.7554,29.3962 C12.5854,29.3962 12.4124,29.3322 12.2814,29.2012" id="Fill-15" fill="#1B1B1B"></path>
                    <path d="M8.6174,24.5879 L29.0264,4.9809" id="Fill-17" fill="#FFED64"></path>
                    <path d="M8.1398,25.0616 C7.8798,24.7996 7.8798,24.3746 8.1398,24.1126 L28.5498,4.5046 C28.8148,4.2456 29.2378,4.2456 29.4988,4.5046 C29.7618,4.7676 29.7618,5.1936 29.4988,5.4566 L9.0908,25.0616 C8.9598,25.1926 8.7868,25.2576 8.6168,25.2576 C8.4448,25.2576 8.2738,25.1926 8.1398,25.0616" id="Fill-19" fill="#1B1B1B"></path>
                    <path d="M26.8586,26.5967 C26.8586,28.2667 25.5036,29.6207 23.8346,29.6207 C22.1646,29.6207 20.8096,28.2667 20.8096,26.5967 C20.8096,24.9267 22.1646,23.5737 23.8346,23.5737 C25.5036,23.5737 26.8586,24.9267 26.8586,26.5967" id="Fill-21" fill="#FFFFFF"></path>
                    <path d="M21.5304,26.5957 C21.5354,27.8667 22.5634,28.8977 23.8344,28.8987 C25.1034,28.8977 26.1344,27.8667 26.1354,26.5957 C26.1344,25.3257 25.1034,24.2957 23.8344,24.2947 C22.5634,24.2957 21.5354,25.3257 21.5304,26.5957 M20.0884,26.5957 C20.0884,24.5277 21.7644,22.8517 23.8344,22.8517 C25.9024,22.8517 27.5794,24.5277 27.5794,26.5957 C27.5794,28.6647 25.9024,30.3407 23.8344,30.3417 C21.7644,30.3407 20.0884,28.6647 20.0884,26.5957" id="Fill-23" fill="#1B1B1B"></path>
                    <path d="M20.1574,38.2774 L20.1574,33.7724 C20.1574,31.8054 21.7514,30.2144 23.7154,30.2144 L23.9524,30.2144 C25.9164,30.2144 27.5104,31.8054 27.5104,33.7724 L27.5104,38.2774" id="Fill-25" fill="#FFFFFF"></path>
                    <g id="Group-29" transform="translate(19.000000, 29.000000)">
                        <mask id="mask-12" fill="white">
                            <use xlink:href="#path-11"></use>
                        </mask>
                        <g id="Clip-28"></g>
                        <path d="M7.7873,9.2774 L7.7873,4.7724 C7.7853,3.2044 6.5173,1.9374 4.9523,1.9334 L4.7153,1.9354 C3.1493,1.9374 1.8823,3.2044 1.8783,4.7724 L1.8783,9.2774 C1.8783,9.6754 1.5543,10.0004 1.1573,10.0004 C0.7573,10.0004 0.4343,9.6754 0.4343,9.2774 L0.4343,4.7724 C0.4363,2.4074 2.3503,0.4924 4.7153,0.4924 L4.9523,0.4904 C7.3153,0.4924 9.2293,2.4074 9.2293,4.7724 L9.2313,9.2774 C9.2313,9.6754 8.9073,10.0004 8.5103,10.0004 C8.1093,10.0004 7.7873,9.6754 7.7873,9.2774" id="Fill-27" fill="#1B1B1B" mask="url(#mask-12)"></path>
                    </g>
                    <path d="M36.4015,26.5967 C36.4015,28.2667 35.0475,29.6207 33.3785,29.6207 C31.7065,29.6207 30.3525,28.2667 30.3525,26.5967 C30.3525,24.9267 31.7065,23.5737 33.3785,23.5737 C35.0475,23.5737 36.4015,24.9267 36.4015,26.5967" id="Fill-30" fill="#FFFFFF"></path>
                    <path d="M31.0734,26.5957 C31.0774,27.8667 32.1064,28.8967 33.3784,28.8997 C34.6494,28.8967 35.6784,27.8667 35.6784,26.5957 C35.6784,25.3257 34.6494,24.2967 33.3784,24.2937 C32.1044,24.2967 31.0774,25.3257 31.0734,26.5957 M29.6304,26.5957 C29.6324,24.5277 31.3094,22.8517 33.3784,22.8517 C35.4444,22.8517 37.1224,24.5277 37.1244,26.5957 C37.1224,28.6647 35.4464,30.3397 33.3784,30.3417 C31.3094,30.3397 29.6324,28.6647 29.6304,26.5957" id="Fill-32" fill="#1B1B1B"></path>
                    <path d="M29.7023,38.2774 L29.7023,33.7724 C29.7023,31.8054 31.2943,30.2144 33.2603,30.2144 L33.4953,30.2144 C35.4613,30.2144 37.0533,31.8054 37.0533,33.7724 L37.0533,38.2774" id="Fill-34" fill="#FFFFFF"></path>
                    <path d="M36.3332,38.2774 L36.3332,33.7714 C36.3292,32.2044 35.0622,30.9364 33.4952,30.9354 L33.2602,30.9354 C31.6932,30.9364 30.4252,32.2044 30.4232,33.7714 L30.4232,38.2774 L30.4252,38.2774 C30.4252,38.6764 30.1002,38.9994 29.7022,38.9994 C29.3032,38.9994 28.9792,38.6764 28.9792,38.2774 L28.9792,33.7714 C28.9792,31.4074 30.8962,29.4924 33.2602,29.4924 L33.4952,29.4924 C35.8582,29.4924 37.7742,31.4074 37.7742,33.7714 L37.7742,38.2774 C37.7742,38.6764 37.4522,38.9994 37.0552,38.9994 C36.6552,38.9994 36.3332,38.6764 36.3332,38.2774" id="Fill-36" fill="#1B1B1B"></path>
                </g>
            </g>
            <g id="Group-49" transform="translate(189.000000, 1.000000)">
                <path d="M6.4472,23.6817 L7.9552,23.6817 L7.9552,24.4197 L7.9552,25.1577 L6.4472,25.1577 L6.4472,23.6817 Z M2.8732,22.3227 C2.5922,22.6987 2.3292,23.0877 2.0972,23.4867 C1.9202,23.7907 1.7562,24.1017 1.6082,24.4187 C1.7562,24.7357 1.9202,25.0447 2.0972,25.3507 C2.3292,25.7467 2.5892,26.1377 2.8722,26.5127 C3.1602,26.8917 3.4672,27.2587 3.7992,27.6107 C4.1332,27.9647 4.4872,28.3047 4.8662,28.6307 C5.2442,28.9557 5.6442,29.2677 6.0642,29.5657 C6.4852,29.8617 6.9262,30.1427 7.3842,30.4057 C7.8432,30.6687 8.3212,30.9127 8.8152,31.1427 C9.1562,31.2997 9.5072,31.4487 9.8652,31.5867 C10.2712,31.1007 10.6382,30.5807 10.9582,30.0317 C11.0662,29.8437 11.1782,29.6607 11.2752,29.4657 C11.3592,29.3027 11.4262,29.1317 11.5032,28.9627 C12.1212,27.5757 12.4742,26.0407 12.4742,24.4197 C12.4742,22.9087 12.1722,21.4737 11.6312,20.1607 C11.5202,19.8937 11.4052,19.6267 11.2752,19.3697 C11.1662,19.1527 11.0422,18.9457 10.9192,18.7377 C10.6082,18.2117 10.2562,17.7157 9.8672,17.2497 C9.5102,17.3887 9.1582,17.5377 8.8122,17.6947 C8.3212,17.9207 7.8432,18.1697 7.3852,18.4327 L7.0172,17.7937 L5.7302,18.7977 L6.0652,19.2707 C5.6442,19.5677 5.2462,19.8797 4.8692,20.2057 L4.4892,19.7667 L3.2632,20.7217 L3.8012,21.2247 C3.4672,21.5777 3.1602,21.9457 2.8732,22.3227 L2.8732,22.3227 Z" id="Fill-1" fill="#FFFFFF"></path>
                <path d="M10.3095,15.5186 L9.8635,15.6786 C10.0135,15.6236 10.1715,15.5836 10.3245,15.5346 L10.3095,15.5186 Z" id="Fill-3" fill="#262C32"></path>
                <path d="M10.3095,33.3164 L10.3245,33.3024 C10.1835,33.2544 10.0375,33.2194 9.8985,33.1704 L10.3095,33.3164 Z" id="Fill-5" fill="#262C32"></path>
                <g id="Group-9" transform="translate(0.000000, 20.159200)">
                    <mask id="mask-14" fill="white">
                        <use xlink:href="#path-13"></use>
                    </mask>
                    <g id="Clip-8"></g>
                    <path d="M9.5507,11.8027 C9.6607,11.6837 9.7607,11.5527 9.8647,11.4277 C9.5067,11.2887 9.1557,11.1407 8.8157,10.9837 C8.3217,10.7537 7.8427,10.5097 7.3837,10.2457 C6.9257,9.9837 6.4857,9.7017 6.0647,9.4067 C5.6447,9.1087 5.2437,8.7967 4.8657,8.4717 C4.4877,8.1457 4.1327,7.8057 3.7987,7.4507 C3.4667,7.0997 3.1597,6.7327 2.8717,6.3537 C2.5887,5.9787 2.3287,5.5877 2.0977,5.1917 C1.9197,4.8857 1.7557,4.5757 1.6087,4.2597 C1.7557,3.9427 1.9197,3.6317 2.0977,3.3267 C2.3287,2.9287 2.5917,2.5387 2.8727,2.1627 C3.1597,1.7857 3.4667,1.4187 3.8007,1.0657 L3.2637,0.5627 L2.7267,0.0597 L2.7267,0.0567 C2.3587,0.4487 2.0147,0.8527 1.6957,1.2767 C1.3787,1.6977 1.0887,2.1347 0.8247,2.5817 C0.5617,3.0317 0.3287,3.4937 0.1257,3.9687 L-0.0003,4.2587 L0.1257,4.5507 C0.3287,5.0237 0.5617,5.4857 0.8247,5.9377 C1.0887,6.3847 1.3787,6.8207 1.6957,7.2407 C2.0147,7.6637 2.3587,8.0717 2.7267,8.4627 C3.0977,8.8527 3.4887,9.2297 3.9047,9.5867 C4.3207,9.9457 4.7567,10.2867 5.2157,10.6077 C5.6747,10.9327 6.1527,11.2387 6.6507,11.5257 C7.1497,11.8107 7.6657,12.0737 8.1987,12.3217 C8.4067,12.4177 8.6287,12.4937 8.8417,12.5837 L9.5507,11.8027 Z" id="Fill-7" fill="#262C32" mask="url(#mask-14)"></path>
                </g>
                <path d="M8.8125,17.6944 C9.1585,17.5384 9.5095,17.3884 9.8675,17.2504 C9.7615,17.1244 9.6625,16.9934 9.5505,16.8724 L8.8435,16.0924 C8.6295,16.1804 8.4075,16.2594 8.1995,16.3544 C7.6665,16.6014 7.1495,16.8684 6.6505,17.1534 L7.0175,17.7944 L7.3855,18.4324 C7.8425,18.1704 8.3215,17.9214 8.8125,17.6944" id="Fill-10" fill="#262C32"></path>
                <path d="M11.6308,20.1602 C11.4288,19.6672 11.1878,19.1922 10.9188,18.7372 C11.0418,18.9452 11.1658,19.1522 11.2758,19.3702 C11.4048,19.6272 11.5208,19.8932 11.6308,20.1602" id="Fill-12" fill="#262C32"></path>
                <path d="M10.958,30.0313 C11.158,29.6853 11.34,29.3303 11.503,28.9633 C11.427,29.1323 11.359,29.3023 11.275,29.4663 C11.179,29.6603 11.066,29.8443 10.958,30.0313" id="Fill-14" fill="#262C32"></path>
                <path d="M4.3857,19.6494 L4.3857,19.6494" id="Stroke-16" stroke-linecap="round" stroke-linejoin="round"></path>
                <path d="M6.0654,19.2705 L5.7304,18.7975 L5.2144,18.0695 L5.2144,18.0675 C4.7554,18.3915 4.3204,18.7315 3.9044,19.0915 L4.3854,19.6495 L4.4894,19.7665 L4.8694,20.2065 C5.2464,19.8795 5.6444,19.5675 6.0654,19.2705" id="Fill-18" fill="#262C32"></path>
                <path d="M7.955,24.42 L7.955,24.42" id="Stroke-20" stroke-linecap="round" stroke-linejoin="round"></path>
                <polygon id="Fill-22" fill="#262C32" points="7.955 24.42 7.955 23.682 6.447 23.682 6.447 25.157 7.955 25.157"></polygon>
                <path d="M42.0312,24.42 C42.0312,22.567 42.3792,20.816 43.0002,19.255 C42.4892,19.203 41.9632,19.176 41.4272,19.176 C37.0412,19.212 35.1342,20.828 34.0182,23.103 L33.4452,24.317 L32.7322,23.178 C31.8962,21.847 30.7622,20.635 29.3922,19.593 C27.9932,18.535 26.3492,17.659 24.5212,17.018 C22.9922,16.484 21.3322,16.123 19.5922,15.957 C18.9022,15.895 18.2092,15.854 17.5102,15.854 C17.2992,15.854 17.0822,15.86 16.8572,15.867 C14.9202,15.923 13.0702,16.227 11.3592,16.739 C12.9822,18.869 13.9492,21.533 13.9492,24.42 C13.9492,24.593 13.9352,24.761 13.9272,24.932 L18.1042,24.932 L18.1042,23.396 L19.5782,23.396 L19.5782,24.932 L22.4552,24.932 L22.4552,23.397 L23.9272,23.397 L23.9272,24.932 L33.1872,24.932 L33.4452,24.523 L33.6372,24.932 L42.0542,24.932 C42.0492,24.761 42.0312,24.593 42.0312,24.42" id="Fill-24" fill="#FFFFFF"></path>
                <path d="M41.4267,29.6621 C37.0407,29.6261 35.1337,28.0091 34.0187,25.7351 L33.6377,24.9321 L33.4457,24.5221 L33.1877,24.9321 L32.7327,25.6581 C31.1927,28.1131 28.6247,30.1701 25.4307,31.4731 L24.9727,31.6591 L24.9727,36.2441 C22.9377,35.9381 21.1757,34.8091 20.0287,33.2051 L19.7837,32.8631 L19.3677,32.8971 C18.7497,32.9471 18.1307,32.9821 17.5097,32.9821 C15.3357,32.9821 13.2617,32.6701 11.3597,32.1001 C12.8847,30.0971 13.8217,27.6181 13.9277,24.9321 C13.9357,24.7611 13.9487,24.5931 13.9487,24.4201 C13.9487,21.5331 12.9827,18.8691 11.3597,16.7391 C13.0707,16.2261 14.9197,15.9231 16.8577,15.8671 C17.0817,15.8601 17.2987,15.8531 17.5097,15.8531 C18.2087,15.8531 18.9027,15.8941 19.5917,15.9571 C21.3317,16.1231 22.9917,16.4841 24.5217,17.0171 C26.3497,17.6591 27.9927,18.5351 29.3927,19.5931 C30.7627,20.6351 31.8967,21.8471 32.7327,23.1781 L33.4457,24.3171 L34.0187,23.1021 C35.1337,20.8281 37.0407,19.2121 41.4267,19.1761 C41.9627,19.1761 42.4887,19.2031 42.9997,19.2551 C42.3787,20.8161 42.0307,22.5671 42.0307,24.4201 C42.0307,24.5931 42.0487,24.7611 42.0547,24.9321 C42.1137,26.5901 42.4377,28.1681 42.9997,29.5841 C42.4887,29.6361 41.9627,29.6621 41.4267,29.6621 L41.4267,29.6621 Z M44.7357,29.8581 C43.9567,28.2861 43.5037,26.4231 43.5037,24.4201 C43.5037,22.4151 43.9567,20.5521 44.7357,18.9781 L45.1727,18.0871 L44.1937,17.9271 C43.3107,17.7801 42.3827,17.7021 41.4267,17.7021 C37.3087,17.6711 34.7267,19.2051 33.2847,21.3931 C32.4517,20.2961 31.4387,19.2991 30.2817,18.4201 C28.7517,17.2611 26.9707,16.3141 25.0057,15.6281 C23.3587,15.0531 21.5877,14.6671 19.7307,14.4911 C19.0057,14.4241 18.2667,14.3801 17.5097,14.3801 C17.2657,14.3801 17.0307,14.3871 16.8107,14.3941 C14.5177,14.4601 12.3337,14.8651 10.3237,15.5341 C10.1717,15.5841 10.0137,15.6241 9.8637,15.6791 C9.8587,15.6811 9.8537,15.6821 9.8487,15.6831 L8.8107,16.0551 L8.8437,16.0931 L9.5507,16.8721 C9.6617,16.9931 9.7617,17.1241 9.8667,17.2501 C10.2557,17.7161 10.6087,18.2121 10.9187,18.7371 C11.1877,19.1921 11.4287,19.6671 11.6307,20.1601 C12.1717,21.4741 12.4747,22.9081 12.4747,24.4201 C12.4747,26.0411 12.1207,27.5751 11.5027,28.9631 C11.3397,29.3301 11.1577,29.6851 10.9577,30.0311 C10.6387,30.5811 10.2717,31.1001 9.8647,31.5871 C9.7607,31.7121 9.6607,31.8431 9.5507,31.9621 L8.8417,32.7431 L8.8107,32.7781 L9.8487,33.1541 C9.8647,33.1601 9.8827,33.1641 9.8987,33.1701 C10.0367,33.2201 10.1837,33.2551 10.3237,33.3031 C12.5347,34.0371 14.9567,34.4571 17.5097,34.4571 C18.0447,34.4571 18.5677,34.4331 19.0827,34.3961 C20.6327,36.3691 23.0017,37.6701 25.6757,37.7911 L26.4457,37.8291 L26.4457,32.6421 C29.2567,31.4161 31.6257,29.6281 33.2847,27.4431 C34.7247,29.6321 37.3077,31.1661 41.4267,31.1361 C42.3827,31.1361 43.3107,31.0581 44.1937,30.9121 L45.1757,30.7501 L44.7357,29.8581 Z" id="Fill-26" fill="#262C32"></path>
                <polygon id="Fill-28" fill="#262C32" points="19.5781 25.8282 19.5781 24.9322 19.5781 23.3952 18.1041 23.3952 18.1041 24.9322 18.1041 25.8282"></polygon>
                <polygon id="Fill-30" fill="#262C32" points="23.9277 25.8282 23.9277 24.9322 23.9277 23.3962 22.4547 23.3962 22.4547 24.9322 22.4547 25.8282"></polygon>
                <path d="M33.5996,38.6846 C34.0416,38.6836 34.4566,38.5786 34.8326,38.4026 C34.1356,37.7376 33.6966,36.8056 33.6966,35.7646 C33.6966,34.7236 34.1366,33.7906 34.8336,33.1256 C34.4586,32.9496 34.0426,32.8436 33.5996,32.8426 C31.9876,32.8446 30.6816,34.1506 30.6786,35.7626 C30.6816,37.3776 31.9876,38.6826 33.5996,38.6846" id="Fill-32" fill="#FFFFFF"></path>
                <path d="M33.5996,32.8428 C34.0426,32.8438 34.4586,32.9488 34.8336,33.1258 C35.8286,33.5918 36.5196,34.5918 36.5216,35.7628 C36.5196,36.9358 35.8276,37.9358 34.8326,38.4028 C34.4566,38.5778 34.0416,38.6838 33.5996,38.6848 C31.9876,38.6828 30.6816,37.3778 30.6786,35.7628 C30.6816,34.1508 31.9876,32.8448 33.5996,32.8428 M33.5996,31.3678 C31.1716,31.3708 29.2046,33.3348 29.2046,35.7628 C29.2076,38.1898 31.1716,40.1588 33.5996,40.1588 C36.0276,40.1588 37.9946,38.1898 37.9956,35.7628 C37.9946,33.3348 36.0276,31.3678 33.5996,31.3678" id="Fill-34" fill="#262C32"></path>
                <path d="M15.8554,8.3155 C16.2984,8.3145 16.7124,8.2105 17.0874,8.0335 C16.3904,7.3675 15.9534,6.4345 15.9534,5.3955 C15.9534,4.3545 16.3904,3.4215 17.0884,2.7555 C16.7124,2.5805 16.2984,2.4745 15.8554,2.4725 C14.2404,2.4775 12.9394,3.7795 12.9374,5.3945 C12.9394,7.0085 14.2404,8.3135 15.8554,8.3155" id="Fill-36" fill="#FFFFFF"></path>
                <path d="M23.9277,25.8282 L22.4547,25.8282 L22.4547,24.9322 L19.5777,24.9322 L19.5777,25.8282 L18.1047,25.8282 L18.1047,24.9322 L13.9277,24.9322 C13.8217,27.6182 12.8847,30.0972 11.3597,32.0992 C13.2617,32.6702 15.3357,32.9822 17.5097,32.9822 C18.1307,32.9822 18.7497,32.9472 19.3677,32.8972 L19.7837,32.8632 L20.0287,33.2052 C21.1757,34.8092 22.9377,35.9382 24.9727,36.2442 L24.9727,31.6592 L25.4307,31.4732 C28.6247,30.1702 31.1927,28.1132 32.7327,25.6582 L33.1877,24.9322 L23.9277,24.9322 L23.9277,25.8282 Z" id="Fill-38" fill="#6895C8"></path>
                <path d="M33.6376,24.9317 L34.0186,25.7357 C35.1336,28.0087 37.0406,29.6257 41.4266,29.6617 C41.9626,29.6617 42.4896,29.6357 42.9996,29.5837 C42.4376,28.1677 42.1146,26.5897 42.0546,24.9317 L33.6376,24.9317 Z" id="Fill-40" fill="#6895C8"></path>
                <path d="M33.6962,35.7647 C33.6962,36.8057 34.1352,37.7377 34.8332,38.4027 C35.8272,37.9357 36.5192,36.9357 36.5212,35.7627 C36.5192,34.5917 35.8282,33.5917 34.8342,33.1257 C34.1362,33.7907 33.6962,34.7237 33.6962,35.7647" id="Fill-42" fill="#6895C8"></path>
                <path d="M15.9531,5.3955 C15.9531,6.4345 16.3901,7.3675 17.0881,8.0335 C18.0821,7.5675 18.7731,6.5655 18.7751,5.3945 C18.7731,4.2235 18.0821,3.2225 17.0891,2.7555 C16.3901,3.4215 15.9531,4.3545 15.9531,5.3955" id="Fill-44" fill="#6895C8"></path>
                <g id="Group-48" transform="translate(11.000000, 0.159200)">
                    <mask id="mask-16" fill="white">
                        <use xlink:href="#path-15"></use>
                    </mask>
                    <g id="Clip-47"></g>
                    <path d="M4.8554,2.3135 C5.2984,2.3155 5.7124,2.4205 6.0884,2.5965 C7.0824,3.0635 7.7734,4.0645 7.7754,5.2355 C7.7734,6.4065 7.0824,7.4085 6.0874,7.8745 C5.7124,8.0505 5.2984,8.1555 4.8554,8.1565 C3.2404,8.1545 1.9394,6.8495 1.9374,5.2355 C1.9394,3.6205 3.2404,2.3185 4.8554,2.3135 M4.8554,9.6305 C7.2814,9.6285 9.2494,7.6625 9.2494,5.2355 C9.2494,2.8065 7.2814,0.8405 4.8554,0.8405 C2.4254,0.8405 0.4624,2.8065 0.4624,5.2355 C0.4624,7.6625 2.4254,9.6285 4.8554,9.6305" id="Fill-46" fill="#262C32" mask="url(#mask-16)"></path>
                </g>
            </g>
            <g id="Group-35" transform="translate(251.000000, 2.000000)">
                <path d="M42.6123,5.7618 L33.6343,5.7618 L33.6343,2.8378 C33.6343,1.6858 32.7013,0.7498 31.5473,0.7498 L20.2733,0.7498 C19.1213,0.7498 18.1853,1.6858 18.1853,2.8378 L18.1853,5.7618 L9.2093,5.7618 C8.0563,5.7618 7.1213,6.6958 7.1213,7.8498 L7.1213,27.8918 C7.1213,29.0438 8.0563,29.9798 9.2093,29.9798 L42.6123,29.9798 C43.7653,29.9798 44.7003,29.0438 44.7003,27.8918 L44.7003,7.8498 C44.7003,6.6958 43.7653,5.7618 42.6123,5.7618" id="Fill-1" fill="#FFFFFF"></path>
                <path d="M42.6123,5.7618 L33.6343,5.7618 L33.6343,2.8378 C33.6343,1.6858 32.7013,0.7498 31.5473,0.7498 L20.2733,0.7498 C19.1213,0.7498 18.1853,1.6858 18.1853,2.8378 L18.1853,5.7618 L9.2093,5.7618 C8.0563,5.7618 7.1213,6.6958 7.1213,7.8498 L7.1213,27.8918 C7.1213,29.0438 8.0563,29.9798 9.2093,29.9798 L42.6123,29.9798 C43.7653,29.9798 44.7003,29.0438 44.7003,27.8918 L44.7003,7.8498 C44.7003,6.6958 43.7653,5.7618 42.6123,5.7618 Z" id="Stroke-3" stroke="#1B1B1B" stroke-width="1.5"></path>
                <g id="Group-8" transform="translate(16.000000, 7.881900)">
                    <path d="M6.3379,1.0908 C7.4359,0.6248 8.6439,0.3678 9.9109,0.3678 C11.1799,0.3678 12.3869,0.6248 13.4839,1.0908 C14.5829,1.5538 15.5709,2.2278 16.4019,3.0578 C17.2329,3.8888 17.9039,4.8778 18.3689,5.9768 C18.8349,7.0738 19.0909,8.2828 19.0909,9.5488 C19.0909,10.8178 18.8349,12.0248 18.3689,13.1228 C17.9039,14.2208 17.2329,15.2118 16.4019,16.0408 C15.5709,16.8718 14.5829,17.5448 13.4839,18.0098 C12.3869,18.4728 11.1799,18.7308 9.9109,18.7308 C8.6439,18.7308 7.4359,18.4728 6.3379,18.0098 C5.2389,17.5448 4.2509,16.8718 3.4199,16.0408 C2.5889,15.2118 1.9169,14.2208 1.4519,13.1228 C0.9869,12.0248 0.7309,10.8178 0.7309,9.5488 C0.7309,8.2828 0.9869,7.0738 1.4519,5.9768" id="Fill-5" fill="#00D5DB"></path>
                    <path d="M6.3379,1.0908 C7.4359,0.6248 8.6439,0.3678 9.9109,0.3678 C11.1799,0.3678 12.3869,0.6248 13.4839,1.0908 C14.5829,1.5538 15.5709,2.2278 16.4019,3.0578 C17.2329,3.8888 17.9039,4.8778 18.3689,5.9768 C18.8349,7.0738 19.0909,8.2828 19.0909,9.5488 C19.0909,10.8178 18.8349,12.0248 18.3689,13.1228 C17.9039,14.2208 17.2329,15.2118 16.4019,16.0408 C15.5709,16.8718 14.5829,17.5448 13.4839,18.0098 C12.3869,18.4728 11.1799,18.7308 9.9109,18.7308 C8.6439,18.7308 7.4359,18.4728 6.3379,18.0098 C5.2389,17.5448 4.2509,16.8718 3.4199,16.0408 C2.5889,15.2118 1.9169,14.2208 1.4519,13.1228 C0.9869,12.0248 0.7309,10.8178 0.7309,9.5488 C0.7309,8.2828 0.9869,7.0738 1.4519,5.9768" id="Stroke-7" stroke="#1B1B1B" stroke-width="1.5" stroke-linecap="round" stroke-linejoin="round"></path>
                </g>
                <g id="Group-12" transform="translate(19.000000, 10.881900)">
                    <path d="M11.1602,10.7978 C10.6152,11.3408 9.9682,11.7798 9.2492,12.0848 C8.5302,12.3898 7.7402,12.5578 6.9112,12.5578 C6.0812,12.5578 5.2912,12.3898 4.5722,12.0848 C3.8542,11.7798 3.2062,11.3408 2.6632,10.7978 C2.1202,10.2548 1.6802,9.6068 1.3752,8.8888 C1.0722,8.1698 0.9032,7.3788 0.9032,6.5488 C0.9032,5.7198 1.0722,4.9288 1.3752,4.2108 C1.6802,3.4918 2.1202,2.8438 2.6632,2.3008 C3.2062,1.7578 3.8542,1.3188 4.5722,1.0148 C5.2912,0.7088 6.0812,0.5408 6.9112,0.5408 C7.7402,0.5408 8.5302,0.7088 9.2492,1.0148 C9.9682,1.3188 10.6152,1.7578 11.1602,2.3008 C11.7032,2.8438 12.1422,3.4918 12.4452,4.2108 C12.7492,4.9288 12.9182,5.7198 12.9182,6.5488" id="Fill-9" fill="#00D5DB"></path>
                    <path d="M11.1602,10.7978 C10.6152,11.3408 9.9682,11.7798 9.2492,12.0848 C8.5302,12.3898 7.7402,12.5578 6.9112,12.5578 C6.0812,12.5578 5.2912,12.3898 4.5722,12.0848 C3.8542,11.7798 3.2062,11.3408 2.6632,10.7978 C2.1202,10.2548 1.6802,9.6068 1.3752,8.8888 C1.0722,8.1698 0.9032,7.3788 0.9032,6.5488 C0.9032,5.7198 1.0722,4.9288 1.3752,4.2108 C1.6802,3.4918 2.1202,2.8438 2.6632,2.3008 C3.2062,1.7578 3.8542,1.3188 4.5722,1.0148 C5.2912,0.7088 6.0812,0.5408 6.9112,0.5408 C7.7402,0.5408 8.5302,0.7088 9.2492,1.0148 C9.9682,1.3188 10.6152,1.7578 11.1602,2.3008 C11.7032,2.8438 12.1422,3.4918 12.4452,4.2108 C12.7492,4.9288 12.9182,5.7198 12.9182,6.5488" id="Stroke-11" stroke="#1B1B1B" stroke-width="1.5" stroke-linecap="round" stroke-linejoin="round"></path>
                </g>
                <path d="M12.4727,30.2891 C15.1527,27.6061 15.1527,23.2601 12.4727,20.5771 C9.7897,17.8961 5.4427,17.8961 2.7597,20.5771 C0.0797,23.2601 0.0797,27.6061 2.7597,30.2891 L7.6167,35.1431 L12.4727,30.2891 Z" id="Fill-13" fill="#FFFFFF"></path>
                <path d="M12.4727,30.2891 C15.1527,27.6061 15.1527,23.2601 12.4727,20.5771 C9.7897,17.8961 5.4427,17.8961 2.7597,20.5771 C0.0797,23.2601 0.0797,27.6061 2.7597,30.2891 L7.6167,35.1431 L12.4727,30.2891 Z" id="Stroke-15" stroke="#1B1B1B" stroke-width="1.5"></path>
                <path d="M11.2598,25.043 C11.2598,27.057 9.6288,28.687 7.6158,28.687 C5.6038,28.687 3.9728,27.057 3.9728,25.043 C3.9728,23.031 5.6038,21.4 7.6158,21.4 C9.6288,21.4 11.2598,23.031 11.2598,25.043" id="Fill-17" fill="#FFFFFF"></path>
                <path d="M11.2598,25.043 C11.2598,27.057 9.6288,28.687 7.6158,28.687 C5.6038,28.687 3.9728,27.057 3.9728,25.043 C3.9728,23.031 5.6038,21.4 7.6158,21.4 C9.6288,21.4 11.2598,23.031 11.2598,25.043 Z" id="Stroke-19" stroke="#1B1B1B" stroke-width="1.5"></path>
                <g id="Group-24" transform="translate(1.000000, 35.881900)">
                    <path d="M0.749,1.25 L3.097,1.25" id="Fill-21" fill="#FFFFFF"></path>
                    <path d="M0.749,1.25 L3.097,1.25" id="Stroke-23" stroke="#1B1B1B" stroke-width="1.5"></path>
                </g>
                <g id="Group-28" transform="translate(6.000000, 35.881900)">
                    <path d="M0.4424,1.25 L2.7894,1.25" id="Fill-25" fill="#FFFFFF"></path>
                    <path d="M0.4424,1.25 L2.7894,1.25" id="Stroke-27" stroke="#1B1B1B" stroke-width="1.5"></path>
                </g>
                <g id="Group-32" transform="translate(11.000000, 35.881900)">
                    <path d="M0.1357,1.25 L2.4837,1.25" id="Fill-29" fill="#FFFFFF"></path>
                    <path d="M0.1357,1.25 L2.4837,1.25" id="Stroke-31" stroke="#1B1B1B" stroke-width="1.5"></path>
                </g>
                <path d="M41.4883,11.1895 C41.4883,12.1125 40.7413,12.8595 39.8183,12.8595 C38.8963,12.8595 38.1473,12.1125 38.1473,11.1895 C38.1473,10.2675 38.8963,9.5185 39.8183,9.5185 C40.7413,9.5185 41.4883,10.2675 41.4883,11.1895 Z" id="Stroke-33" stroke="#1B1B1B" stroke-width="1.5"></path>
            </g>
            <g id="Group-17" transform="translate(317.000000, 4.000000)">
                <g id="Group-4" transform="translate(12.000000, 0.172800)">
                    <path d="M0.9912,5.3369 L0.9912,3.7629 C0.9912,2.0029 2.4172,0.5769 4.1772,0.5769 L10.1412,0.5769 C11.9012,0.5769 13.3272,2.0029 13.3272,3.7629 L13.3272,5.3369" id="Fill-1" fill="#FFFFFF"></path>
                    <path d="M0.9912,5.3369 L0.9912,3.7629 C0.9912,2.0029 2.4172,0.5769 4.1772,0.5769 L10.1412,0.5769 C11.9012,0.5769 13.3272,2.0029 13.3272,3.7629 L13.3272,5.3369" id="Stroke-3" stroke="#1B1B1B" stroke-width="1.5" stroke-linecap="round" stroke-linejoin="round"></path>
                </g>
                <path d="M31.7822,5.5605 L6.5362,5.5605 C3.3412,5.5605 0.7502,8.1505 0.7502,11.3465 L0.7502,14.1855 L37.5682,14.1855 L37.5682,11.3465 C37.5682,8.1505 34.9772,5.5605 31.7822,5.5605" id="Fill-5" fill="#00D5DB"></path>
                <path d="M31.7822,5.5605 L6.5362,5.5605 C3.3412,5.5605 0.7502,8.1505 0.7502,11.3465 L0.7502,14.1855 L37.5682,14.1855 L37.5682,11.3465 C37.5682,8.1505 34.9772,5.5605 31.7822,5.5605 Z" id="Stroke-7" stroke="#1B1B1B" stroke-width="1.5" stroke-linecap="round" stroke-linejoin="round"></path>
                <path d="M0.75,28.6367 C0.75,31.8327 3.341,34.4227 6.536,34.4227 L31.782,34.4227 C34.978,34.4227 37.568,31.8327 37.568,28.6367 L37.568,14.1857 L0.75,14.1857 L0.75,28.6367 Z" id="Fill-9" fill="#FFFFFF"></path>
                <path d="M0.75,28.6367 C0.75,31.8327 3.341,34.4227 6.536,34.4227 L31.782,34.4227 C34.978,34.4227 37.568,31.8327 37.568,28.6367 L37.568,14.1857 L0.75,14.1857 L0.75,28.6367 Z" id="Stroke-11" stroke="#1B1B1B" stroke-width="1.5" stroke-linecap="round" stroke-linejoin="round"></path>
                <polygon id="Fill-13" fill="#FF6464" points="23.9697 22.1904 21.2867 22.1904 21.2867 19.5074 17.0317 19.5074 17.0317 22.1904 14.3477 22.1904 14.3477 26.4454 17.0317 26.4454 17.0317 29.1284 21.2867 29.1284 21.2867 26.4454 23.9697 26.4454"></polygon>
                <polygon id="Stroke-15" stroke="#1B1B1B" stroke-width="1.5" points="23.9697 22.1904 21.2867 22.1904 21.2867 19.5074 17.0317 19.5074 17.0317 22.1904 14.3477 22.1904 14.3477 26.4454 17.0317 26.4454 17.0317 29.1284 21.2867 29.1284 21.2867 26.4454 23.9697 26.4454"></polygon>
            </g>
            <g id="Group-23" transform="translate(381.000000, 1.000000)">
                <path d="M26.5908,3.126 C24.7648,1.276 21.7828,1.257 19.9348,3.084 L17.5298,5.455 L15.1278,3.084 C13.2778,1.257 10.2968,1.276 8.4698,3.126 C6.6448,4.977 6.6618,7.958 8.5128,9.785 L10.1228,11.372 L10.8288,12.072 L17.5298,18.689 L24.2328,12.072 L26.5488,9.785 C26.7088,9.627 26.8498,9.458 26.9818,9.285 C28.3838,7.449 28.2608,4.816 26.5908,3.126" id="Fill-1" fill="#FF6464"></path>
                <g id="Group-5" transform="translate(6.000000, 0.744200)">
                    <mask id="mask-18" fill="white">
                        <use xlink:href="#path-17"></use>
                    </mask>
                    <g id="Clip-4"></g>
                    <path d="M11.0205,18.4599 L4.3205,11.8439 L3.6115,11.1439 L2.0035,9.5549 C0.9255,8.4939 0.3845,7.0869 0.3865,5.6889 C0.3845,4.3139 0.9105,2.9289 1.9535,1.8729 C3.0145,0.7959 4.4195,0.2559 5.8205,0.2559 C7.1955,0.2559 8.5815,0.7799 9.6375,1.8229 L11.5305,3.6909 L13.4235,1.8229 C14.4785,0.7769 15.8655,0.2559 17.2415,0.2569 C18.6405,0.2559 20.0455,0.7979 21.1065,1.8719 L20.5905,2.3819 L20.0765,2.8909 C19.2925,2.0999 18.2705,1.7059 17.2415,1.7049 C16.2245,1.7059 15.2185,2.0869 14.4435,2.8549 L12.0395,5.2269 C11.7575,5.5039 11.3025,5.5039 11.0205,5.2269 L8.6195,2.8549 C7.8405,2.0869 6.8335,1.7059 5.8205,1.7049 C4.7875,1.7059 3.7655,2.0999 2.9835,2.8909 C2.2175,3.6679 1.8365,4.6779 1.8365,5.6889 C1.8365,6.7189 2.2285,7.7419 3.0215,8.5239 L4.6305,10.1129 L5.3395,10.8119 L11.5305,16.9259 L17.7215,10.8129 L20.0395,8.5239 C20.1675,8.3979 20.2865,8.2569 20.4045,8.1019 C20.9485,7.3899 21.2205,6.5359 21.2205,5.6819 C21.2185,4.6709 20.8405,3.6659 20.0765,2.8909 L20.5905,2.3819 L21.1065,1.8719 C22.1485,2.9259 22.6685,4.3069 22.6685,5.6819 C22.6685,6.8429 22.2995,8.0099 21.5555,8.9819 C21.4105,9.1699 21.2505,9.3649 21.0575,9.5549 L18.7425,11.8449 L12.0395,18.4599 C11.8985,18.5989 11.7155,18.6689 11.5305,18.6689 C11.3445,18.6689 11.1625,18.5989 11.0205,18.4599" id="Fill-3" fill="#1B1B1B" mask="url(#mask-18)"></path>
                </g>
                <path d="M11.6357,20.9707 C11.6357,23.2777 9.7657,25.1497 7.4567,25.1497 C5.1487,25.1497 3.2787,23.2777 3.2787,20.9707 C3.2787,18.6607 5.1487,16.7907 7.4567,16.7907 C9.7657,16.7907 11.6357,18.6607 11.6357,20.9707" id="Fill-6" fill="#FFFFFF"></path>
                <path d="M4.0009,20.9688 C4.0049,22.8758 5.5489,24.4208 7.4569,24.4218 C9.3649,24.4208 10.9059,22.8768 10.9089,20.9688 C10.9059,19.0628 9.3629,17.5198 7.4569,17.5168 C5.5489,17.5198 4.0049,19.0628 4.0009,20.9688 M2.5529,20.9688 C2.5529,18.2608 4.7479,16.0678 7.4569,16.0668 C10.1659,16.0668 12.3589,18.2608 12.3589,20.9688 C12.3589,23.6768 10.1639,25.8718 7.4569,25.8718 C4.7479,25.8718 2.5539,23.6768 2.5529,20.9688" id="Fill-8" fill="#1B1B1B"></path>
                <path d="M14.1875,39.0205 L14.1875,32.5065 C14.1875,28.7895 11.1735,25.7755 7.4575,25.7755 C3.7385,25.7755 0.7255,28.7895 0.7255,32.5065 L0.7255,39.0205 L14.1875,39.0205 Z" id="Fill-10" fill="#FFFFFF"></path>
                <path d="M1.4511,32.5069 L1.4511,38.2949 L13.4611,38.2949 L13.4611,32.5069 C13.4551,29.1899 10.7711,26.5059 7.4571,26.4999 C4.1391,26.5059 1.4561,29.1899 1.4511,32.5069 L1.4511,32.5069 Z M14.1871,39.0209 L14.1871,38.2949 L14.1871,39.0209 Z M0.0001,39.7439 L0.0011,32.5069 C0.0011,28.3899 3.3371,25.0509 7.4571,25.0509 C11.5741,25.0509 14.9111,28.3899 14.9121,32.5069 L14.9121,39.0209 L14.9121,39.7439 L0.0001,39.7439 Z" id="Fill-12" fill="#1B1B1B"></path>
                <path d="M31.1367,20.9707 C31.1367,23.2777 29.2677,25.1497 26.9587,25.1497 C24.6507,25.1497 22.7797,23.2777 22.7797,20.9707 C22.7797,18.6607 24.6507,16.7907 26.9587,16.7907 C29.2677,16.7907 31.1367,18.6607 31.1367,20.9707" id="Fill-14" fill="#FFFFFF"></path>
                <path d="M23.5039,20.9707 C23.5079,22.8767 25.0509,24.4207 26.9589,24.4227 C28.8669,24.4207 30.4089,22.8767 30.4109,20.9707 C30.4089,19.0627 28.8669,17.5187 26.9589,17.5167 C25.0509,17.5187 23.5079,19.0627 23.5039,20.9707 M22.0559,20.9707 C22.0559,18.2607 24.2499,16.0677 26.9589,16.0677 C29.6679,16.0677 31.8609,18.2607 31.8609,20.9707 C31.8609,23.6757 29.6679,25.8717 26.9589,25.8727 C24.2499,25.8717 22.0569,23.6757 22.0559,20.9707" id="Fill-16" fill="#1B1B1B"></path>
                <path d="M33.6894,39.0205 L33.6894,32.5065 C33.6894,28.7895 30.6754,25.7755 26.9594,25.7755 C23.2414,25.7755 20.2284,28.7895 20.2284,32.5065 L20.2284,39.0205 L33.6894,39.0205 Z" id="Fill-18" fill="#FFFFFF"></path>
                <g id="Group-22" transform="translate(19.000000, 24.744200)">
                    <mask id="mask-20" fill="white">
                        <use xlink:href="#path-19"></use>
                    </mask>
                    <g id="Clip-21"></g>
                    <path d="M1.9521,7.7627 L1.9521,13.5507 L13.9651,13.5507 L13.9651,7.7627 C13.9581,4.4457 11.2761,1.7607 7.9611,1.7567 C4.6411,1.7607 1.9591,4.4457 1.9521,7.7627 L1.9521,7.7627 Z M14.6891,14.2767 L14.6891,13.5507 L14.6891,14.2767 Z M0.5021,14.9997 L0.5031,7.7627 C0.5031,3.6457 3.8401,0.3077 7.9611,0.3057 C12.0761,0.3077 15.4131,3.6457 15.4151,7.7627 L15.4151,14.2767 L15.4151,14.9997 L0.5021,14.9997 Z" id="Fill-20" fill="#1B1B1B" mask="url(#mask-20)"></path>
                </g>
            </g>
            <g id="Group-68" transform="translate(436.000000, 2.000000)">
                <polygon id="Fill-1" fill="#FFFFFF" points="0.75 37.8974 35.465 37.8974 35.465 9.1424 0.75 9.1424"></polygon>
                <polygon id="Stroke-2" stroke="#1B1B1B" stroke-width="1.5" points="0.75 37.8974 35.465 37.8974 35.465 9.1424 0.75 9.1424"></polygon>
                <polygon id="Fill-4" fill="#00D5DB" points="13.114 37.8324 35.665 37.8324 35.665 1.7504 13.114 1.7504"></polygon>
                <polygon id="Stroke-5" stroke="#1B1B1B" stroke-width="1.5" stroke-linecap="round" stroke-linejoin="round" points="13.114 37.8324 35.665 37.8324 35.665 1.7504 13.114 1.7504"></polygon>
                <path d="M17.6238,9.878 L17.6238,6.777 L17.6238,9.878 Z" id="Fill-7" fill="#FFFFFF"></path>
                <path d="M17.624,6.7773 L17.624,9.8783" id="Stroke-8" stroke="#1B1B1B" stroke-width="1.5"></path>
                <path d="M22.1337,9.878 L22.1337,6.777 L22.1337,9.878 Z" id="Fill-9" fill="#FFFFFF"></path>
                <path d="M22.1338,6.7773 L22.1338,9.8783" id="Stroke-10" stroke="#1B1B1B" stroke-width="1.5"></path>
                <path d="M26.6436,9.878 L26.6436,6.777 L26.6436,9.878 Z" id="Fill-11" fill="#FFFFFF"></path>
                <path d="M26.6435,6.7773 L26.6435,9.8783" id="Stroke-12" stroke="#1B1B1B" stroke-width="1.5"></path>
                <path d="M31.1544,9.878 L31.1544,6.777 L31.1544,9.878 Z" id="Fill-13" fill="#FFFFFF"></path>
                <path d="M31.1543,6.7773 L31.1543,9.8783" id="Stroke-14" stroke="#1B1B1B" stroke-width="1.5"></path>
                <path d="M17.6238,18.0059 L17.6238,14.9049 L17.6238,18.0059 Z" id="Fill-15" fill="#FFFFFF"></path>
                <path d="M17.624,14.9043 L17.624,18.0063" id="Stroke-16" stroke="#1B1B1B" stroke-width="1.5"></path>
                <path d="M22.1337,18.0059 L22.1337,14.9049 L22.1337,18.0059 Z" id="Fill-17" fill="#FFFFFF"></path>
                <path d="M22.1338,14.9043 L22.1338,18.0063" id="Stroke-18" stroke="#1B1B1B" stroke-width="1.5"></path>
                <path d="M26.6436,18.0059 L26.6436,14.9049 L26.6436,18.0059 Z" id="Fill-19" fill="#FFFFFF"></path>
                <path d="M26.6435,14.9043 L26.6435,18.0063" id="Stroke-20" stroke="#1B1B1B" stroke-width="1.5"></path>
                <path d="M31.1544,18.0059 L31.1544,14.9049 L31.1544,18.0059 Z" id="Fill-21" fill="#FFFFFF"></path>
                <path d="M31.1543,14.9043 L31.1543,18.0063" id="Stroke-22" stroke="#1B1B1B" stroke-width="1.5"></path>
                <path d="M17.6238,26.1338 L17.6238,23.0328 L17.6238,26.1338 Z" id="Fill-23" fill="#FFFFFF"></path>
                <path d="M17.624,23.0322 L17.624,26.1342" id="Stroke-24" stroke="#1B1B1B" stroke-width="1.5"></path>
                <path d="M22.1337,26.1338 L22.1337,23.0328 L22.1337,26.1338 Z" id="Fill-25" fill="#FFFFFF"></path>
                <path d="M22.1338,23.0322 L22.1338,26.1342" id="Stroke-26" stroke="#1B1B1B" stroke-width="1.5"></path>
                <path d="M26.6436,26.1338 L26.6436,23.0328 L26.6436,26.1338 Z" id="Fill-27" fill="#FFFFFF"></path>
                <path d="M26.6435,23.0322 L26.6435,26.1342" id="Stroke-28" stroke="#1B1B1B" stroke-width="1.5"></path>
                <path d="M31.1544,26.1338 L31.1544,23.0328 L31.1544,26.1338 Z" id="Fill-29" fill="#FFFFFF"></path>
                <path d="M31.1543,23.0322 L31.1543,26.1342" id="Stroke-30" stroke="#1B1B1B" stroke-width="1.5"></path>
                <path d="M17.6238,34.2608 L17.6238,31.1618 L17.6238,34.2608 Z" id="Fill-31" fill="#FFFFFF"></path>
                <path d="M17.624,31.1621 L17.624,34.2611" id="Stroke-32" stroke="#1B1B1B" stroke-width="1.5"></path>
                <path d="M22.1337,34.2608 L22.1337,31.1618 L22.1337,34.2608 Z" id="Fill-33" fill="#FFFFFF"></path>
                <path d="M22.1338,31.1621 L22.1338,34.2611" id="Stroke-34" stroke="#1B1B1B" stroke-width="1.5"></path>
                <path d="M26.6436,34.2608 L26.6436,31.1618 L26.6436,34.2608 Z" id="Fill-35" fill="#FFFFFF"></path>
                <path d="M26.6435,31.1621 L26.6435,34.2611" id="Stroke-36" stroke="#1B1B1B" stroke-width="1.5"></path>
                <path d="M31.1544,34.2608 L31.1544,31.1618 L31.1544,34.2608 Z" id="Fill-37" fill="#FFFFFF"></path>
                <path d="M31.1543,31.1621 L31.1543,34.2611" id="Stroke-38" stroke="#1B1B1B" stroke-width="1.5"></path>
                <g id="Group-67" transform="translate(0.000000, 0.647400)">
                    <path d="M48.1152,13.3106 C48.1152,17.8906 44.4012,21.6066 39.8212,21.6066 C35.2392,21.6066 31.5252,17.8906 31.5252,13.3106 C31.5252,8.7306 35.2392,5.0166 39.8212,5.0166 C44.4012,5.0166 48.1152,8.7306 48.1152,13.3106" id="Fill-39" fill="#FFFFFF"></path>
                    <path d="M48.1152,13.3106 C48.1152,17.8906 44.4012,21.6066 39.8212,21.6066 C35.2392,21.6066 31.5252,17.8906 31.5252,13.3106 C31.5252,8.7306 35.2392,5.0166 39.8212,5.0166 C44.4012,5.0166 48.1152,8.7306 48.1152,13.3106 Z" id="Stroke-41" stroke="#1B1B1B" stroke-width="1.5"></path>
                    <g id="Group-46" transform="translate(39.000000, 7.000000)">
                        <path d="M0.8213,0.4473 L0.8213,30.1843" id="Fill-43" fill="#FFFFFF"></path>
                        <path d="M0.8213,0.4473 L0.8213,30.1843" id="Stroke-45" stroke="#1B1B1B" stroke-width="1.5"></path>
                    </g>
                    <g id="Group-50" transform="translate(39.000000, 14.000000)">
                        <path d="M0.7197,4.9756 L4.7657,0.9296" id="Fill-47" fill="#FFFFFF"></path>
                        <path d="M0.7197,4.9756 L4.7657,0.9296" id="Stroke-49" stroke="#1B1B1B" stroke-width="1.5"></path>
                    </g>
                    <g id="Group-54" transform="translate(35.000000, 14.000000)">
                        <path d="M4.7197,4.9756 L0.6737,0.9296" id="Fill-51" fill="#FFFFFF"></path>
                        <path d="M4.7197,4.9756 L0.6737,0.9296" id="Stroke-53" stroke="#1B1B1B" stroke-width="1.5"></path>
                    </g>
                    <g id="Group-58" transform="translate(39.000000, 9.000000)">
                        <path d="M0.7197,4.7158 L4.7657,0.6688" id="Fill-55" fill="#FFFFFF"></path>
                        <path d="M0.7197,4.7158 L4.7657,0.6688" id="Stroke-57" stroke="#1B1B1B" stroke-width="1.5"></path>
                    </g>
                    <g id="Group-62" transform="translate(35.000000, 9.000000)">
                        <path d="M4.7197,4.7158 L0.6737,0.6688" id="Fill-59" fill="#FFFFFF"></path>
                        <path d="M4.7197,4.7158 L0.6737,0.6688" id="Stroke-61" stroke="#1B1B1B" stroke-width="1.5"></path>
                    </g>
                    <mask id="mask-22" fill="white">
                        <use xlink:href="#path-21"></use>
                    </mask>
                    <g id="Clip-64"></g>
                    <polygon id="Stroke-63" stroke="#1B1B1B" stroke-width="1.5" mask="url(#mask-22)" points="4.515 16.137 6.983 16.137 6.983 12.062 4.515 12.062"></polygon>
                    <polygon id="Stroke-65" stroke="#1B1B1B" stroke-width="1.5" mask="url(#mask-22)" points="4.515 23.646 6.983 23.646 6.983 19.57 4.515 19.57"></polygon>
                    <polygon id="Stroke-66" stroke="#1B1B1B" stroke-width="1.5" mask="url(#mask-22)" points="4.515 31.156 6.983 31.156 6.983 27.079 4.515 27.079"></polygon>
                </g>
            </g>
            <g id="Group-25" transform="translate(499.000000, 2.000000)">
                <path d="M3.7607,10.5527 C2.0977,10.5527 0.7497,11.9007 0.7497,13.5637 L0.7497,20.6987 L14.3997,20.6987 L14.3997,10.5527 L3.7607,10.5527 Z" id="Fill-1" fill="#71DAE5"></path>
                <path d="M3.7607,10.5527 C2.0977,10.5527 0.7497,11.9007 0.7497,13.5637 L0.7497,20.6987 L14.3997,20.6987 L14.3997,10.5527 L3.7607,10.5527 Z" id="Stroke-3" stroke="#1B1B1B" stroke-width="1.5" stroke-linecap="round" stroke-linejoin="round"></path>
                <path d="M45.0908,19.0927 C45.0908,14.1037 41.0468,10.5527 36.0568,10.5527 L29.8338,10.5527 L29.8338,20.6987 L45.0908,20.6987 L45.0908,19.0927 Z" id="Fill-5" fill="#71DAE5"></path>
                <path d="M45.0908,19.0927 C45.0908,14.1037 41.0468,10.5527 36.0568,10.5527 L29.8338,10.5527 L29.8338,20.6987 L45.0908,20.6987 L45.0908,19.0927 Z" id="Stroke-7" stroke="#1B1B1B" stroke-width="1.5" stroke-linecap="round" stroke-linejoin="round"></path>
                <mask id="mask-24" fill="white">
                    <use xlink:href="#path-23"></use>
                </mask>
                <g id="Clip-10"></g>
                <polygon id="Fill-9" fill="#71DAE5" mask="url(#mask-24)" points="14.399 20.699 29.834 20.699 29.834 10.553 14.399 10.553"></polygon>
                <polygon id="Stroke-11" stroke="#1B1B1B" stroke-width="1.5" stroke-linecap="round" stroke-linejoin="round" mask="url(#mask-24)" points="14.399 20.699 29.834 20.699 29.834 10.553 14.399 10.553"></polygon>
                <path d="M45.0908,24.8047 C45.0908,24.7827 45.0838,24.7607 45.0838,24.7387 C45.0838,24.6937 45.0908,24.6497 45.0908,24.6047 L45.0908,20.6997 L0.7498,20.6997 L0.7498,25.4327 L45.0908,25.4327 L45.0908,24.8047 Z" id="Fill-12" fill="#FFE880" mask="url(#mask-24)"></path>
                <path d="M45.0908,24.8047 C45.0908,24.7827 45.0838,24.7607 45.0838,24.7387 C45.0838,24.6937 45.0908,24.6497 45.0908,24.6047 L45.0908,20.6997 L0.7498,20.6997 L0.7498,25.4327 L45.0908,25.4327 L45.0908,24.8047 Z" id="Stroke-13" stroke="#1B1B1B" stroke-width="1.5" stroke-linejoin="round" mask="url(#mask-24)"></path>
                <path d="M0.75,25.4326 L0.75,30.6256 C0.75,32.2886 2.098,33.6386 3.761,33.6386 L42.079,33.6386 C43.742,33.6386 45.091,32.2886 45.091,30.6256 L45.091,25.4326 L0.75,25.4326 Z" id="Fill-14" fill="#6895C8" mask="url(#mask-24)"></path>
                <path d="M0.75,25.4326 L0.75,30.6256 C0.75,32.2886 2.098,33.6386 3.761,33.6386 L42.079,33.6386 C43.742,33.6386 45.091,32.2886 45.091,30.6256 L45.091,25.4326 L0.75,25.4326 Z" id="Stroke-15" stroke="#1B1B1B" stroke-width="1.5" stroke-linecap="round" stroke-linejoin="round" mask="url(#mask-24)"></path>
                <path d="M15.915,34.1865 C15.915,36.9125 13.705,39.1225 10.981,39.1225 C8.256,39.1225 6.047,36.9125 6.047,34.1865 C6.047,31.4625 8.256,29.2525 10.981,29.2525 C13.705,29.2525 15.915,31.4625 15.915,34.1865" id="Fill-16" fill="#FFFFFF" mask="url(#mask-24)"></path>
                <path d="M15.915,34.1865 C15.915,36.9125 13.705,39.1225 10.981,39.1225 C8.256,39.1225 6.047,36.9125 6.047,34.1865 C6.047,31.4625 8.256,29.2525 10.981,29.2525 C13.705,29.2525 15.915,31.4625 15.915,34.1865 Z" id="Stroke-17" stroke="#1B1B1B" stroke-width="1.5" stroke-linecap="round" stroke-linejoin="round" mask="url(#mask-24)"></path>
                <path d="M39.7929,34.1865 C39.7929,36.9125 37.5839,39.1225 34.8579,39.1225 C32.1339,39.1225 29.9249,36.9125 29.9249,34.1865 C29.9249,31.4625 32.1339,29.2525 34.8579,29.2525 C37.5839,29.2525 39.7929,31.4625 39.7929,34.1865" id="Fill-18" fill="#FFFFFF" mask="url(#mask-24)"></path>
                <path d="M39.7929,34.1865 C39.7929,36.9125 37.5839,39.1225 34.8579,39.1225 C32.1339,39.1225 29.9249,36.9125 29.9249,34.1865 C29.9249,31.4625 32.1339,29.2525 34.8579,29.2525 C37.5839,29.2525 39.7929,31.4625 39.7929,34.1865 Z" id="Stroke-19" stroke="#1B1B1B" stroke-width="1.5" stroke-linecap="round" stroke-linejoin="round" mask="url(#mask-24)"></path>
                <path d="M34.0527,4.75 C34.0527,6.959 32.2607,8.753 30.0507,8.753 C27.8417,8.753 26.0477,6.959 26.0477,4.75 C26.0477,2.541 27.8417,0.75 30.0507,0.75 C32.2607,0.75 34.0527,2.541 34.0527,4.75" id="Fill-20" fill="#FFFFFF" mask="url(#mask-24)"></path>
                <path d="M34.0527,4.75 C34.0527,6.959 32.2607,8.753 30.0507,8.753 C27.8417,8.753 26.0477,6.959 26.0477,4.75 C26.0477,2.541 27.8417,0.75 30.0507,0.75 C32.2607,0.75 34.0527,2.541 34.0527,4.75 Z" id="Stroke-21" stroke="#1B1B1B" stroke-width="1.5" stroke-linecap="round" stroke-linejoin="round" mask="url(#mask-24)"></path>
                <g id="Group-24" mask="url(#mask-24)">
                    <g transform="translate(25.000000, 8.872000)">
                        <path d="M0.1865,11.335 L0.1865,5.372 C0.1865,2.772 2.2925,0.664 4.8945,0.664 L5.2075,0.664 C7.8085,0.664 9.9145,2.772 9.9145,5.372 L9.9145,11.335" id="Fill-22" stroke="none" fill="#FFFFFF" fill-rule="evenodd"></path>
                        <path d="M0.1865,11.335 L0.1865,5.372 C0.1865,2.772 2.2925,0.664 4.8945,0.664 L5.2075,0.664 C7.8085,0.664 9.9145,2.772 9.9145,5.372 L9.9145,11.335" id="Stroke-23" stroke="#1B1B1B" stroke-width="1.5" fill="none" stroke-linecap="round" stroke-linejoin="round"></path>
                    </g>
                </g>
            </g>
            <g id="Group-22" transform="translate(565.000000, 0.000000)">
                <path d="M38.2988,37.561 C38.2988,39.688 36.5748,41.413 34.4468,41.413 L4.6018,41.413 C2.4748,41.413 0.7498,39.688 0.7498,37.561 L0.7498,13.497 C0.7498,11.371 2.4748,9.646 4.6018,9.646 L34.4468,9.646 C36.5748,9.646 38.2988,11.371 38.2988,13.497 L38.2988,37.561 Z" id="Fill-1" fill="#FF6464"></path>
                <path d="M38.2988,37.561 C38.2988,39.688 36.5748,41.413 34.4468,41.413 L4.6018,41.413 C2.4748,41.413 0.7498,39.688 0.7498,37.561 L0.7498,13.497 C0.7498,11.371 2.4748,9.646 4.6018,9.646 L34.4468,9.646 C36.5748,9.646 38.2988,11.371 38.2988,13.497 L38.2988,37.561 Z" id="Stroke-3" stroke="#1B1B1B" stroke-width="1.5" stroke-linecap="round" stroke-linejoin="round"></path>
                <mask id="mask-26" fill="white">
                    <use xlink:href="#path-25"></use>
                </mask>
                <g id="Clip-6"></g>
                <polygon id="Fill-5" fill="#FFFFFF" mask="url(#mask-26)" points="9.318 30.9156 14.088 30.9156 14.088 24.9486 9.318 24.9486"></polygon>
                <polygon id="Stroke-7" stroke="#1B1B1B" stroke-width="1.5" stroke-linejoin="round" mask="url(#mask-26)" points="9.318 30.9156 14.088 30.9156 14.088 24.9486 9.318 24.9486"></polygon>
                <polygon id="Fill-8" fill="#FFFFFF" mask="url(#mask-26)" points="17.139 30.9156 21.908 30.9156 21.908 20.1426 17.139 20.1426"></polygon>
                <polygon id="Stroke-9" stroke="#1B1B1B" stroke-width="1.5" stroke-linejoin="round" mask="url(#mask-26)" points="17.139 30.9156 21.908 30.9156 21.908 20.1426 17.139 20.1426"></polygon>
                <polygon id="Fill-10" fill="#FFFFFF" mask="url(#mask-26)" points="24.961 30.9156 29.729 30.9156 29.729 23.0796 24.961 23.0796"></polygon>
                <polygon id="Stroke-11" stroke="#1B1B1B" stroke-width="1.5" stroke-linejoin="round" mask="url(#mask-26)" points="24.961 30.9156 29.729 30.9156 29.729 23.0796 24.961 23.0796"></polygon>
                <path d="M33.7442,1.5346 C32.8042,0.9926 31.8202,0.8126 30.7612,0.7616 C29.8182,0.7166 28.7052,0.7926 27.7182,1.2406 C24.8092,2.5606 23.5212,5.9896 24.8412,8.8976 L29.7952,19.9496 L29.8572,19.9516 L35.8632,9.4336 C37.4592,6.6676 36.5102,3.1306 33.7442,1.5346" id="Fill-12" fill="#00C4DE" mask="url(#mask-26)"></path>
                <path d="M33.7442,1.5346 C32.8042,0.9926 31.8202,0.8126 30.7612,0.7616 C29.8182,0.7166 28.7052,0.7926 27.7182,1.2406 C24.8092,2.5606 23.5212,5.9896 24.8412,8.8976 L29.7952,19.9496 L29.8572,19.9516 L35.8632,9.4336 C37.4592,6.6676 36.5102,3.1306 33.7442,1.5346 Z" id="Stroke-13" stroke="#1B1B1B" stroke-width="1.5" stroke-linecap="round" mask="url(#mask-26)"></path>
                <path d="M32.7715,6.3266 C32.7095,7.5816 31.6415,8.5516 30.3845,8.4906 C29.1265,8.4296 28.1585,7.3606 28.2185,6.1036 C28.2815,4.8466 29.3495,3.8786 30.6075,3.9376 C31.8625,4.0006 32.8325,5.0686 32.7715,6.3266" id="Fill-14" fill="#FFFFFF" mask="url(#mask-26)"></path>
                <path d="M32.7715,6.3266 C32.7095,7.5816 31.6415,8.5516 30.3845,8.4906 C29.1265,8.4296 28.1585,7.3606 28.2185,6.1036 C28.2815,4.8466 29.3495,3.8786 30.6075,3.9376 C31.8625,4.0006 32.8325,5.0686 32.7715,6.3266 Z" id="Stroke-15" stroke="#1B1B1B" stroke-width="1.5" stroke-linejoin="round" mask="url(#mask-26)"></path>
                <path d="M4.5586,13.5659 L4.5586,16.0379" id="Stroke-16" stroke="#1B1B1B" stroke-width="1.5" mask="url(#mask-26)"></path>
                <path d="M9.0059,13.5659 L9.0059,16.0379" id="Stroke-17" stroke="#1B1B1B" stroke-width="1.5" mask="url(#mask-26)"></path>
                <path d="M13.4541,13.5659 L13.4541,16.0379" id="Stroke-18" stroke="#1B1B1B" stroke-width="1.5" mask="url(#mask-26)"></path>
                <path d="M17.9024,13.5659 L17.9024,16.0379" id="Stroke-19" stroke="#1B1B1B" stroke-width="1.5" mask="url(#mask-26)"></path>
                <path d="M22.3516,13.5659 L22.3516,16.0379" id="Stroke-20" stroke="#1B1B1B" stroke-width="1.5" mask="url(#mask-26)"></path>
                <path d="M38.167,35.9575 L20.869,35.9575" id="Stroke-21" stroke="#1B1B1B" stroke-width="1.5" mask="url(#mask-26)"></path>
            </g>
            <g id="Group-24" transform="translate(624.000000, 1.000000)">
                <path d="M9.54,21.3457 L9.54,7.7347 L9.54,21.3457 Z" id="Fill-1" fill="#FFFFFF"></path>
                <path d="M9.54,21.3456 L9.54,7.7356" id="Stroke-2" stroke="#1B1B1B" stroke-width="1.5"></path>
                <g id="Group-23" transform="translate(0.000000, 0.807500)">
                    <path d="M3.5088,0.7227 C1.9658,2.2667 1.0118,4.3977 1.0118,6.7537 C1.0118,9.1097 1.9658,11.2437 3.5088,12.7857" id="Stroke-3" stroke="#1B1B1B" stroke-width="1.5"></path>
                    <path d="M15.5732,12.7852 C17.1152,11.2432 18.0702,9.1092 18.0702,6.7542 C18.0702,4.3972 17.1152,2.2662 15.5732,0.7222" id="Stroke-5" stroke="#1B1B1B" stroke-width="1.5"></path>
                    <path d="M4.4677,21.2344 L39.3607,21.2344 C41.4147,21.2344 43.0787,22.8984 43.0787,24.9524 L43.0787,29.3064 L27.4527,29.3064 L43.0787,29.3064 L43.0787,33.5314 C43.0787,35.5854 41.4147,37.2504 39.3607,37.2504 L4.4677,37.2504 C2.4137,37.2504 0.7497,35.5854 0.7497,33.5314 L0.7497,24.9524 C0.7497,22.8984 2.4137,21.2344 4.4677,21.2344" id="Fill-7" fill="#FFED64"></path>
                    <path d="M4.4677,21.2344 L39.3607,21.2344 C41.4147,21.2344 43.0787,22.8984 43.0787,24.9524 L43.0787,29.3064 L27.4527,29.3064 L43.0787,29.3064 L43.0787,33.5314 C43.0787,35.5854 41.4147,37.2504 39.3607,37.2504 L4.4677,37.2504 C2.4137,37.2504 0.7497,35.5854 0.7497,33.5314 L0.7497,24.9524 C0.7497,22.8984 2.4137,21.2344 4.4677,21.2344 Z" id="Stroke-9" stroke="#1B1B1B" stroke-width="1.5" stroke-linecap="round" stroke-linejoin="round"></path>
                    <path d="M23.3652,26.2432 L23.3652,32.0252" id="Stroke-11" stroke="#1B1B1B" stroke-width="1.5"></path>
                    <path d="M18.6338,26.2432 L18.6338,32.0252" id="Stroke-13" stroke="#1B1B1B" stroke-width="1.5"></path>
                    <path d="M13.9023,26.2432 L13.9023,32.0252" id="Stroke-15" stroke="#1B1B1B" stroke-width="1.5"></path>
                    <path d="M9.1718,26.2432 L9.1718,32.0252" id="Stroke-17" stroke="#1B1B1B" stroke-width="1.5"></path>
                    <path d="M13.1035,6.0615 C13.1035,8.0935 11.4565,9.7415 9.4235,9.7415 C7.3915,9.7415 5.7445,8.0935 5.7445,6.0615 C5.7445,4.0285 7.3915,2.3815 9.4235,2.3815 C11.4565,2.3815 13.1035,4.0285 13.1035,6.0615" id="Fill-19" fill="#FFFFFF"></path>
                    <path d="M13.1035,6.0615 C13.1035,8.0935 11.4565,9.7415 9.4235,9.7415 C7.3915,9.7415 5.7445,8.0935 5.7445,6.0615 C5.7445,4.0285 7.3915,2.3815 9.4235,2.3815 C11.4565,2.3815 13.1035,4.0285 13.1035,6.0615 Z" id="Stroke-21" stroke="#1B1B1B" stroke-width="1.5"></path>
                </g>
            </g>
            <g id="Group-28" transform="translate(683.000000, 2.000000)">
                <polygon id="Fill-1" fill="#6EE09B" points="1.2375 36.6848 15.0545 36.6848 21.7405 25.1078 14.8305 13.1428"></polygon>
                <polygon id="Fill-2" fill="#6EE09B" points="13.131 16.0838 11.434 19.0278 9.734 21.9728 8.033 24.9148 6.333 27.8578 4.635 30.7998 2.938 33.7438 1.238 36.6848 2.966 36.6848 4.692 36.6848 6.417 36.6848 8.145 36.6848 9.873 36.6848 11.599 36.6848 13.326 36.6848 15.054 36.6848 15.889 35.2398 16.725 33.7918 17.561 32.3448 18.397 30.8968 19.231 29.4478 20.068 28.0018 20.904 26.5548 21.74 25.1078 20.877 23.6128 20.012 22.1158 19.148 20.6208 18.286 19.1248 17.422 17.6288 16.558 16.1328 15.694 14.6378 14.83 13.1428"></polygon>
                <polygon id="Fill-3" fill="#000000" points="12.5127 15.7265 10.8147 18.6715 9.1157 21.6135 7.4147 24.5565 8.6537 25.2695 10.3507 22.3285 12.0507 19.3845 13.7497 16.4405 14.8307 14.5685 15.0767 14.9935 15.9407 16.4905 16.8047 17.9855 17.6667 19.4825 18.5297 20.9765 19.3947 22.4715 20.2577 23.9685 20.9147 25.1075 20.2847 26.1965 19.4487 27.6445 18.6157 29.0925 17.7787 30.5395 16.9427 31.9855 16.1087 33.4355 15.2707 34.8825 14.6407 35.9715 13.3267 35.9715 11.5987 35.9715 9.8727 35.9715 8.1447 35.9715 6.4167 35.9715 4.6917 35.9715 2.9657 35.9715 2.4717 35.9715 3.5537 34.1005 5.2547 31.1565 6.9537 28.2135 5.7177 27.5015 5.7157 27.4995 4.0177 30.4445 2.3177 33.3865 -0.0003 37.3985 2.9657 37.3985 4.6917 37.3985 6.4167 37.3985 8.1447 37.3985 9.8727 37.3985 11.5987 37.3985 13.3267 37.3985 15.4647 37.3985 16.5077 35.5975 17.3417 34.1475 18.1787 32.7005 19.0137 31.2545 19.8507 29.8065 20.6867 28.3595 21.5217 26.9085 22.5617 25.1075 21.4927 23.2545 20.6297 21.7595 19.7647 20.2635 18.9037 18.7675 18.0407 17.2725 17.1747 15.7765 16.3127 14.2815 14.8307 11.7165"></polygon>
                <polygon id="Fill-4" fill="#6EE09B" points="21.7404 25.1081 28.4234 36.6851 48.1504 36.6851 31.6014 8.0241"></polygon>
                <polygon id="Fill-5" fill="#000000" points="21.1212 24.7517 22.3582 25.4637 31.6012 9.4497 46.9142 35.9727 28.4242 35.9727 28.4242 37.3987 49.3842 37.3987 31.6012 6.5977"></polygon>
                <polygon id="Fill-6" fill="#6EE09B" points="15.0543 36.6848 28.4233 36.6848 21.7403 25.1078"></polygon>
                <polygon id="Fill-7" fill="#000000" points="13.8186 37.3994 28.4236 37.3994 28.4236 35.9734 16.2886 35.9734 22.3576 25.4634 21.1216 24.7514"></polygon>
                <g id="Group-27" transform="translate(0.000000, 0.399400)">
                    <path d="M48.6104,29.9395 C48.6104,29.9395 49.9704,29.2415 50.2134,27.9175 C50.4534,26.6165 49.9704,24.8485 47.7734,24.9185 C47.7734,24.9185 48.4064,21.5785 45.8134,20.4695 C43.2574,19.3805 41.7424,21.2235 41.7424,21.2235 C41.7424,21.2235 39.9634,17.0015 35.1874,18.1555 C31.0034,19.1675 31.0034,22.8255 31.0034,22.8255 C31.0034,22.8255 28.0054,23.3845 28.0404,26.3135 C28.0674,28.6505 30.0974,29.9395 32.2234,29.9395 L48.6104,29.9395 Z" id="Fill-8" fill="#FFFFFF"></path>
                    <path d="M28.751,26.3047 C28.772,27.2617 29.162,27.9377 29.787,28.4437 C30.414,28.9407 31.303,29.2267 32.224,29.2237 L48.415,29.2237 C48.422,29.2217 48.43,29.2167 48.434,29.2137 C48.541,29.1437 48.688,29.0357 48.838,28.9007 C49.143,28.6207 49.433,28.2337 49.514,27.7877 C49.54,27.6357 49.556,27.4727 49.556,27.3067 C49.557,26.8477 49.43,26.4117 49.194,26.1297 C48.955,25.8517 48.619,25.6377 47.897,25.6287 C47.867,25.6287 47.839,25.6287 47.813,25.6307 L46.902,25.6807 L47.072,24.7857 C47.072,24.7857 47.084,24.7297 47.099,24.5957 C47.111,24.4617 47.128,24.2647 47.128,24.0367 C47.128,23.5647 47.061,22.9487 46.826,22.4147 C46.586,21.8797 46.223,21.4247 45.533,21.1237 C45.03,20.9107 44.602,20.8367 44.23,20.8367 C43.147,20.8297 42.439,21.5147 42.307,21.6597 L42.291,21.6747 L41.542,22.5877 L41.085,21.4977 C41.085,21.4977 41.074,21.4757 41.038,21.4017 C41.001,21.3257 40.941,21.2137 40.86,21.0807 C40.695,20.8107 40.441,20.4457 40.094,20.0847 C39.385,19.3637 38.347,18.6707 36.781,18.6687 C36.35,18.6687 35.877,18.7197 35.355,18.8477 C33.693,19.2567 32.852,20.0637 32.353,20.8517 C31.859,21.6417 31.744,22.4387 31.721,22.7237 C31.715,22.8047 31.717,22.8257 31.717,22.8257 L31.717,23.4187 L31.132,23.5277 C31.134,23.5287 31.115,23.5307 31.053,23.5467 C30.989,23.5647 30.894,23.5907 30.772,23.6297 C30.54,23.7127 30.223,23.8497 29.918,24.0547 C29.308,24.4827 28.764,25.0817 28.751,26.2607 L28.751,26.2857 L28.529,26.2857 L28.751,26.3047 Z M48.61,29.9397 L48.61,29.2237 L48.61,29.9397 Z M32.224,30.6507 C31.016,30.6507 29.829,30.2897 28.9,29.5607 C27.974,28.8357 27.338,27.6977 27.327,26.3497 C27.326,26.2957 27.327,26.2647 27.326,26.2607 C27.315,24.5587 28.251,23.4397 29.123,22.8697 C29.576,22.5677 30.016,22.3827 30.339,22.2717 C30.402,21.8497 30.549,21.2287 30.89,20.5497 C31.476,19.3567 32.731,18.0027 35.019,17.4627 C35.643,17.3087 36.233,17.2417 36.781,17.2417 C38.8,17.2377 40.242,18.1787 41.117,19.0917 C41.466,19.4537 41.738,19.8127 41.939,20.1157 C42.448,19.7717 43.218,19.4177 44.23,19.4107 C44.799,19.4097 45.427,19.5307 46.091,19.8127 C47.143,20.2567 47.795,21.0517 48.133,21.8467 C48.479,22.6417 48.553,23.4387 48.553,24.0367 C48.553,24.1127 48.553,24.1847 48.55,24.2517 C49.297,24.3787 49.902,24.7347 50.297,25.2257 C50.805,25.8507 50.98,26.6097 50.982,27.3067 C50.982,27.5577 50.959,27.8057 50.915,28.0457 C50.547,29.8037 48.986,30.5247 48.936,30.5737 L48.78,30.6507 L32.224,30.6507 Z" id="Fill-10" fill="#000000"></path>
                    <path d="M18.6494,9.9707 C18.6494,9.9707 19.6314,9.4657 19.8084,8.5107 C19.9804,7.5697 19.6314,6.2937 18.0454,6.3447 C18.0454,6.3447 18.5014,3.9317 16.6294,3.1317 C14.7824,2.3427 13.6874,3.6747 13.6874,3.6747 C13.6874,3.6747 12.4044,0.6247 8.9554,1.4587 C5.9314,2.1887 5.9314,4.8327 5.9314,4.8327 C5.9314,4.8327 3.7664,5.2377 3.7924,7.3507 C3.8124,9.0377 5.2784,9.9707 6.8134,9.9707 L18.6494,9.9707 Z" id="Fill-12" fill="#FFFFFF"></path>
                    <g id="Group-16" transform="translate(3.000000, 0.000000)">
                        <mask id="mask-28" fill="white">
                            <use xlink:href="#path-27"></use>
                        </mask>
                        <g id="Clip-15"></g>
                        <path d="M1.503,7.3428 C1.519,7.9768 1.769,8.3998 2.176,8.7338 C2.587,9.0618 3.188,9.2598 3.814,9.2578 L15.448,9.2578 C15.513,9.2108 15.597,9.1498 15.681,9.0718 C15.88,8.8898 16.061,8.6418 16.106,8.3818 C16.123,8.2828 16.133,8.1758 16.133,8.0698 C16.134,7.7708 16.049,7.4988 15.918,7.3448 C15.784,7.1908 15.611,7.0638 15.134,7.0538 C15.134,7.0538 15.111,7.0558 15.09,7.0568 L14.175,7.1128 L14.345,6.2148 C14.345,6.2148 14.351,6.1808 14.359,6.0888 C14.369,5.9988 14.381,5.8648 14.381,5.7078 C14.381,5.3828 14.333,4.9648 14.18,4.6138 C14.02,4.2628 13.799,3.9828 13.348,3.7878 C13.01,3.6418 12.728,3.5948 12.485,3.5938 C11.787,3.5858 11.317,4.0398 11.242,4.1238 L11.24,4.1258 L10.49,5.0418 L10.029,3.9498 C10.029,3.9498 10.028,3.9418 10.002,3.8928 C9.977,3.8418 9.939,3.7668 9.881,3.6738 C9.772,3.4888 9.596,3.2368 9.357,2.9888 C8.866,2.4948 8.174,2.0308 7.106,2.0268 C6.811,2.0278 6.484,2.0638 6.122,2.1528 C4.969,2.4378 4.414,2.9818 4.074,3.5118 C3.741,4.0418 3.663,4.5878 3.649,4.7758 C3.646,4.8258 3.646,4.8308 3.647,4.8328 L3.647,5.4268 L3.063,5.5348 C3.063,5.5348 3.057,5.5348 3.018,5.5458 C2.976,5.5548 2.91,5.5718 2.83,5.6018 C2.675,5.6578 2.46,5.7488 2.26,5.8838 C1.856,6.1738 1.516,6.5318 1.503,7.3138 L1.503,7.3248 L1.503,7.3428 Z M15.649,9.9708 L15.649,9.2578 L15.649,9.9708 Z M3.814,10.6828 C2.902,10.6828 2.001,10.4118 1.291,9.8528 C0.586,9.3028 0.092,8.4248 0.078,7.3828 C0.075,7.3358 0.078,7.3138 0.078,7.3138 C0.066,6.0108 0.798,5.1308 1.463,4.6998 C1.761,4.5048 2.047,4.3718 2.276,4.2848 C2.333,3.9728 2.447,3.5548 2.672,3.1008 C3.113,2.1958 4.078,1.1678 5.781,0.7678 C6.252,0.6528 6.692,0.6008 7.106,0.6008 C8.627,0.5958 9.724,1.3118 10.381,1.9978 C10.583,2.2098 10.75,2.4168 10.886,2.6068 C11.272,2.3798 11.805,2.1748 12.485,2.1688 C12.922,2.1668 13.405,2.2588 13.908,2.4748 C14.719,2.8148 15.228,3.4378 15.486,4.0448 C15.751,4.6548 15.805,5.2518 15.807,5.6998 C16.314,5.8228 16.738,6.0858 17.022,6.4408 C17.426,6.9388 17.559,7.5318 17.559,8.0698 C17.559,8.2628 17.543,8.4538 17.51,8.6378 C17.212,10.0308 16.024,10.5558 15.974,10.6058 L15.821,10.6828 L3.814,10.6828 Z" id="Fill-14" fill="#000000" mask="url(#mask-28)"></path>
                    </g>
                    <mask id="mask-30" fill="white">
                        <use xlink:href="#path-29"></use>
                    </mask>
                    <g id="Clip-18"></g>
                    <polygon id="Fill-17" fill="#000000" mask="url(#mask-30)" points="2.313 27.053 4.415 27.053 4.415 25.626 2.313 25.626"></polygon>
                    <polygon id="Fill-19" fill="#000000" mask="url(#mask-30)" points="6.515 27.053 8.616 27.053 8.616 25.627 6.515 25.627"></polygon>
                    <polygon id="Fill-20" fill="#000000" mask="url(#mask-30)" points="10.717 27.053 12.819 27.053 12.819 25.627 10.717 25.627"></polygon>
                    <polygon id="Fill-21" fill="#000000" mask="url(#mask-30)" points="14.918 27.053 17.019 27.053 17.019 25.626 14.918 25.626"></polygon>
                    <polygon id="Fill-22" fill="#000000" mask="url(#mask-30)" points="20.852 33.605 22.951 33.605 22.951 32.178 20.852 32.178"></polygon>
                    <polygon id="Fill-23" fill="#000000" mask="url(#mask-30)" points="23.818 33.605 25.918 33.605 25.918 32.178 23.818 32.178"></polygon>
                    <polygon id="Fill-24" fill="#000000" mask="url(#mask-30)" points="26.783 33.605 28.886 33.605 28.886 32.178 26.783 32.178"></polygon>
                    <polygon id="Fill-25" fill="#000000" mask="url(#mask-30)" points="29.751 33.605 31.85 33.605 31.85 32.178 29.751 32.178"></polygon>
                    <polygon id="Fill-26" fill="#000000" mask="url(#mask-30)" points="32.715 33.602 34.816 33.602 34.816 32.178 32.715 32.178"></polygon>
                </g>
            </g>
        </g>
    </g>
</svg>