<?xml version="1.0" encoding="utf-8"?>
<!-- Generator: Adobe Illustrator 13.0.0, SVG Export Plug-In  -->
<!DOCTYPE svg PUBLIC "-//W3C//DTD SVG 1.1//EN" "http://www.w3.org/Graphics/SVG/1.1/DTD/svg11.dtd" [
	<!ENTITY ns_flows "http://ns.adobe.com/Flows/1.0/">
]>
<svg version="1.1"
	 xmlns="http://www.w3.org/2000/svg" xmlns:xlink="http://www.w3.org/1999/xlink" xmlns:a="http://ns.adobe.com/AdobeSVGViewerExtensions/3.0/"
	 x="0px" y="0px" width="36px" height="36px" viewBox="-0.742 -0.754 36 36" enable-background="new -0.742 -0.754 36 36"
	 xml:space="preserve">
<defs>
</defs>
<path fill="#FFFFFF" d="M14.258,31.496v-6.75h6v6.75H14.258z M30.758,18.746c-0.828,0-1.5,0.672-1.5,1.5v11.25h-6v-8.25
	c0-0.398-0.156-0.781-0.438-1.062c-0.28-0.282-0.663-0.438-1.062-0.438h-9c-0.828,0-1.5,0.672-1.5,1.5v8.25h-6v-11.25
	c0-0.828-0.672-1.5-1.5-1.5s-1.5,0.672-1.5,1.5v12.75c0,0.398,0.156,0.781,0.438,1.062c0.281,0.282,0.664,0.438,1.062,0.438h27
	c0.398,0,0.781-0.156,1.062-0.438c0.282-0.28,0.438-0.663,0.438-1.062v-12.75c0-0.398-0.156-0.781-0.438-1.062
	C31.539,18.902,31.156,18.746,30.758,18.746z M34.012,14.637l-15.75-14.25c-0.57-0.516-1.438-0.516-2.008,0l-15.75,14.25
	c-0.621,0.554-0.676,1.507-0.121,2.129c0.555,0.621,1.508,0.675,2.129,0.121L17.258,3.519l14.746,13.336
	c0.621,0.559,1.574,0.504,2.133-0.117c0.56-0.621,0.504-1.574-0.117-2.133L34.012,14.637z"/>
</svg>
