<?xml version="1.0" encoding="utf-8"?>
<!-- Generator: Adobe Illustrator 13.0.0, SVG Export Plug-In  -->
<!DOCTYPE svg PUBLIC "-//W3C//DTD SVG 1.1//EN" "http://www.w3.org/Graphics/SVG/1.1/DTD/svg11.dtd" [
	<!ENTITY ns_flows "http://ns.adobe.com/Flows/1.0/">
]>
<svg version="1.1"
	 xmlns="http://www.w3.org/2000/svg" xmlns:xlink="http://www.w3.org/1999/xlink" xmlns:a="http://ns.adobe.com/AdobeSVGViewerExtensions/3.0/"
	 x="0px" y="0px" width="18px" height="18px" viewBox="-3 -4.5 18 18" enable-background="new -3 -4.5 18 18" xml:space="preserve">
<defs>
</defs>
<path fill="#1B3C88" d="M11.25,9H0.75C0.336,9,0,8.664,0,8.25S0.336,7.5,0.75,7.5h10.5C11.664,7.5,12,7.836,12,8.25
	S11.664,9,11.25,9z M11.25,5.25H0.75C0.336,5.25,0,4.914,0,4.5s0.336-0.75,0.75-0.75h10.5C11.664,3.75,12,4.086,12,4.5
	S11.664,5.25,11.25,5.25z M11.25,1.5H0.75C0.336,1.5,0,1.164,0,0.75S0.336,0,0.75,0h10.5C11.664,0,12,0.336,12,0.75
	S11.664,1.5,11.25,1.5z"/>
</svg>
